<svg width="138" height="98" viewBox="0 0 138 98" fill="none" xmlns="http://www.w3.org/2000/svg">
<path opacity="0.2" d="M27.6511 23.2255C25.7969 28.3057 27.0115 33.416 27.0115 33.416C27.0115 33.416 31.2324 30.2896 33.0866 25.2093C34.9408 20.1291 33.7262 15.0188 33.7262 15.0188C33.7262 15.0188 29.5053 18.1452 27.6511 23.2255Z" fill="black"/>
<path d="M40.0897 51.154C50.6916 53.0234 60.8016 45.9443 62.671 35.3424C64.5404 24.7405 57.4613 14.6304 46.8594 12.761C36.2575 10.8916 26.1474 17.9707 24.278 28.5727C22.4086 39.1746 29.4877 49.2846 40.0897 51.154Z" fill="#D0CDE1"/>
<path d="M33.3844 45.3326C33.3844 45.3326 33.7742 57.1536 33.5626 58.3534C33.3511 59.5532 43.797 66.962 43.797 66.962L54.3124 66.9605L59.8158 56.7971C59.8158 56.7971 55.4035 46.741 56.0382 43.1417L33.3844 45.3326Z" fill="#D0CDE1"/>
<path d="M83.9694 67.6411L83.7399 67.9882C77.5185 77.3067 68.352 84.2698 57.7063 87.7641C47.0606 91.2583 35.5506 91.0818 25.017 87.2629C24.7306 87.1583 24.4449 87.0518 24.1601 86.9435C21.2185 85.816 18.391 84.4106 15.7162 82.7463C15.2817 82.476 14.8518 82.1994 14.4265 81.9166C14.136 81.7242 13.8463 81.5274 13.5602 81.3267C10.9652 79.5193 8.54778 77.4695 6.34047 75.2049L5.22882 68.2028L6.68001 67.4523L9.66526 65.9073L12.8504 64.2593L13.6787 63.83L26.1763 57.3635L27.0987 56.8863L33.5946 53.5254L33.5963 53.5242C33.5963 53.5242 38.0089 64.7043 47.5366 63.2915C57.0642 61.8786 58.3841 53.2429 58.3841 53.2429L83.9694 67.6411Z" fill="#0087D1"/>
<path d="M29.5544 13.5562C29.5544 13.5562 37.9777 1.42546 49.1221 6.53267C60.2665 11.6399 66.0632 17.3752 65.7651 22.0359C65.467 26.6966 63.4961 33.4189 63.4961 33.4189C63.4961 33.4189 63.8832 23.7988 55.3985 24.3975C46.9139 24.9962 34.485 21.2336 34.485 21.2336L29.2294 39.1598C29.2294 39.1598 27.5259 35.4555 24.6282 37.0393C21.7305 38.6231 20.7116 16.1865 29.5544 13.5562Z" fill="#2F2E41"/>
<path d="M15.7162 82.7464C15.2817 82.476 14.8518 82.1994 14.4265 81.9166C14.136 81.7242 13.8462 81.5274 13.5602 81.3268C9.2687 78.3355 5.47195 74.6909 2.30778 70.5253C3.9682 68.9374 5.22881 68.2028 5.22881 68.2028L14.2276 69.7896L14.7767 74.564L15.7162 82.7464Z" fill="#0087D1"/>
<path d="M76.2607 65.2635L83.7399 67.9882C80.8442 72.3302 77.2864 76.192 73.1959 79.4332L76.2607 65.2635Z" fill="#0087D1"/>
<path opacity="0.2" d="M119.994 19.4617C120.938 24.7868 118.855 29.6085 118.855 29.6085C118.855 29.6085 115.241 25.7967 114.297 20.4716C113.353 15.1466 115.437 10.3248 115.437 10.3248C115.437 10.3248 119.051 14.1367 119.994 19.4617Z" fill="black"/>
<path d="M118.467 65.2826L118.647 65.3758C118.63 65.5681 118.587 65.6864 118.467 65.2826Z" fill="#2F2E41"/>
<path d="M118.705 65.3447C118.707 65.3654 118.71 65.3875 118.711 65.4083L118.647 65.3757C118.649 65.3565 118.65 65.3358 118.653 65.3151C118.668 65.0562 118.65 64.75 118.705 65.3447Z" fill="#2F2E41"/>
<path d="M99.491 58.2677C112.907 58.2677 123.782 47.3922 123.782 33.9765C123.782 20.5608 112.907 9.6852 99.491 9.6852C86.0753 9.6852 75.1998 20.5608 75.1998 33.9765C75.1998 47.3922 86.0753 58.2677 99.491 58.2677Z" fill="#2F2E41"/>
<path d="M101.491 57.2777C109.615 57.2777 116.201 50.6915 116.201 42.567C116.201 34.4425 109.615 27.8563 101.491 27.8563C93.3662 27.8563 86.78 34.4425 86.78 42.567C86.78 50.6915 93.3662 57.2777 101.491 57.2777Z" fill="#D0CDE1"/>
<path d="M135.081 70.7618L135.063 70.7663L131.642 71.5873L124.517 73.2973L123.545 73.5311L112.711 76.1302L111.791 76.3521L85.5054 82.6598C83.7285 81.9801 81.9924 81.1982 80.3057 80.3181C80.2894 80.3092 80.2717 80.3003 80.2554 80.2914C80.1593 80.2411 80.0646 80.1923 79.9699 80.1405C79.7613 80.0311 79.5538 79.9196 79.3471 79.8062C78.1711 79.1598 77.0251 78.4684 75.9093 77.7323C75.6223 77.5444 75.3383 77.3536 75.0572 77.1598C74.967 77.0976 74.8782 77.0355 74.7895 76.9734C74.6963 76.9083 74.6031 76.8432 74.5113 76.7781C74.2673 76.605 74.0247 76.43 73.7835 76.253C76.3368 71.6124 82.4167 68.5281 88.4965 66.8402C93.0853 65.5651 94.0942 61.3743 94.0069 57.645C93.9847 56.7943 93.9126 55.9457 93.7909 55.1036C93.6056 53.7631 93.3107 52.4402 92.9093 51.1479L107.621 51.639L109.139 55.1361C109.097 55.5202 109.084 55.9068 109.099 56.2929C109.214 59.1612 110.985 61.0163 113.17 62.213C113.454 62.3684 113.745 62.5133 114.041 62.6479C117.624 64.2766 121.841 64.3876 121.841 64.3876C123.125 64.2456 124.423 64.27 125.701 64.4601C126.011 64.5074 126.313 64.5641 126.606 64.6302C128.316 65.0124 129.932 65.7354 131.356 66.7559C131.9 67.1429 132.415 67.5696 132.896 68.0325C133.751 68.833 134.487 69.7521 135.081 70.7618Z" fill="#D0CDE1"/>
<path d="M137.288 72.7012C137.226 72.7589 137.164 72.8151 137.102 72.8728C135.798 74.0636 134.433 75.1845 133.011 76.2308C132.057 76.9364 131.078 77.6065 130.073 78.2411C129.853 78.3817 129.631 78.5197 129.408 78.6553C129.02 78.892 128.629 79.1233 128.235 79.3491C127.72 79.645 127.199 79.9315 126.671 80.2086C126.458 80.3225 126.244 80.432 126.029 80.5414C125.715 80.7027 125.4 80.858 125.082 81.0104C125.028 81.037 124.973 81.0636 124.918 81.0888L124.292 80.5695L131.642 71.5873L133.119 69.7811C133.119 69.7811 133.71 69.7811 135.063 70.7663C135.811 71.3231 136.518 71.9331 137.178 72.5917C137.214 72.6287 137.251 72.6642 137.288 72.7012Z" fill="#D0CDE1"/>
<path d="M137.184 72.6006C137.165 72.6935 137.137 72.7846 137.102 72.8728C135.798 74.0636 134.433 75.1845 133.011 76.2308C131.778 76.6755 130.498 76.9797 129.196 77.1376C129.196 77.1376 129.307 77.6938 129.408 78.6554C129.02 78.8921 128.629 79.1233 128.235 79.3492C127.72 79.645 127.199 79.9315 126.671 80.2086C126.458 80.3225 126.244 80.432 126.029 80.5415C125.715 80.7027 125.4 80.858 125.082 81.0104C125.028 81.037 124.973 81.0637 124.918 81.0888C124.711 81.1894 124.501 81.287 124.291 81.3847C121.555 82.6465 118.71 83.6561 115.791 84.4009C115.775 84.4054 115.76 84.4083 115.744 84.4128C115.553 84.4616 115.36 84.5089 115.168 84.5548C115.025 84.5903 114.88 84.6243 114.735 84.6569C114.717 84.6627 114.699 84.6671 114.68 84.6702C114.383 84.7397 114.085 84.8063 113.785 84.8669C113.616 84.9024 113.448 84.9379 113.279 84.972C113.177 84.9941 113.073 85.0134 112.971 85.0326C112.843 85.0578 112.715 85.0814 112.587 85.1066C112.516 85.1214 112.445 85.1332 112.372 85.145C112.21 85.1746 112.047 85.2042 111.886 85.2323C111.61 85.2796 111.332 85.3255 111.056 85.3669C110.855 85.398 110.655 85.4276 110.454 85.4557C110.217 85.4897 109.98 85.5208 109.742 85.5504C109.677 85.5607 109.612 85.5681 109.547 85.5755C109.463 85.5859 109.378 85.5962 109.294 85.6066C109.124 85.6273 108.954 85.6465 108.782 85.6643C108.693 85.6746 108.606 85.6835 108.517 85.6924C108.349 85.7101 108.18 85.7264 108.011 85.7412C107.794 85.7619 107.576 85.7796 107.357 85.7974C107.091 85.8181 106.826 85.8373 106.559 85.8536C106.387 85.864 106.215 85.8743 106.042 85.8832C105.602 85.9069 105.161 85.9231 104.717 85.935C104.497 85.9409 104.275 85.9453 104.053 85.9483H104.048C103.828 85.9512 103.606 85.9527 103.384 85.9527C101.135 85.9537 98.8893 85.8034 96.6607 85.503C95.0261 85.2841 93.4176 84.9872 91.8353 84.6125C91.7717 84.5977 91.7081 84.5829 91.646 84.5666C91.4862 84.5296 91.3279 84.4897 91.1696 84.4498C91.0291 84.4143 90.89 84.3773 90.7495 84.3403C87.1277 83.3978 83.6241 82.0485 80.3057 80.3181C80.2894 80.3092 80.2717 80.3003 80.2554 80.2915C80.1593 80.2412 80.0646 80.1924 79.9699 80.1406C88.0897 78.2486 100.921 75.2648 112.056 72.7086C112.368 72.6376 112.678 72.5666 112.986 72.4956C117.099 71.5518 120.951 70.6731 124.21 69.9379C124.547 69.8624 124.877 69.7885 125.201 69.716C128.702 68.929 131.421 68.3314 132.896 68.0326C133.294 67.9417 133.695 67.8711 134.1 67.821L137.179 72.5917L137.184 72.6006Z" fill="#0087D1"/>
<path d="M77.2671 23.6398C81.2633 23.6398 84.5028 20.4002 84.5028 16.4041C84.5028 12.4079 81.2633 9.16837 77.2671 9.16837C73.271 9.16837 70.0314 12.4079 70.0314 16.4041C70.0314 20.4002 73.271 23.6398 77.2671 23.6398Z" fill="#2F2E41"/>
<path d="M121.715 21.5724C125.711 21.5724 128.951 18.3329 128.951 14.3367C128.951 10.3405 125.711 7.10101 121.715 7.10101C117.719 7.10101 114.479 10.3405 114.479 14.3367C114.479 18.3329 117.719 21.5724 121.715 21.5724Z" fill="#2F2E41"/>
<path d="M113.962 11.2357C113.963 9.4511 114.622 7.72953 115.815 6.40183C117.007 5.07412 118.649 4.23396 120.423 4.04278C119.412 3.93241 118.39 4.03618 117.422 4.34733C116.455 4.65849 115.563 5.17004 114.807 5.84867C114.05 6.52729 113.444 7.35776 113.03 8.28595C112.616 9.21414 112.401 10.2192 112.401 11.2357C112.401 12.2522 112.616 13.2573 113.03 14.1855C113.444 15.1137 114.05 15.9441 114.807 16.6228C115.563 17.3014 116.455 17.8129 117.422 18.1241C118.39 18.4353 119.412 18.539 120.423 18.4286C118.649 18.2375 117.007 17.3973 115.815 16.0696C114.622 14.7419 113.963 13.0203 113.962 11.2357V11.2357Z" fill="#2F2E41"/>
<path d="M69.1823 22.2569C67.9335 20.982 67.1999 19.2906 67.1225 17.5077C67.0451 15.7247 67.6293 13.9761 68.7629 12.5977C67.9639 13.2261 67.3062 14.0158 66.8328 14.9152C66.3593 15.8147 66.0807 16.8039 66.0151 17.8183C65.9495 18.8326 66.0983 19.8494 66.4519 20.8024C66.8055 21.7554 67.356 22.6232 68.0674 23.3493C68.7788 24.0754 69.6352 24.6434 70.5808 25.0163C71.5264 25.3893 72.5399 25.5589 73.5554 25.514C74.5709 25.469 75.5656 25.2107 76.4745 24.7557C77.3835 24.3007 78.1864 23.6593 78.8309 22.8732C77.4298 23.9785 75.6696 24.5269 73.8886 24.4131C72.1076 24.2994 70.4315 23.5314 69.1823 22.2569V22.2569Z" fill="#2F2E41"/>
<path d="M99.491 22.6061C90.9278 22.6061 83.986 26.6555 83.986 31.6507C83.986 33.8858 85.3813 35.9285 87.6846 37.5066L90.6695 35.3438L89.8578 38.732C90.1946 38.8881 90.5385 39.0392 90.8972 39.1788L95.3563 33.9765V40.3676C96.7237 40.5866 98.1063 40.6962 99.491 40.6953C108.054 40.6953 114.996 36.6459 114.996 31.6507C114.996 26.6555 108.054 22.6061 99.491 22.6061Z" fill="#2F2E41"/>
<path d="M114.479 14.3367C114.479 14.3367 113.356 19.5051 120.378 21.5724L114.479 14.3367Z" fill="#2F2E41"/>
<path d="M83.986 15.2774C83.986 15.2774 86.5702 21.0556 78.8176 23.6397L83.986 15.2774Z" fill="#2F2E41"/>
<path d="M87.8183 48.3423C88.4703 48.1598 88.6437 46.7434 88.2057 45.1786C87.7676 43.6139 86.884 42.4934 86.232 42.6759C85.58 42.8584 85.4066 44.2749 85.8447 45.8396C86.2827 47.4044 87.1663 48.5249 87.8183 48.3423Z" fill="#D0CDE1"/>
<path d="M117.67 43.1327C117.77 41.5109 117.303 40.1624 116.627 40.1208C115.952 40.0792 115.323 41.3602 115.223 42.982C115.123 44.6038 115.59 45.9523 116.266 45.9939C116.941 46.0356 117.57 44.7545 117.67 43.1327Z" fill="#D0CDE1"/>
</svg>
