<svg width="283" height="112" viewBox="0 0 283 112" fill="none" xmlns="http://www.w3.org/2000/svg">
<path d="M264.362 2.92969V15.0391C264.362 16.6795 263.073 17.9688 261.432 17.9688C259.791 17.9688 258.502 16.6795 258.502 15.0391V2.92969C258.502 1.28887 259.791 0 261.432 0C263.073 0 264.362 1.28887 264.362 2.92969Z" fill="#FEA832"/>
<path d="M264.362 2.92969V15.0391C264.362 16.6795 263.073 17.9688 261.432 17.9688V0C263.073 0 264.362 1.28887 264.362 2.92969Z" fill="#FF8700"/>
<path d="M276.081 20.8984V38.4766C276.081 40.117 274.792 41.4062 273.151 41.4062L261.432 39.4139L249.713 37.4219C248.073 37.4219 246.784 36.074 246.784 34.4922V20.8984C246.784 16.035 250.709 12.1094 255.573 12.1094H267.292C272.155 12.1094 276.081 16.035 276.081 20.8984Z" fill="#73553A"/>
<path d="M276.081 20.8984V38.4766C276.081 40.117 274.792 41.4062 273.151 41.4062L261.432 39.4139V12.1094H267.292C272.155 12.1094 276.081 16.035 276.081 20.8984Z" fill="#59422D"/>
<path d="M252.643 54.824L212.838 99.0037C212.311 99.6484 211.491 100 210.67 100H190.924C188.171 100 186.94 96.5428 189.108 94.7852L246.198 48.4375L249.303 51.4842L252.643 54.824Z" fill="#FEA832"/>
<path d="M252.643 54.824L212.838 99.0037C212.311 99.6484 211.491 100 210.67 100H200.592L246.96 53.8281L249.303 51.4842L252.643 54.824Z" fill="#FF8700"/>
<path d="M271.803 28.9844C266.237 23.418 256.627 23.418 251.061 28.9844L238.639 41.4063C237.526 42.5781 237.526 44.3945 238.639 45.5662L246.96 53.8281L255.221 62.1482C256.334 63.2615 258.209 63.2615 259.382 62.1482C263.834 57.6363 267.292 54.1795 271.803 49.6678C277.487 43.9844 277.487 34.7266 271.803 28.9844Z" fill="#896748"/>
<path d="M271.803 49.6678C267.291 54.1797 263.834 57.6365 259.382 62.1482C258.21 63.2615 256.334 63.2615 255.221 62.1482L246.96 53.8281L271.803 28.9844C277.487 34.7266 277.487 43.9844 271.803 49.6678Z" fill="#73553A"/>
<path d="M276.081 2.92969C276.081 4.57012 274.792 5.85938 273.151 5.85938H226.081V0H273.151C274.792 0 276.081 1.28887 276.081 2.92969Z" fill="#73553A"/>
<path d="M17.5781 2.92969V15.0391C17.5781 16.6795 16.2893 17.9688 14.6484 17.9688C13.0076 17.9688 11.7188 16.6795 11.7188 15.0391V2.92969C11.7188 1.28887 13.0076 0 14.6484 0C16.2893 0 17.5781 1.28887 17.5781 2.92969Z" fill="#FEA832"/>
<path d="M17.5781 2.92969V15.0391C17.5781 16.6795 16.2893 17.9688 14.6484 17.9688V0C16.2893 0 17.5781 1.28887 17.5781 2.92969Z" fill="#FF8700"/>
<path d="M20.5078 12.1094H8.78906C3.92559 12.1094 0 16.035 0 20.8984V38.4766C0 40.117 1.28887 41.4062 2.92969 41.4062L14.6484 39.4139L26.3672 37.4219C28.008 37.4219 29.2969 36.074 29.2969 34.4922V20.8984C29.2969 16.035 25.3713 12.1094 20.5078 12.1094Z" fill="#664B34"/>
<path d="M29.2969 20.8984V34.4922C29.2969 36.074 28.008 37.4219 26.3672 37.4219L14.6484 39.4139V12.1094H20.5078C25.3713 12.1094 29.2969 16.035 29.2969 20.8984Z" fill="#59422D"/>
<path d="M85.1562 100H65.4102C64.5898 100 63.7693 99.6484 63.2422 99.0037L23.4375 54.824L26.7773 51.4842L29.8826 48.4375L87.0313 94.7852C89.1406 96.5428 87.91 100 85.1562 100Z" fill="#FFD400"/>
<path d="M75.4881 100H65.4102C64.5898 100 63.7693 99.6484 63.2422 99.0037L23.4375 54.824L26.7773 51.4842L29.1209 53.8281L75.4881 100Z" fill="#FDBF00"/>
<path d="M37.4414 41.4062L25.0195 28.9844C19.4531 23.418 9.84356 23.418 4.27715 28.9844C-1.40625 34.7266 -1.40625 43.9844 4.27715 49.6678C8.78907 54.1797 12.2461 57.6365 16.699 62.1482C17.2852 62.6758 17.9883 62.9686 18.8086 62.9686C19.5703 62.9686 20.3316 62.6756 20.8592 62.1482L29.1207 53.8281L37.4412 45.5662C38.5549 44.3945 38.5549 42.5781 37.4414 41.4062Z" fill="#896748"/>
<path d="M29.1209 53.8281L20.8594 62.1482C20.3318 62.6758 19.5705 62.9686 18.8088 62.9686C17.9885 62.9686 17.2853 62.6756 16.6992 62.1482C12.2465 57.6363 8.78925 54.1795 4.27734 49.6678C-1.40626 43.9844 -1.40626 34.7266 4.27714 28.9844L29.1209 53.8281Z" fill="#73553A"/>
<path d="M31.6414 78.4244C27.5617 78.4244 24.2544 75.0329 24.2544 70.8494C24.2544 66.6658 27.5617 63.2744 31.6414 63.2744C35.7212 63.2744 39.0284 66.6658 39.0284 70.8494C39.0284 75.0329 35.7212 78.4244 31.6414 78.4244Z" fill="#703C22"/>
<path d="M41.1194 86.756V110.755H22.2401V86.5781L12.4448 73.5203C12.0746 73.0267 11.8449 72.4376 11.7809 71.8185L10.0185 54.7283C9.82746 52.8755 11.1371 51.215 12.9439 51.0191C14.75 50.824 16.3698 52.1662 16.5608 54.0187L18.2256 70.1619L26.3677 81.016H37.4548L44.6611 73.9519L37.4371 61.179C36.5255 59.5675 37.0609 57.5035 38.6323 56.5689C40.2038 55.6343 42.2167 56.1833 43.128 57.7945L51.6506 72.8636C52.4126 74.2109 52.1761 75.9179 51.078 76.9941L41.1194 86.756Z" fill="#703C22"/>
<path d="M41.1194 110.755H22.2401V86.5781L16.2109 78.5408L21.9491 75.126L26.3677 81.0162H28.8685C29.6633 81.8914 30.8036 82.4531 31.9704 82.4531C33.221 82.4531 34.2948 81.8906 35.043 81.0162H37.455L42.8983 75.6803L47.7335 80.2728L41.1196 86.7562V110.756H41.1194V110.755Z" fill="#F92F3E"/>
<path d="M75.5511 78.207C71.4714 78.207 68.1641 74.8156 68.1641 70.632C68.1641 66.4485 71.4714 63.057 75.5511 63.057C79.6309 63.057 82.9381 66.4485 82.9381 70.632C82.9381 74.8156 79.6309 78.207 75.5511 78.207Z" fill="#703C22"/>
<path d="M94.7502 71.1953C94.7064 71.7483 94.5302 72.2816 94.2373 72.7481L85.0738 87.3395C85.0593 87.3625 85.0435 87.384 85.0287 87.4065V110.756H66.1494V87.134L55.937 73.5201C55.5668 73.0266 55.3371 72.4375 55.2731 71.8184L53.5105 54.7281C53.3195 52.8758 54.6289 51.215 56.4358 51.0191C58.2413 50.8223 59.8617 52.166 60.0528 54.0188L61.7176 70.1619L69.8596 81.016H81.2201L88.2603 69.8061L89.4317 55.0481C89.5793 53.1912 91.1666 51.8108 92.9774 51.9598C94.7879 52.1108 96.1362 53.7387 95.989 55.5955L94.7502 71.1953Z" fill="#703C22"/>
<path d="M94.2373 72.748L85.0738 87.3394C85.0593 87.3625 85.0435 87.3839 85.0287 87.4064V110.756H66.1494V87.134L55.937 73.5201C55.5667 73.0265 55.337 72.4375 55.2731 71.8183L54.5982 65.2757L61.1396 64.5582L61.7176 70.1617L69.8596 81.0158H72.71C73.5061 81.9115 74.6609 82.489 75.8435 82.489C77.1112 82.489 78.198 81.9113 78.9473 81.0158H81.2201L88.2603 69.8056L88.6768 64.5582L95.2774 65.3246L94.7502 71.1953C94.7064 71.7482 94.5302 72.2816 94.2373 72.748Z" fill="#FEA613"/>
<path d="M168.094 79.4244C172.6 79.4244 176.254 76.0329 176.254 71.8494C176.254 67.6658 172.6 64.2744 168.094 64.2744C163.587 64.2744 159.934 67.6658 159.934 71.8494C159.934 76.0329 163.587 79.4244 168.094 79.4244Z" fill="#865A61"/>
<path d="M157.624 87.756V111.755H178.479V87.5781L189.299 74.5203C189.708 74.0267 189.962 73.4376 190.033 72.8185L191.98 55.7283C192.191 53.8755 190.744 52.215 188.748 52.0191C186.753 51.824 184.964 53.1662 184.753 55.0187L182.914 71.1619L173.919 82.016H161.672L153.712 74.9519L161.692 62.179C162.699 60.5675 162.107 58.5035 160.371 57.5689C158.635 56.6343 156.412 57.1833 155.405 58.7945L145.991 73.8636C145.149 75.2109 145.41 76.9179 146.623 77.9941L157.624 87.756Z" fill="#865A61"/>
<path d="M157.624 111.755H178.479V87.5781L185.139 79.5408L178.8 76.126L173.919 82.0162H171.157C170.279 82.8914 169.019 83.4531 167.73 83.4531C166.349 83.4531 165.163 82.8906 164.336 82.0162H161.672L155.659 76.6803L150.318 81.2728L157.624 87.7562V111.756H157.624V111.755Z" fill="#2F6D88"/>
<path d="M119.589 79.207C124.096 79.207 127.749 75.8156 127.749 71.632C127.749 67.4485 124.096 64.057 119.589 64.057C115.082 64.057 111.429 67.4485 111.429 71.632C111.429 75.8156 115.082 79.207 119.589 79.207Z" fill="#FBC18B"/>
<path d="M98.3806 72.1953C98.429 72.7483 98.6236 73.2816 98.9472 73.7481L109.07 88.3395C109.086 88.3625 109.103 88.384 109.119 88.4065V111.756H129.975V88.134L141.256 74.5201C141.665 74.0266 141.918 73.4375 141.989 72.8184L143.936 55.7281C144.147 53.8758 142.701 52.215 140.705 52.0191C138.71 51.8223 136.92 53.166 136.709 55.0188L134.87 71.1619L125.876 82.016H113.327L105.55 70.8061L104.256 56.0481C104.093 54.1912 102.339 52.8108 100.339 52.9598C98.3389 53.1108 96.8495 54.7387 97.0121 56.5955L98.3806 72.1953Z" fill="#FBC18B"/>
<path d="M98.9472 73.748L109.07 88.3394C109.086 88.3625 109.103 88.3839 109.119 88.4064V111.756H129.975V88.134L141.256 74.5201C141.665 74.0265 141.918 73.4375 141.989 72.8183L142.735 66.2757L135.509 65.5582L134.87 71.1617L125.876 82.0158H122.727C121.848 82.9115 120.572 83.489 119.266 83.489C117.866 83.489 116.665 82.9113 115.837 82.0158H113.327L105.55 70.8056L105.09 65.5582L97.7982 66.3246L98.3806 72.1953C98.429 72.7482 98.6236 73.2816 98.9472 73.748Z" fill="#322194"/>
<path d="M259.996 79.4244C264.18 79.4244 267.571 76.0329 267.571 71.8494C267.571 67.6658 264.18 64.2744 259.996 64.2744C255.813 64.2744 252.421 67.6658 252.421 71.8494C252.421 76.0329 255.813 79.4244 259.996 79.4244Z" fill="#FBBEBE"/>
<path d="M250.277 87.756V111.755H269.637V87.5781L279.682 74.5203C280.061 74.0267 280.297 73.4376 280.362 72.8185L282.17 55.7283C282.366 53.8755 281.023 52.215 279.17 52.0191C277.318 51.824 275.657 53.1662 275.461 55.0187L273.754 71.1619L265.404 82.016H254.035L246.645 74.9519L254.053 62.179C254.988 60.5675 254.439 58.5035 252.828 57.5689C251.216 56.6343 249.152 57.1833 248.218 58.7945L239.478 73.8636C238.697 75.2109 238.939 76.9179 240.065 77.9941L250.277 87.756Z" fill="#FBBEBE"/>
<path d="M250.277 111.755H269.637V87.5781L275.82 79.5408L269.935 76.126L265.404 82.0162H262.84C262.025 82.8914 260.856 83.4531 259.659 83.4531C258.377 83.4531 257.276 82.8906 256.508 82.0162H254.035L248.453 76.6803L243.495 81.2728L250.277 87.7562V111.756H250.277V111.755Z" fill="#0087D1"/>
<path d="M214.969 79.207C219.153 79.207 222.544 75.8156 222.544 71.632C222.544 67.4485 219.153 64.057 214.969 64.057C210.786 64.057 207.394 67.4485 207.394 71.632C207.394 75.8156 210.786 79.207 214.969 79.207Z" fill="#EDB59E"/>
<path d="M195.282 72.1953C195.327 72.7483 195.507 73.2816 195.808 73.7481L205.204 88.3395C205.219 88.3625 205.235 88.384 205.251 88.4065V111.756H224.61V88.134L235.083 74.5201C235.462 74.0266 235.698 73.4375 235.763 72.8184L237.571 55.7281C237.767 53.8758 236.424 52.215 234.571 52.0191C232.72 51.8223 231.058 53.166 230.862 55.0188L229.155 71.1619L220.806 82.016H209.156L201.937 70.8061L200.735 56.0481C200.584 54.1912 198.956 52.8108 197.1 52.9598C195.243 53.1108 193.86 54.7387 194.011 56.5955L195.282 72.1953Z" fill="#EDB59E"/>
<path d="M195.808 73.748L205.204 88.3394C205.219 88.3625 205.235 88.3839 205.251 88.4064V111.756H224.61V88.134L235.083 74.5201C235.462 74.0265 235.698 73.4375 235.763 72.8183L236.455 66.2757L229.748 65.5582L229.155 71.1617L220.806 82.0158H217.883C217.066 82.9115 215.882 83.489 214.669 83.489C213.369 83.489 212.255 82.9113 211.487 82.0158H209.156L201.937 70.8056L201.51 65.5582L194.741 66.3246L195.282 72.1953C195.327 72.7482 195.507 73.2816 195.808 73.748Z" fill="#FA676D"/>
<path d="M231 3C231 4.6798 228.152 6 224.525 6H16.4746C12.8484 6 10 4.6798 10 3C10 1.3198 12.8484 0 16.4746 0H224.525C228.152 0 231 1.3198 231 3Z" fill="#896748"/>
</svg>
