<svg width="200" height="155" viewBox="0 0 200 155" fill="none" xmlns="http://www.w3.org/2000/svg">
<path d="M180.573 74.0471L177.594 87.4454L175.176 98.3148L173.249 106.984L170.832 117.853L162.935 153.364L65.0806 108.147L57.8877 104.823L48.783 100.615L41.5874 97.2905L32.9331 93.2909L37.8394 86.1528L41.9193 80.2172L47.0807 72.7076L51.1595 66.7757L97.0577 0L145.68 43.1102L154.338 50.7867L161.242 56.9081L169.902 64.5846L180.573 74.0471Z" fill="#F2F2F2"/>
<path d="M38.3365 113.465C31.793 109.818 27.7196 104.838 26.229 98.6635C25.1223 94.0795 25.4403 88.921 27.1742 83.3316C28.4595 79.2105 30.3866 75.3179 32.8845 71.7972C46.1361 53.0399 47.3321 40.8176 46.002 33.8673C44.5436 26.2464 39.8054 23.0814 39.7577 23.0504L39.9622 22.7358C40.0111 22.7676 44.8742 26.0062 46.3677 33.7816C47.2286 38.2642 46.8236 43.3755 45.1638 48.9735C43.098 55.9405 39.0697 63.6923 33.191 72.0137C30.7158 75.5023 28.8062 79.3592 27.5325 83.4426C24.6889 92.61 24.2865 105.203 38.5191 113.138L38.3365 113.465Z" fill="#2F2E41"/>
<path d="M41.4831 113.465C48.0265 109.818 52.1 104.838 53.5906 98.6635C54.6973 94.0795 54.3792 88.921 52.6454 83.3316C51.3601 79.2105 49.433 75.3179 46.9351 71.7972C33.6835 53.0399 32.4875 40.8176 33.8176 33.8673C35.276 26.2464 40.0142 23.0814 40.0619 23.0504L39.8574 22.7358C39.8085 22.7676 34.9454 26.0062 33.4519 33.7816C32.591 38.2642 32.996 43.3755 34.6558 48.9735C36.7216 55.9405 40.7499 63.6923 46.6286 72.0137C49.1037 75.5023 51.0133 79.3592 52.2871 83.4426C55.1307 92.61 55.533 105.203 41.3005 113.138L41.4831 113.465Z" fill="#2F2E41"/>
<path d="M184.101 97.7072C177.557 94.0595 173.484 89.0793 171.993 82.9053C170.886 78.3212 171.204 73.1628 172.938 67.5733C174.224 63.4522 176.151 59.5596 178.649 56.0389C191.9 37.2816 193.096 25.0593 191.766 18.109C190.308 10.4882 185.57 7.32315 185.522 7.2921L185.726 6.97754C185.775 7.00932 190.638 10.2479 192.132 18.0233C192.993 22.5059 192.588 27.6172 190.928 33.2153C188.862 40.1822 184.834 47.9341 178.955 56.2554C176.48 59.744 174.57 63.601 173.297 67.6843C170.453 76.8517 170.051 89.4452 184.283 97.3797L184.101 97.7072Z" fill="#2F2E41"/>
<path d="M187.247 97.7072C193.791 94.0595 197.864 89.0793 199.355 82.9053C200.461 78.3212 200.143 73.1628 198.41 67.5733C197.124 63.4522 195.197 59.5596 192.699 56.0389C179.448 37.2816 178.252 25.0593 179.582 18.109C181.04 10.4882 185.778 7.32315 185.826 7.2921L185.622 6.97754C185.573 7.00932 180.71 10.2479 179.216 18.0233C178.355 22.5059 178.76 27.6172 180.42 33.2153C182.486 40.1822 186.514 47.9341 192.393 56.2554C194.868 59.744 196.777 63.601 198.051 67.6843C200.895 76.8517 201.297 89.4452 187.065 97.3797L187.247 97.7072Z" fill="#2F2E41"/>
<path d="M128.161 48.7256C123.245 40.4185 113.518 40.0313 113.518 40.0313C113.518 40.0313 104.04 38.8193 97.9602 51.4712C92.293 63.2638 84.4717 74.6498 96.701 77.4103L98.91 70.535L100.278 77.9222C102.019 78.0474 103.766 78.0773 105.511 78.0116C118.607 77.5888 131.08 78.1353 130.678 73.4357C130.144 67.1882 132.892 56.7188 128.161 48.7256Z" fill="#6C4336"/>
<path d="M108 66.5752C109.694 70.3225 110.762 74.7893 111.4 79.7509L125.001 78.9008C121.874 74.47 120.836 69.3843 122.026 63.6L108 66.5752Z" fill="#FFB8B8"/>
<path opacity="0.2" d="M107.982 66.1118C109.676 69.8591 110.744 74.326 111.382 79.2875L124.983 78.4375C121.856 74.0066 120.818 68.9209 122.008 63.1366L107.982 66.1118Z" fill="black"/>
<path d="M44.8784 137.46C44.8784 137.46 37.8392 141.23 41.4112 144.449C44.9832 147.668 49.7017 140.188 49.7017 140.188L44.8784 137.46Z" fill="#FFB8B8"/>
<path d="M130.933 126.465L130.823 131.616L130.589 142.746V142.748L130.521 145.971H85.5058L87.3353 135.812L87.3372 135.805L88.9753 126.713L89.7064 122.641V122.639L126.684 117.539L130.933 126.465Z" fill="#2F2E41"/>
<path d="M130.933 126.465L130.823 131.616C117.74 131.281 97.4625 128.123 88.9749 126.712L89.7059 122.64L126.683 117.54L130.933 126.465Z" fill="#3F3D56"/>
<path d="M114.57 69.7245C120.438 69.7245 125.195 64.9673 125.195 59.0989C125.195 53.2306 120.438 48.4734 114.57 48.4734C108.701 48.4734 103.944 53.2306 103.944 59.0989C103.944 64.9673 108.701 69.7245 114.57 69.7245Z" fill="#FFB8B8"/>
<path d="M134.971 132.203C134.971 132.203 136.246 143.679 128.595 142.828L127.32 131.353L120.52 124.552L101.394 124.127L87.3683 137.303C87.3683 137.303 86.9432 123.702 88.6433 122.427C90.3434 121.152 94.1686 118.177 94.1686 118.177V116.052L82.693 92.6757C82.693 92.6757 89.4934 78.65 95.0187 78.225L102.244 77.7999C102.244 77.7999 104.794 76.5249 104.794 76.0998C104.794 75.6748 104.369 72.2746 106.494 73.1247C106.494 73.1247 106.686 68.7639 108.925 70.0943C108.925 70.0943 115.977 75.6196 123.134 70.3365C123.134 70.3365 126.47 69.7245 126.045 71.4246C125.62 73.1247 126.045 74.3998 126.895 74.3998C127.745 74.3998 131.571 75.6748 131.571 76.5249C131.571 76.7076 131.847 78.4672 132.28 81.1151V81.1194C133.857 90.7716 137.521 112.227 137.521 112.227C137.521 112.227 141.346 117.752 134.971 132.203Z" fill="#0087D1"/>
<path d="M85.6682 90.5506L82.693 92.6757L55.4915 127.528L41.0407 139.003C41.0407 139.003 49.1162 137.728 47.4161 144.529L97.1438 116.052L85.6682 90.5506Z" fill="#0087D1"/>
<path d="M132.28 81.1151V81.1193C131.715 84.443 113.295 83.7502 110.745 83.7502C108.194 83.7502 106.069 83.3252 103.519 81.6251C100.969 79.925 102.244 77.7999 102.244 77.7999C102.244 77.7999 104.415 76.1461 104.415 75.7211C104.415 75.296 103.99 71.8959 106.116 72.7459C106.116 72.7459 106.307 68.3852 108.547 69.7155C108.547 69.7155 115.977 75.6195 123.134 70.3365C123.134 70.3365 126.47 69.7245 126.045 71.4246C125.62 73.1247 126.045 74.3997 126.895 74.3997C127.745 74.3997 131.571 75.6748 131.571 76.5248C131.571 76.7076 131.847 78.4672 132.28 81.1151Z" fill="#3F3D56"/>
<path d="M130.083 65.2618C130.083 65.2618 126.683 58.0364 123.283 61.4365C119.883 64.8367 127.108 69.937 127.108 69.937L130.083 65.2618Z" fill="#FFB8B8"/>
<path d="M130.083 63.5617C130.083 63.5617 124.833 70.1969 123.208 70.7045C123.208 70.7045 127.958 89.4881 133.908 94.5883L137.308 112.014C137.308 112.014 151.759 106.064 148.359 96.2884C148.325 96.1907 148.291 96.0935 148.258 95.9969C145.418 87.856 141.5 80.1326 136.608 73.0333L130.083 63.5617Z" fill="#0087D1"/>
<path opacity="0.2" d="M127.277 83.2416L137.733 112.014L133.908 94.5883L127.277 83.2416Z" fill="black"/>
<path d="M125.988 47.9248L116.378 42.8914L103.108 44.9505L100.363 57.0766L107.197 56.8138L109.106 52.3587V56.7405L112.26 56.6191L114.09 49.5264L115.234 57.0766L126.445 56.848L125.988 47.9248Z" fill="#6C4336"/>
</svg>

