<svg width="131" height="60" viewBox="0 0 131 60" fill="none" xmlns="http://www.w3.org/2000/svg">
<path fill-rule="evenodd" clip-rule="evenodd" d="M35.1663 40.2942C35.1218 40.045 35.0588 39.855 34.855 39.6692C34.6327 39.4622 34.44 39.4622 34.2066 39.4242C33.1876 39.2595 32.302 38.74 31.6276 37.9967L28.604 49.1505C28.1853 50.692 29.1969 52.2547 30.6123 52.2547H34.5846C33.9732 51.1482 33.8138 49.7882 34.1547 48.5255L34.4437 47.4612H33.4655L35.1181 41.3627C35.2108 41.0206 35.2293 40.6532 35.1663 40.2984V40.2942Z" fill="white"/>
<path fill-rule="evenodd" clip-rule="evenodd" d="M48.3798 47.457C47.4424 47.457 41.5767 47.457 40.7837 47.457L41.1024 46.2871C39.787 46.3167 38.6012 45.8859 37.6452 45.1257C37.4674 44.9864 37.3006 44.8343 37.1413 44.6738L35.9296 49.1463C35.5109 50.6879 36.5225 52.2505 37.9379 52.2505C38.5123 52.2505 47.824 52.2505 48.3835 52.2505C49.5433 52.2505 50.4882 51.1778 50.4882 49.8559C50.4882 48.534 49.547 47.4612 48.3835 47.4612L48.3798 47.457Z" fill="white"/>
<path d="M43.0774 21.002C45.0829 21.002 46.7087 19.149 46.7087 16.8631C46.7087 14.5773 45.0829 12.7243 43.0774 12.7243C41.0719 12.7243 39.4461 14.5773 39.4461 16.8631C39.4461 19.149 41.0719 21.002 43.0774 21.002Z" fill="white"/>
<path fill-rule="evenodd" clip-rule="evenodd" d="M21.2006 24.5327C21.0598 24.216 20.9671 23.8739 20.9227 23.5276C20.1223 23.705 19.5146 24.5074 19.5109 25.4703C19.5035 26.5726 20.2816 27.4722 21.2487 27.4806L21.8194 27.4848C21.1524 26.6993 20.9227 25.559 21.2043 24.5285L21.2006 24.5327Z" fill="white"/>
<path fill-rule="evenodd" clip-rule="evenodd" d="M42.9366 39.4622L42.1066 40.8221C41.8138 41.3036 41.2321 41.4218 40.8097 41.0882C40.4243 40.7799 40.3057 40.2013 40.5132 39.7367C39.3757 39.42 38.4085 38.4571 38.0195 37.0971C37.9046 36.6875 37.849 36.2736 37.849 35.8639C37.5007 35.9062 37.1376 35.809 36.83 35.5641C36.1408 35.0193 35.9704 33.9381 36.4521 33.1525C36.9301 32.367 37.8787 32.1727 38.5679 32.7218C38.6902 32.8189 38.7939 32.9329 38.8828 33.0554C39.2608 32.6246 39.7277 32.2868 40.2724 32.0883L43.1515 31.0282C42.2029 31.0831 41.7545 31.4843 40.7578 31.0282C39.7054 30.5467 39.4349 29.5965 39.2311 29.2375C38.101 27.2568 35.5591 27.1427 33.5878 29.2629C33.0357 28.8236 28.5151 25.238 27.9407 24.7819L28.2594 24.2582C28.5521 23.7767 28.4484 23.1179 28.026 22.78C27.6035 22.4464 27.0218 22.5646 26.7291 23.0461L26.4104 23.5698L26.1066 23.3291L26.4252 22.8054C26.7254 22.3155 26.6031 21.6566 26.1918 21.3272C25.7731 20.9978 25.195 21.1076 24.8986 21.5891C24.8986 21.5891 24.8986 21.5933 24.8949 21.5933L24.5762 22.117C24.3909 21.9692 24.3984 21.9734 24.3984 21.9734C23.8351 21.5257 23.0496 21.7327 22.7161 22.4211C22.4308 23.0081 22.5753 23.7599 23.0681 24.1526L23.246 24.292L22.9273 24.8157C22.6346 25.2971 22.7383 25.956 23.1607 26.2939C23.598 26.6402 24.1797 26.4923 24.4576 26.0278L24.7763 25.5041L25.0802 25.7448L24.7615 26.2685C24.4651 26.7542 24.5799 27.4173 24.9949 27.7467C25.4173 28.0803 25.9991 27.9621 26.2918 27.4806L26.6105 26.9569C27.6406 27.772 31.8351 31.1 32.2576 31.4379C31.1496 34.3646 32.2501 37.2745 34.5697 37.5448C35.1997 37.6208 35.8036 37.9714 36.2224 38.5162C36.5484 38.9343 36.7708 39.4664 36.8374 40.0577C37.0042 41.4683 37.5822 42.7437 38.6012 43.5546C41.032 45.4847 44.4447 43.7996 46.2159 40.8981C46.7754 39.9817 47.1978 38.9385 47.4164 37.8151L42.9366 39.4664V39.4622Z" fill="white"/>
<path fill-rule="evenodd" clip-rule="evenodd" d="M51.9852 31.1718C49.6434 27.9494 50.1621 28.6631 47.7684 25.3732C47.1237 24.4863 46.2789 23.8274 45.3192 23.4642C44.7411 23.2446 37.7564 20.6008 37.7564 20.6008C36.4558 20.1067 35.0477 20.1911 33.799 20.8415L29.9972 22.8138C30.1084 23.2404 30.1343 23.6965 30.0714 24.14L32.3761 25.9687L35.2515 24.4778C35.4627 24.368 35.711 24.4103 35.8815 24.5876C36.0556 24.765 36.1186 25.0395 36.0445 25.2929L35.8777 25.8673C36.1519 25.8166 36.4261 25.7913 36.6966 25.7913C37.686 25.7913 38.6235 26.1207 39.4053 26.7373C40.0538 27.2526 40.5651 27.9325 40.9208 28.7603C41.1024 29.1826 41.5063 29.3896 41.8991 29.2882C42.8069 29.0559 43.7443 29.0221 44.6707 29.2502L44.8634 28.6082C44.9041 28.4689 45.0116 28.3633 45.1376 28.338C45.2636 28.3126 45.397 28.3675 45.4785 28.4815C45.9305 29.1024 46.7161 30.1835 47.6387 31.4505L40.806 33.9677C39.887 34.3055 39.3794 35.4332 39.6795 36.4805C39.9759 37.5321 40.9653 38.1065 41.8842 37.7644L51.1774 34.3393C52.3557 33.9043 52.7745 32.2488 51.9889 31.1634L51.9852 31.1718Z" fill="white"/>
<path fill-rule="evenodd" clip-rule="evenodd" d="M14.6642 45.037L13.9157 49.0576C13.6489 50.4851 14.4493 51.8873 15.7054 52.1914C16.9579 52.4954 18.1881 51.579 18.4549 50.1515L20.6114 38.55C20.6114 38.55 16.239 43.3899 14.6642 45.037Z" fill="white"/>
<path fill-rule="evenodd" clip-rule="evenodd" d="M31.6906 5.57417C31.6573 4.95757 31.1978 4.48455 30.6531 4.52256L28.7707 4.64504C28.5818 4.15513 28.2446 3.74547 27.7814 3.51319C26.8032 3.02328 25.6656 3.52586 25.2321 4.64082L25.1357 4.88999L22.7198 5.05048C22.6902 5.05048 22.6605 5.0547 22.6309 5.06315C22.264 4.44654 21.6341 4.058 20.9338 4.10445C19.8777 4.17625 19.07 5.20674 19.1329 6.41039C19.1959 7.61404 20.1001 8.53473 21.1561 8.46293C21.8564 8.41648 22.4456 7.94769 22.7457 7.28462C22.7568 7.28462 22.768 7.28462 22.7754 7.28462C22.7939 7.28462 22.8124 7.28462 22.8347 7.28462L24.2464 7.19171L22.7531 11.0476L17.2691 11.698C16.8356 11.3644 16.3168 11.1701 15.7536 11.1701H10.9292C10.1251 11.1701 9.40252 11.5713 8.90599 12.209L11.0514 11.9894L3.35157 14.9077C2.74018 15.14 2.26588 15.7017 2.09544 16.4197C-0.175986 25.9433 0.0908043 24.8157 0.061161 24.9466C-0.205629 26.1376 0.427997 27.3075 1.42475 27.6158C2.44745 27.9325 3.51461 27.2441 3.79622 26.07C3.99632 25.2254 5.37473 19.4563 5.54889 18.7172L12.5225 16.0734L8.22049 19.2578C8.22049 20.4234 8.22049 28.9419 8.22049 30.078V30.1835L8.2242 30.1793C8.24643 30.8719 8.50581 31.5519 8.99492 32.0503C9.55074 32.6162 12.2186 35.3276 13.4748 36.6072L7.37936 43.1407C6.4456 44.1417 6.40113 45.8141 7.27932 46.8784C8.1575 47.9427 9.62485 47.9934 10.5586 46.9924L18.4993 38.4824C19.4887 37.4223 19.4701 35.619 18.4549 34.5843L13.4711 29.512C19.9037 33.4989 19.5257 33.2624 19.6369 33.3384L18.4623 29.6894V15.9889L24.2724 15.3005C24.9616 15.2203 25.5619 14.7219 25.8398 13.9997L28.5818 6.90875L30.768 6.76515C31.309 6.72714 31.724 6.19923 31.6906 5.58262V5.57417Z" fill="white"/>
<path d="M13.3673 9.79751C15.5795 9.79751 17.3729 7.7535 17.3729 5.23208C17.3729 2.71067 15.5795 0.666656 13.3673 0.666656C11.1551 0.666656 9.36176 2.71067 9.36176 5.23208C9.36176 7.7535 11.1551 9.79751 13.3673 9.79751Z" fill="white"/>
<path d="M73.084 52H68.576L68.24 44.412C68.1467 42.6013 68.1 40.9867 68.1 39.568C68.1 38.4853 68.128 37.4587 68.184 36.488L65.188 49.956H60.848L57.656 36.488C57.768 38.112 57.824 39.6427 57.824 41.08C57.824 42.1627 57.796 43.292 57.74 44.468L57.404 52H52.924L54.38 32.596H60.176L63.088 45.756L65.804 32.596H71.628L73.084 52ZM81.1117 52.02C80.6851 53.3933 79.9851 54.4467 79.0117 55.18C78.0517 55.9267 76.7584 56.3467 75.1317 56.44L74.7917 54.22C75.8051 54.0867 76.5517 53.86 77.0317 53.54C77.5251 53.22 77.9184 52.7067 78.2117 52H77.1317L73.8917 41.38H77.2517L79.1517 49.98L81.2317 41.38H84.4917L81.1117 52.02ZM91.6233 41.04C92.8899 41.04 93.8633 41.54 94.5433 42.54C95.2233 43.5267 95.5633 44.9133 95.5633 46.7C95.5633 47.7933 95.3899 48.7667 95.0433 49.62C94.7099 50.4733 94.2233 51.14 93.5833 51.62C92.9566 52.1 92.2099 52.34 91.3433 52.34C90.7699 52.34 90.2433 52.22 89.7633 51.98C89.2966 51.74 88.8966 51.4067 88.5633 50.98L88.4033 52H85.6033V37.16L88.7633 36.82V42.46C89.0833 42.02 89.4899 41.6733 89.9833 41.42C90.4899 41.1667 91.0366 41.04 91.6233 41.04ZM90.4233 50.04C91.6633 50.04 92.2833 48.9267 92.2833 46.7C92.2833 45.4333 92.1366 44.56 91.8433 44.08C91.5499 43.6 91.1233 43.36 90.5633 43.36C89.8566 43.36 89.2566 43.7733 88.7633 44.6V49.02C88.9633 49.34 89.2033 49.5933 89.4833 49.78C89.7766 49.9533 90.0899 50.04 90.4233 50.04ZM105.782 48.92C105.782 49.32 105.835 49.6133 105.942 49.8C106.062 49.9867 106.248 50.1267 106.502 50.22L105.842 52.28C105.188 52.2267 104.655 52.0867 104.242 51.86C103.828 51.62 103.508 51.2467 103.282 50.74C102.588 51.8067 101.522 52.34 100.082 52.34C99.0282 52.34 98.1882 52.0333 97.5616 51.42C96.9349 50.8067 96.6216 50.0067 96.6216 49.02C96.6216 47.86 97.0482 46.9733 97.9016 46.36C98.7549 45.7467 99.9882 45.44 101.602 45.44H102.682V44.98C102.682 44.3533 102.548 43.9267 102.282 43.7C102.015 43.46 101.548 43.34 100.882 43.34C100.535 43.34 100.115 43.3933 99.6216 43.5C99.1282 43.5933 98.6216 43.7267 98.1016 43.9L97.3816 41.82C98.0482 41.5667 98.7282 41.3733 99.4216 41.24C100.128 41.1067 100.782 41.04 101.382 41.04C102.902 41.04 104.015 41.3533 104.722 41.98C105.428 42.6067 105.782 43.5467 105.782 44.8V48.92ZM101.002 50.08C101.722 50.08 102.282 49.74 102.682 49.06V47.18H101.902C101.182 47.18 100.642 47.3067 100.282 47.56C99.9349 47.8133 99.7616 48.2067 99.7616 48.74C99.7616 49.1667 99.8682 49.5 100.082 49.74C100.308 49.9667 100.615 50.08 101.002 50.08ZM114.519 41.04C115.439 41.04 116.159 41.32 116.679 41.88C117.199 42.44 117.459 43.2267 117.459 44.24V52H114.299V44.78C114.299 44.2467 114.212 43.88 114.039 43.68C113.879 43.4667 113.632 43.36 113.299 43.36C112.659 43.36 112.045 43.82 111.459 44.74V52H108.299V41.38H111.059L111.279 42.64C111.732 42.1067 112.219 41.7067 112.739 41.44C113.272 41.1733 113.865 41.04 114.519 41.04ZM129.362 37.16V52H126.562L126.402 50.76C125.655 51.8133 124.648 52.34 123.382 52.34C122.062 52.34 121.055 51.8333 120.362 50.82C119.682 49.8067 119.342 48.42 119.342 46.66C119.342 45.58 119.522 44.6133 119.882 43.76C120.242 42.9067 120.748 42.24 121.402 41.76C122.068 41.28 122.828 41.04 123.682 41.04C124.695 41.04 125.535 41.3733 126.202 42.04V36.82L129.362 37.16ZM124.362 50.02C125.095 50.02 125.708 49.62 126.202 48.82V44.24C125.948 43.9333 125.688 43.7067 125.422 43.56C125.168 43.4133 124.875 43.34 124.542 43.34C123.955 43.34 123.488 43.6133 123.142 44.16C122.795 44.7067 122.622 45.5467 122.622 46.68C122.622 47.92 122.768 48.7867 123.062 49.28C123.368 49.7733 123.802 50.02 124.362 50.02Z" fill="white"/>
</svg>


