<svg width="137" height="135" viewBox="0 0 137 135" fill="none" xmlns="http://www.w3.org/2000/svg">
<path fill-rule="evenodd" clip-rule="evenodd" d="M91.5502 103.164C91.4345 102.516 91.2705 102.021 90.7399 101.537C90.1612 100.999 89.6595 100.999 89.0518 100.9C86.399 100.471 84.0935 99.1184 82.3378 97.1833L74.4663 126.221C73.3762 130.234 76.0097 134.302 79.6947 134.302H90.0357C88.4441 131.421 88.0293 127.881 88.9168 124.593L89.6692 121.823H87.1225L91.4248 105.946C91.666 105.056 91.7142 104.099 91.5502 103.175V103.164Z" fill="#382983"/>
<path fill-rule="evenodd" clip-rule="evenodd" d="M125.95 121.812C123.509 121.812 108.239 121.812 106.175 121.812L107.004 118.766C103.58 118.843 100.493 117.722 98.0039 115.743C97.5409 115.38 97.1068 114.984 96.692 114.566L93.5376 126.21C92.4476 130.223 95.0811 134.291 98.766 134.291C100.261 134.291 124.503 134.291 125.96 134.291C128.979 134.291 131.439 131.498 131.439 128.057C131.439 124.615 128.989 121.823 125.96 121.823L125.95 121.812Z" fill="#382983"/>
<path d="M112.146 52.9399C117.367 52.9399 121.599 48.1158 121.599 42.165C121.599 36.2141 117.367 31.3901 112.146 31.3901C106.925 31.3901 102.692 36.2141 102.692 42.165C102.692 48.1158 106.925 52.9399 112.146 52.9399Z" fill="#382983"/>
<path fill-rule="evenodd" clip-rule="evenodd" d="M55.1925 62.1315C54.8259 61.3069 54.5848 60.4163 54.469 59.5147C52.3854 59.9765 50.8033 62.0655 50.7937 64.5724C50.7744 67.442 52.8002 69.7839 55.3179 69.8059L56.8035 69.8169C55.0671 67.7719 54.469 64.8033 55.2021 62.1205L55.1925 62.1315Z" fill="#382983"/>
<path fill-rule="evenodd" clip-rule="evenodd" d="M111.779 100.998L109.618 104.538C108.856 105.792 107.342 106.1 106.242 105.231C105.239 104.428 104.93 102.922 105.47 101.713C102.509 100.888 99.991 98.3813 98.9781 94.841C98.6791 93.7745 98.5344 92.697 98.5344 91.6305C97.6276 91.7405 96.6823 91.4876 95.8816 90.8499C94.0873 89.4316 93.6436 86.6169 94.8976 84.5718C96.142 82.5268 98.6115 82.021 100.406 83.4504C100.724 83.7033 100.994 84.0001 101.226 84.319C102.21 83.1975 103.425 82.3179 104.843 81.8012L112.339 79.0415C109.869 79.1844 108.702 80.2289 106.107 79.0415C103.367 77.788 102.663 75.3142 102.133 74.3797C99.1903 69.2231 92.5728 68.9262 87.4409 74.4456C86.0036 73.3022 74.2348 63.9676 72.7396 62.7801L73.5692 61.4168C74.3313 60.1634 74.0612 58.4482 72.9615 57.5686C71.8618 56.7 70.3473 57.0079 69.5852 58.2613L68.7556 59.6246L67.9646 58.9979L68.7942 57.6346C69.5756 56.3592 69.2572 54.644 68.1865 53.7864C67.0964 52.9288 65.5916 53.2146 64.8198 54.468C64.8198 54.468 64.8198 54.479 64.8102 54.479L63.9806 55.8424C63.4983 55.4576 63.5176 55.4686 63.5176 55.4686C62.0513 54.3031 60.0062 54.8419 59.138 56.634C58.3953 58.1623 58.7715 60.1194 60.0545 61.1419L60.5175 61.5047L59.6879 62.8681C58.9258 64.1215 59.1959 65.8367 60.2956 66.7163C61.4339 67.6178 62.9484 67.233 63.6719 66.0236L64.5015 64.6602L65.2925 65.2869L64.4629 66.6503C63.6912 67.9147 63.9902 69.6409 65.0707 70.4985C66.1704 71.3671 67.6849 71.0592 68.4469 69.8058L69.2765 68.4425C71.9583 70.5645 82.8781 79.2284 83.9778 80.108C81.0935 87.7274 83.9585 95.3028 89.9972 96.0065C91.6371 96.2044 93.2095 97.1169 94.2996 98.5353C95.1485 99.6237 95.7272 101.009 95.9009 102.548C96.335 106.221 97.8398 109.541 100.493 111.652C106.821 116.677 115.705 112.29 120.316 104.736C121.773 102.35 122.873 99.6347 123.442 96.7101L111.779 101.009V100.998Z" fill="#382983"/>
<path fill-rule="evenodd" clip-rule="evenodd" d="M135.336 79.4158C129.239 71.0267 130.589 72.8849 124.358 64.3199C122.679 62.011 120.48 60.2958 117.981 59.3502C116.477 58.7785 98.293 51.8957 98.293 51.8957C94.9071 50.6093 91.2414 50.8292 87.9905 52.5224L78.0932 57.657C78.3826 58.7675 78.4502 59.9549 78.2862 61.1094L84.2863 65.8702L91.772 61.989C92.3218 61.7031 92.9681 61.8131 93.4119 62.2748C93.8653 62.7366 94.0292 63.4513 93.8363 64.111L93.4022 65.6063C94.1161 65.4743 94.8299 65.4084 95.5341 65.4084C98.1097 65.4084 100.55 66.266 102.586 67.8712C104.274 69.2126 105.605 70.9828 106.531 73.1377C107.004 74.2372 108.055 74.776 109.078 74.5121C111.441 73.9074 113.882 73.8194 116.293 74.4131L116.795 72.7419C116.901 72.3791 117.181 72.1042 117.509 72.0383C117.837 71.9723 118.184 72.1152 118.396 72.4121C119.573 74.0283 121.618 76.843 124.02 80.1415L106.232 86.6944C103.84 87.574 102.518 90.5096 103.3 93.2363C104.071 95.974 106.647 97.4693 109.039 96.5787L133.233 87.6619C136.3 86.5295 137.39 82.2195 135.345 79.3938L135.336 79.4158Z" fill="#382983"/>
<path fill-rule="evenodd" clip-rule="evenodd" d="M38.1763 115.512L36.2277 125.979C35.5332 129.695 37.6168 133.345 40.887 134.137C44.1475 134.929 47.3502 132.543 48.0447 128.826L53.659 98.6235C53.659 98.6235 42.2761 111.224 38.1763 115.512Z" fill="#382983"/>
<path fill-rule="evenodd" clip-rule="evenodd" d="M82.5018 12.7757C82.415 11.1705 81.2188 9.93908 79.8008 10.038L74.9004 10.3569C74.4084 9.08148 73.5306 8.01498 72.3248 7.41027C69.7781 6.13487 66.8166 7.44325 65.688 10.3459L65.4372 10.9946L59.1476 11.4124C59.0705 11.4124 58.9933 11.4234 58.9161 11.4454C57.9611 9.84012 56.3212 8.8286 54.498 8.94954C51.7488 9.13646 49.6458 11.8192 49.8098 14.9527C49.9738 18.0862 52.3275 20.4831 55.0768 20.2962C56.9 20.1752 58.4338 18.9548 59.2152 17.2286C59.2441 17.2286 59.273 17.2286 59.2923 17.2286C59.3406 17.2286 59.3888 17.2286 59.4467 17.2286L63.122 16.9867L59.2344 27.025L44.9576 28.7182C43.829 27.8496 42.4785 27.3439 41.0122 27.3439H28.4524C26.3591 27.3439 24.4781 28.3884 23.1854 30.0486L28.7708 29.4769L8.72532 37.0743C7.13365 37.679 5.8989 39.1413 5.45516 41.0104C-0.458153 65.8037 0.236396 62.8681 0.159224 63.2089C-0.535325 66.3095 1.11423 69.355 3.70914 70.1576C6.37158 70.9823 9.14977 69.1901 9.88291 66.1335C10.4038 63.9346 13.9923 48.9157 14.4457 46.9916L32.6004 40.1088L21.4008 48.3989C21.4008 51.4335 21.4008 73.61 21.4008 76.5676V76.8425L21.4105 76.8315C21.4684 78.6346 22.1436 80.4048 23.417 81.7022C24.8639 83.1755 31.8094 90.2342 35.0796 93.5656L19.2111 110.575C16.7802 113.18 16.6644 117.534 18.9506 120.305C21.2368 123.076 25.0569 123.208 27.4878 120.602L48.1603 98.4473C50.7359 95.6876 50.6876 90.9928 48.0445 88.2991L35.0699 75.0943C51.8163 85.4734 50.8323 84.8577 51.1217 85.0556L48.0638 75.5561V39.8889L63.1895 38.0968C64.9838 37.8879 66.5465 36.5905 67.27 34.7104L74.4084 16.2501L80.0999 15.8763C81.5082 15.7773 82.5886 14.403 82.5018 12.7977V12.7757Z" fill="#382983"/>
<path d="M34.8 23.7708C40.5592 23.7708 45.2279 18.4496 45.2279 11.8854C45.2279 5.32128 40.5592 0 34.8 0C29.0409 0 24.3722 5.32128 24.3722 11.8854C24.3722 18.4496 29.0409 23.7708 34.8 23.7708Z" fill="#382983"/>
</svg>
