<svg width="241" height="342" viewBox="0 0 241 342" fill="none" xmlns="http://www.w3.org/2000/svg">
<g clip-path="url(#clip0)">
<path d="M241 310.022H0V311.01H241V310.022Z" fill="#3F3D56"/>
<path d="M154.88 95.0491C154.88 95.0491 144.638 96.7544 139.375 95.7979C134.112 94.8414 123.67 100.27 123.67 100.27L96.0746 110.487C96.0746 110.487 71.1148 130.938 67.6049 116.688C65.6392 108.708 91.3628 102.294 91.3628 102.294L136.578 80.6358L153.029 74.9494L154.88 95.0491Z" fill="#FFB9B9"/>
<path d="M156.851 154.643L149.637 161.556L150.925 191.682C150.925 191.682 152.406 231.19 151.912 232.672C151.418 234.153 142.529 294.403 142.529 294.403C142.529 294.403 152.9 299.342 162.283 296.379C162.283 296.379 171.666 251.932 171.666 239.092L182.531 194.151L199.322 245.512C199.322 245.512 200.31 280.082 202.285 291.44C204.261 302.799 204.261 304.281 204.261 304.281C204.261 304.281 220.064 308.725 224.015 304.281C224.015 304.281 222.039 246.006 220.558 240.079L217.101 169.458L156.851 154.643Z" fill="#2F2E41"/>
<path d="M146.48 294.403C146.48 294.403 145.492 292.922 142.529 296.873C139.566 300.824 130.183 308.232 130.183 308.232C130.183 308.232 104.502 326.504 123.762 327.492C143.023 328.48 146.48 318.603 146.48 318.603C146.48 318.603 162.777 315.639 163.271 312.182C163.764 308.725 161.295 294.897 161.295 294.897L146.48 294.403Z" fill="#2F2E41"/>
<path d="M205.248 303.293C205.248 303.293 201.791 315.145 202.779 320.084C203.767 325.022 200.804 343.295 214.632 341.814C228.46 340.332 224.015 324.529 224.015 324.529L219.57 304.28L205.248 303.293Z" fill="#2F2E41"/>
<path d="M185.741 44.76C194.742 44.76 202.038 37.4635 202.038 28.4628C202.038 19.4621 194.742 12.1656 185.741 12.1656C176.74 12.1656 169.444 19.4621 169.444 28.4628C169.444 37.4635 176.74 44.76 185.741 44.76Z" fill="#FFB9B9"/>
<path d="M176.111 37.1052C176.111 37.1052 181.049 54.3902 177.099 60.8103C173.148 67.2304 203.767 61.798 205.742 55.8718C205.742 55.8718 195.865 45.0069 197.347 34.636L176.111 37.1052Z" fill="#FFB9B9"/>
<path d="M184.013 60.3164C184.013 60.3164 197.531 61.2304 204.106 53.8595L221.695 61.3765C223.617 62.1978 225.203 63.6471 226.194 65.4872C227.184 67.3272 227.521 69.4491 227.149 71.5056L218.088 121.554C218.088 121.554 222.234 153.161 220.064 174.397C218.103 193.583 146.974 174.397 149.443 158.1C149.707 156.354 149.951 154.568 150.176 152.771C152.253 136.719 155.256 120.8 159.168 105.094C160.482 99.7286 156.851 69.2058 156.851 69.2058L178.589 54.8026C178.589 54.8026 179.568 60.3164 184.013 60.3164Z" fill="#382983"/>
<path d="M169.357 67.929L165.225 63.6812L134.956 80.7268C134.956 80.7268 143.823 96.2154 147.315 96.2634C148.653 96.2818 164.534 97.0586 168.404 91.9232C174.632 83.6592 169.357 67.929 169.357 67.929Z" fill="#382983"/>
<path d="M181.737 17.7989C184.156 17.4206 186.594 17.1789 189.04 17.0749C190.812 16.9996 192.658 17.0116 194.259 17.7743C196.674 18.9242 198.027 21.5236 198.912 24.047C199.798 26.5705 200.426 29.2673 202.069 31.3774C204.803 28.5238 205.35 24.2814 205.757 20.3506C206.043 17.5858 206.297 14.6378 205.018 12.1696C204.231 10.6494 202.932 9.46477 201.616 8.36955C195.334 3.14131 187.356 -0.972587 179.268 0.201699L179.079 1.45038C177.699 1.40889 176.318 1.49569 174.953 1.70965L175.242 4.8076L170.946 5.08012L170.782 8.30878L166.437 8.45941C166.52 9.70012 167.06 10.866 167.952 11.7323C167.284 12.2152 166.525 12.558 165.721 12.7403C166.445 15.5449 167.149 18.3559 167.897 21.1542C168.448 23.2155 168.35 25.0368 170.561 24.0308C172.244 23.2649 173.383 20.8291 175.085 19.8228C177.091 18.6372 179.464 18.1546 181.737 17.7989Z" fill="#2F2E41"/>
<path d="M235.242 89.7557L235.481 107.161L230.468 157.044C230.468 157.044 233.172 183.417 224.999 184.279C210.404 185.817 221.162 155.395 221.162 155.395L221.398 125.97C221.398 125.97 222.958 114.304 220.27 109.68C217.583 105.055 215.708 94.8416 215.708 94.8416L235.242 89.7557Z" fill="#FFB9B9"/>
<path d="M221.546 62.7857C223.546 62.7852 225.492 63.435 227.091 64.6371C228.69 65.8392 229.855 67.5285 230.41 69.4504C233.564 80.379 239.292 100.944 237.843 101.306C235.867 101.8 212.656 103.282 212.656 103.282L221.546 62.7857Z" fill="#382983"/>
<path d="M41.2987 146.574L41.4178 146.603C43.5743 147.123 45.5114 148.311 46.9532 149.997C48.3949 151.683 49.2677 153.781 49.4472 155.993C49.6266 158.204 49.1035 160.415 47.9525 162.312C46.8015 164.208 45.0813 165.693 43.037 166.554C42.2326 166.896 41.3882 167.134 40.5241 167.263C38.9902 167.498 37.4235 167.39 35.9359 166.949C34.4483 166.507 33.0766 165.743 31.9186 164.71C30.7607 163.677 29.8451 162.401 29.2373 160.973C28.6295 159.545 28.3445 158.001 28.4025 156.45C28.4606 154.9 28.8603 153.381 29.5732 152.003C30.2861 150.625 31.2945 149.421 32.5264 148.477C33.7584 147.534 35.1834 146.874 36.6998 146.545C38.2162 146.216 39.7866 146.226 41.2987 146.574V146.574Z" fill="#0087D1"/>
<path d="M41.2988 146.574C42.3196 153.188 42.9003 159.863 43.037 166.554C42.2326 166.895 41.3883 167.133 40.5241 167.263C40.5868 160.235 39.9738 153.218 38.6935 146.308C39.5696 146.288 40.4448 146.377 41.2988 146.574Z" fill="#E6E6E6"/>
<path d="M83.2449 148.774L47.0932 150.241L48.1115 162.209L84.0405 156.79C84.6783 156.701 85.2564 156.367 85.6509 155.858C86.0454 155.349 86.2251 154.706 86.1514 154.066L86.1028 153.643L87.5211 153.585C87.6952 153.577 87.8658 153.534 88.0219 153.456C88.178 153.379 88.3162 153.27 88.4275 153.136C88.5387 153.002 88.6206 152.846 88.6679 152.678C88.7151 152.511 88.7267 152.335 88.7017 152.162L88.693 152.102C88.6469 151.783 88.479 151.495 88.2247 151.297C87.9703 151.1 87.6493 151.008 87.329 151.042L85.8219 151.203L85.7934 150.955C85.7223 150.337 85.42 149.769 84.9474 149.364C84.4747 148.96 83.8665 148.749 83.2449 148.774Z" fill="#3F3D56"/>
<path d="M63.2199 155.819C63.1825 155.975 63.0955 156.114 62.9721 156.215C62.8486 156.316 62.6955 156.375 62.5358 156.381L59.9393 156.489C59.7623 156.496 59.5889 156.439 59.4506 156.328C59.3122 156.218 59.2182 156.061 59.1856 155.887L58.9225 154.452C58.9043 154.353 58.9068 154.25 58.9299 154.152C58.9529 154.053 58.9961 153.961 59.0567 153.879C59.1173 153.798 59.1939 153.731 59.2819 153.681C59.3698 153.631 59.4671 153.599 59.5678 153.588L62.195 153.308C62.3843 153.288 62.5741 153.341 62.7245 153.458C62.8748 153.575 62.9738 153.746 63.0004 153.934L63.0003 153.934L63.233 155.542C63.2462 155.634 63.2418 155.728 63.2199 155.819V155.819ZM59.4072 154.262C59.3992 154.295 59.3983 154.33 59.4045 154.364L59.6678 155.799C59.6786 155.857 59.7099 155.909 59.756 155.946C59.8021 155.983 59.8599 156.002 59.9189 155.999L62.5155 155.892C62.5497 155.89 62.5833 155.882 62.6141 155.867C62.6448 155.851 62.672 155.83 62.6939 155.803C62.7158 155.777 62.7319 155.746 62.7412 155.713C62.7505 155.68 62.7528 155.646 62.7479 155.612L62.5153 154.004C62.5064 153.942 62.4735 153.885 62.4234 153.846C62.3733 153.807 62.31 153.789 62.247 153.796L59.6196 154.076C59.5861 154.079 59.5536 154.09 59.5242 154.106C59.4949 154.123 59.4694 154.146 59.4494 154.173C59.4294 154.199 59.4151 154.23 59.4072 154.262V154.262Z" fill="#E6E6E6"/>
<path fill-rule="evenodd" clip-rule="evenodd" d="M191.137 102.692C191.112 102.549 191.076 102.44 190.959 102.334C190.832 102.215 190.721 102.215 190.588 102.194C190.004 102.099 189.497 101.802 189.111 101.376L187.379 107.763C187.14 108.646 187.719 109.541 188.529 109.541H190.804C190.454 108.907 190.363 108.128 190.558 107.405L190.723 106.796H190.163L191.11 103.304C191.163 103.108 191.173 102.897 191.137 102.694V102.692Z" fill="white"/>
<path fill-rule="evenodd" clip-rule="evenodd" d="M198.704 106.793C198.167 106.793 194.808 106.793 194.354 106.793L194.536 106.124C193.783 106.14 193.104 105.894 192.557 105.458C192.455 105.379 192.359 105.292 192.268 105.2L191.574 107.761C191.334 108.643 191.914 109.538 192.724 109.538C193.053 109.538 198.385 109.538 198.706 109.538C199.37 109.538 199.911 108.924 199.911 108.167C199.911 107.41 199.372 106.796 198.706 106.796L198.704 106.793Z" fill="white"/>
<path d="M195.667 91.6445C196.816 91.6445 197.747 90.5834 197.747 89.2745C197.747 87.9656 196.816 86.9045 195.667 86.9045C194.519 86.9045 193.588 87.9656 193.588 89.2745C193.588 90.5834 194.519 91.6445 195.667 91.6445Z" fill="white"/>
<path fill-rule="evenodd" clip-rule="evenodd" d="M183.14 93.6663C183.06 93.4849 183.006 93.289 182.981 93.0907C182.523 93.1923 182.175 93.6518 182.173 94.2032C182.168 94.8344 182.614 95.3495 183.168 95.3544L183.494 95.3568C183.113 94.9069 182.981 94.254 183.142 93.6639L183.14 93.6663Z" fill="white"/>
<path fill-rule="evenodd" clip-rule="evenodd" d="M195.587 102.215L195.111 102.994C194.944 103.27 194.611 103.337 194.369 103.146C194.148 102.97 194.08 102.639 194.199 102.372C193.548 102.191 192.994 101.64 192.771 100.861C192.705 100.626 192.674 100.389 192.674 100.155C192.474 100.179 192.266 100.123 192.09 99.9831C191.695 99.6711 191.598 99.052 191.874 98.6022C192.147 98.1524 192.69 98.0412 193.085 98.3555C193.155 98.4112 193.215 98.4765 193.266 98.5466C193.482 98.2999 193.749 98.1064 194.061 97.9928L195.71 97.3858C195.167 97.4172 194.91 97.647 194.339 97.3858C193.737 97.1101 193.582 96.5659 193.465 96.3604C192.818 95.2261 191.362 95.1608 190.233 96.3749C189.917 96.1234 187.329 94.0702 187 93.809L187.182 93.5091C187.35 93.2334 187.29 92.8561 187.049 92.6626C186.807 92.4716 186.474 92.5393 186.306 92.815L186.123 93.1149L185.949 92.977L186.132 92.6772C186.304 92.3966 186.234 92.0194 185.998 91.8307C185.758 91.6421 185.427 91.705 185.258 91.9807C185.258 91.9807 185.258 91.9831 185.256 91.9831L185.073 92.283C184.967 92.1983 184.971 92.2007 184.971 92.2007C184.649 91.9444 184.199 92.0629 184.008 92.4571C183.845 92.7932 183.927 93.2237 184.21 93.4486L184.311 93.5284L184.129 93.8283C183.961 94.104 184.021 94.4813 184.263 94.6748C184.513 94.8731 184.846 94.7884 185.005 94.5224L185.188 94.2225L185.362 94.3604L185.179 94.6602C185.009 94.9384 185.075 95.318 185.313 95.5067C185.555 95.6977 185.888 95.63 186.056 95.3543L186.238 95.0544C186.828 95.5212 189.23 97.4269 189.472 97.6204C188.837 99.2963 189.467 100.963 190.796 101.117C191.156 101.161 191.502 101.362 191.742 101.674C191.929 101.913 192.056 102.218 192.094 102.556C192.19 103.364 192.521 104.094 193.104 104.559C194.496 105.664 196.45 104.699 197.465 103.038C197.785 102.513 198.027 101.915 198.152 101.272L195.587 102.218V102.215Z" fill="white"/>
<path fill-rule="evenodd" clip-rule="evenodd" d="M200.768 97.4681C199.427 95.6229 199.724 96.0316 198.353 94.1476C197.984 93.6398 197.501 93.2625 196.951 93.0545C196.62 92.9288 192.62 91.4148 192.62 91.4148C191.876 91.1319 191.069 91.1803 190.354 91.5527L188.177 92.6821C188.241 92.9263 188.256 93.1875 188.22 93.4415L189.539 94.4886L191.186 93.6349C191.307 93.5721 191.449 93.5962 191.547 93.6978C191.646 93.7994 191.682 93.9566 191.64 94.1017L191.545 94.4306C191.702 94.4016 191.859 94.3871 192.013 94.3871C192.58 94.3871 193.117 94.5757 193.565 94.9288C193.936 95.2238 194.229 95.6132 194.432 96.0872C194.536 96.329 194.768 96.4475 194.993 96.3895C195.512 96.2565 196.049 96.2371 196.58 96.3677L196.69 96.0001C196.713 95.9203 196.775 95.8599 196.847 95.8453C196.919 95.8308 196.996 95.8623 197.042 95.9276C197.301 96.2831 197.751 96.9022 198.279 97.6277L194.367 99.0691C193.84 99.2625 193.55 99.9082 193.722 100.508C193.891 101.11 194.458 101.439 194.984 101.243L200.306 99.2819C200.98 99.0328 201.22 98.0848 200.77 97.4633L200.768 97.4681Z" fill="white"/>
<path fill-rule="evenodd" clip-rule="evenodd" d="M179.397 105.408L178.968 107.71C178.816 108.527 179.274 109.33 179.993 109.504C180.71 109.679 181.415 109.154 181.568 108.336L182.803 101.693C182.803 101.693 180.299 104.464 179.397 105.408Z" fill="white"/>
<path fill-rule="evenodd" clip-rule="evenodd" d="M189.147 82.8101C189.128 82.4571 188.865 82.1862 188.553 82.208L187.475 82.2781C187.367 81.9976 187.174 81.763 186.908 81.63C186.348 81.3494 185.697 81.6372 185.449 82.2757L185.393 82.4184L184.01 82.5103C183.993 82.5103 183.976 82.5127 183.959 82.5175C183.749 82.1644 183.388 81.9419 182.987 81.9685C182.383 82.0096 181.92 82.5997 181.956 83.289C181.992 83.9782 182.51 84.5054 183.115 84.4643C183.516 84.4377 183.853 84.1693 184.025 83.7896C184.031 83.7896 184.038 83.7896 184.042 83.7896C184.052 83.7896 184.063 83.7896 184.076 83.7896L184.884 83.7364L184.029 85.9444L180.889 86.3168C180.641 86.1257 180.343 86.0145 180.021 86.0145H177.258C176.798 86.0145 176.384 86.2442 176.1 86.6094L177.328 86.4837L172.919 88.1548C172.569 88.2878 172.298 88.6094 172.2 89.0206C170.899 94.474 171.052 93.8283 171.035 93.9033C170.882 94.5853 171.245 95.2552 171.816 95.4317C172.401 95.6131 173.013 95.2189 173.174 94.5466C173.288 94.0629 174.078 90.7594 174.177 90.3362L178.171 88.8223L175.707 90.6457C175.707 91.3132 175.707 96.1911 175.707 96.8416V96.9021L175.709 96.8997C175.722 97.2963 175.871 97.6857 176.151 97.971C176.469 98.2951 177.997 99.8477 178.716 100.58L175.226 104.322C174.691 104.895 174.665 105.853 175.168 106.462C175.671 107.071 176.511 107.1 177.046 106.527L181.593 101.654C182.16 101.047 182.149 100.015 181.568 99.4221L178.714 96.5176C182.397 98.8005 182.181 98.6651 182.245 98.7086L181.572 96.6191V88.7739L184.899 88.3797C185.294 88.3337 185.637 88.0484 185.797 87.6348L187.367 83.5743L188.619 83.4921C188.928 83.4704 189.166 83.1681 189.147 82.815V82.8101Z" fill="white"/>
<path d="M178.655 85.2286C179.921 85.2286 180.948 84.0581 180.948 82.6143C180.948 81.1705 179.921 80 178.655 80C177.388 80 176.361 81.1705 176.361 82.6143C176.361 84.0581 177.388 85.2286 178.655 85.2286Z" fill="white"/>
</g>
<defs>
<clipPath id="clip0">
<rect width="241" height="341.899" fill="white"/>
</clipPath>
</defs>
</svg>
