<svg width="200" height="155" viewBox="0 0 200 155" fill="none" xmlns="http://www.w3.org/2000/svg">
<g clip-path="url(#clip0)">
<path d="M180.573 74.0471L177.594 87.4454L175.176 98.3148L173.249 106.984L170.832 117.853L162.935 153.364L65.0806 108.147L57.8877 104.823L48.7829 100.615L41.5874 97.2905L32.9331 93.2909L37.8394 86.1528L41.9193 80.2172L47.0807 72.7076L51.1594 66.7757L97.0577 0L145.68 43.1102L154.338 50.7867L161.242 56.9081L169.902 64.5846L180.573 74.0471Z" fill="#F2F2F2"/>
<path d="M38.3365 113.465C31.793 109.818 27.7196 104.838 26.229 98.6635C25.1223 94.0794 25.4403 88.921 27.1742 83.3316C28.4595 79.2105 30.3866 75.3179 32.8845 71.7972C46.1361 53.0399 47.3321 40.8176 46.002 33.8673C44.5436 26.2464 39.8054 23.0814 39.7577 23.0504L39.9622 22.7358C40.0111 22.7676 44.8742 26.0062 46.3677 33.7816C47.2286 38.2642 46.8236 43.3755 45.1638 48.9735C43.098 55.9405 39.0697 63.6923 33.191 72.0137C30.7158 75.5023 28.8062 79.3592 27.5325 83.4426C24.6889 92.61 24.2865 105.203 38.5191 113.138L38.3365 113.465Z" fill="#2F2E41"/>
<path d="M41.4831 113.465C48.0265 109.818 52.1 104.838 53.5905 98.6635C54.6973 94.0794 54.3792 88.921 52.6454 83.3316C51.3601 79.2105 49.433 75.3179 46.9351 71.7972C33.6835 53.0399 32.4874 40.8176 33.8176 33.8673C35.2759 26.2464 40.0142 23.0814 40.0619 23.0504L39.8574 22.7358C39.8084 22.7676 34.9454 26.0062 33.4519 33.7816C32.5909 38.2642 32.996 43.3755 34.6558 48.9735C36.7216 55.9405 40.7498 63.6923 46.6286 72.0137C49.1037 75.5023 51.0133 79.3592 52.2871 83.4426C55.1307 92.61 55.533 105.203 41.3004 113.138L41.4831 113.465Z" fill="#2F2E41"/>
<path d="M184.101 97.7072C177.557 94.0595 173.484 89.0793 171.993 82.9052C170.886 78.3212 171.205 73.1628 172.938 67.5733C174.224 63.4522 176.151 59.5596 178.649 56.0389C191.9 37.2816 193.096 25.0593 191.766 18.109C190.308 10.4882 185.57 7.32315 185.522 7.2921L185.726 6.97754C185.775 7.00932 190.638 10.2479 192.132 18.0233C192.993 22.5059 192.588 27.6172 190.928 33.2152C188.862 40.1822 184.834 47.934 178.955 56.2554C176.48 59.744 174.57 63.6009 173.297 67.6843C170.453 76.8517 170.051 89.4452 184.283 97.3797L184.101 97.7072Z" fill="#2F2E41"/>
<path d="M187.247 97.7072C193.791 94.0595 197.864 89.0793 199.355 82.9052C200.461 78.3212 200.143 73.1628 198.41 67.5733C197.124 63.4522 195.197 59.5596 192.699 56.0389C179.448 37.2816 178.252 25.0593 179.582 18.109C181.04 10.4882 185.778 7.32315 185.826 7.2921L185.622 6.97754C185.573 7.00932 180.71 10.2479 179.216 18.0233C178.355 22.5059 178.76 27.6172 180.42 33.2152C182.486 40.1822 186.514 47.934 192.393 56.2554C194.868 59.744 196.777 63.6009 198.051 67.6843C200.895 76.8517 201.297 89.4452 187.065 97.3797L187.247 97.7072Z" fill="#2F2E41"/>
<path d="M123.744 121.13L129.196 140.578C129.196 140.578 128.072 157.805 133.315 154.434C138.681 150.985 136.686 136.459 136.686 136.459L133.543 119.011L123.744 121.13Z" fill="#865A61"/>
<path d="M126.657 66.5716L131.159 71.074V92.5264C131.159 92.5264 133.808 96.4991 133.278 97.5584C132.749 98.6178 132.219 98.6178 132.749 99.4123C133.278 100.207 133.808 100.737 133.278 101.266C132.749 101.796 132.749 103.12 133.278 103.65C133.808 104.18 134.867 104.974 134.073 105.769C133.278 106.563 132.219 106.033 133.278 108.947C134.338 111.86 136.192 112.655 135.662 113.714C135.132 114.773 135.132 117.422 135.132 117.422L123.744 119.011L121.36 89.0834L126.657 66.5716Z" fill="#7C73B0"/>
<path d="M135.662 117.157L122.42 117.687L122.949 123.248L134.602 121.13L135.662 117.157Z" fill="#3F3D56"/>
<path d="M99.1892 34.8L97.6 50.6905L113.756 53.0742L114.947 43.9372L116.139 34.8H99.1892Z" fill="#865A61"/>
<path opacity="0.1" d="M99.1892 36L97.6 51.8907L113.756 54.2744L114.947 45.1372L116.139 36H99.1892Z" fill="black"/>
<path d="M64.1538 114.508L73.1586 133.842C73.1586 133.842 74.7476 142.847 77.1312 143.112C79.5148 143.377 81.8984 133.842 81.8984 133.842L78.7203 128.81L75.0125 114.508H64.1538Z" fill="#865A61"/>
<path d="M125.794 153.955H74.8854C75.2888 147.575 75.5426 143.641 75.5426 143.641L76.2187 142.577L79.4969 137.425L81.8377 133.748L82.6539 132.464L82.957 131.988L86.1632 131.403L119.241 125.367C119.788 127.817 120.562 130.21 121.553 132.517C121.779 133.03 122.021 133.543 122.281 134.051C123.112 135.674 124.127 137.211 125.334 138.344C125.608 138.602 125.807 139.289 125.936 140.346C126.254 142.935 126.163 147.749 125.794 153.955Z" fill="#2F2E41"/>
<path d="M108.118 44.0598C115.139 44.0598 120.831 38.3682 120.831 31.3473C120.831 24.3264 115.139 18.6348 108.118 18.6348C101.097 18.6348 95.4055 24.3264 95.4055 31.3473C95.4055 38.3682 101.097 44.0598 108.118 44.0598Z" fill="#865A61"/>
<path d="M79.7797 57.3021L77.9258 56.2427C77.9258 56.2427 69.7156 61.8044 67.0671 74.2521C64.4187 86.6998 62.5648 89.8779 62.5648 89.8779C62.5648 89.8779 59.9163 90.4076 61.7702 92.2615C63.6241 94.1154 63.6242 93.8506 62.0351 94.91C60.446 95.9693 59.3866 93.8506 60.446 95.9693C61.5054 98.0881 62.8296 97.5584 61.7702 98.8826C60.7109 100.207 58.8569 100.207 59.9163 101.266C60.9757 102.326 58.857 104.709 60.1812 105.769C61.5054 106.828 62.0351 107.093 62.0351 108.947C62.027 110.029 62.2062 111.104 62.5648 112.125H76.3367C76.3367 112.125 73.6882 107.093 74.4828 106.033C75.2773 104.974 75.5422 103.915 75.0125 103.385C74.4828 102.855 72.8937 103.915 74.4828 102.59C76.0718 101.266 76.6015 102.061 76.0719 100.472C75.5422 98.8826 74.4828 99.6772 75.5422 98.8826C76.6015 98.0881 77.3961 98.3529 76.8664 97.5584C76.3367 96.7639 75.2773 96.7639 76.3367 96.2342C77.3961 95.7045 78.1906 96.2342 77.9258 94.91C77.6609 93.5857 77.3961 94.1154 77.9258 93.5857C78.4555 93.056 84.0172 75.0466 84.0172 74.5169C84.0172 73.9873 79.7797 57.3021 79.7797 57.3021Z" fill="#7C73B0"/>
<path d="M81.8984 130.929L78.4554 137.285C78.4554 137.285 88.7844 138.609 92.4922 139.934C96.2 141.258 105.734 143.112 105.734 143.112L108.118 133.842L81.8984 130.929Z" fill="#3F3D56"/>
<path d="M112.091 133.842L115.004 142.582L126.657 140.198L125.333 131.988L112.091 133.842Z" fill="#3F3D56"/>
<path d="M116.858 48.2973C116.858 48.2973 116.063 47.7677 114.209 48.827C112.356 49.8864 106.264 50.4161 103.351 47.238C100.438 44.0598 98.3188 41.4114 97.5242 41.9411C96.7297 42.4708 96.2 48.5622 96.2 48.5622L93.5516 50.6809L77.9258 56.2427L79.25 91.9967L81.6336 100.207C81.6336 100.207 79.7797 106.563 82.1633 110.271C84.5469 113.979 80.839 115.303 80.839 115.303C80.839 115.303 80.0445 116.362 80.5742 119.011C81.1039 121.659 80.0445 131.458 80.0445 131.458C80.0445 131.458 102.556 141.523 126.127 132.783L123.479 122.719L122.155 100.207C122.155 100.207 123.479 96.499 123.214 94.91C122.949 93.3209 131.159 71.074 131.159 71.074C131.159 71.074 129.835 59.9505 122.949 57.5669C116.063 55.1833 115.004 52.7997 115.004 52.7997C115.004 52.7997 118.182 49.3567 116.858 48.2973Z" fill="#7C73B0"/>
<path d="M95.3173 32.9758C95.3173 32.9758 93.9972 30.9956 94.5049 28.8631C94.8083 27.6523 94.9281 26.4029 94.8604 25.1566C94.8604 25.1566 95.9266 21.7039 96.9929 19.7745C98.0591 17.8451 97.5514 17.0327 100.902 16.4234C104.254 15.8141 102.883 11.4475 111.717 16.1695C112.015 16.5857 112.43 16.9042 112.909 17.085C113.388 17.2657 113.91 17.3005 114.408 17.185C116.236 16.8296 116.896 19.3683 116.896 19.3683C116.896 19.3683 118.115 18.6575 118.572 19.673C119.029 20.6884 122.287 19.0635 122.287 25.918C122.287 32.7725 118.579 38.8954 118.579 38.8954C118.579 38.8954 118.851 27.3652 112.809 26.1974C106.767 25.0296 100.268 21.6278 98.6938 25.9943C97.1198 30.3609 95.3173 32.9758 95.3173 32.9758Z" fill="#2F2E41"/>
<path d="M118.712 35.7172C119.37 35.7172 119.904 35.0058 119.904 34.1282C119.904 33.2506 119.37 32.5391 118.712 32.5391C118.054 32.5391 117.52 33.2506 117.52 34.1282C117.52 35.0058 118.054 35.7172 118.712 35.7172Z" fill="#865A61"/>
<path d="M76.4422 111.2L63.2 111.73L63.7296 117.292L75.3828 115.173L76.4422 111.2Z" fill="#3F3D56"/>
</g>
<defs>
<clipPath id="clip0">
<rect width="200" height="154.619" fill="white"/>
</clipPath>
</defs>
</svg>
