<svg width="105" height="59" viewBox="0 0 105 59" fill="none" xmlns="http://www.w3.org/2000/svg">
<path d="M14.8464 22.1001H105V2.69871C105 1.75408 104.054 0.988419 102.887 0.988419H2.11271C0.94582 0.988419 0 1.75408 0 2.69871V46.3011C0 47.2457 0.94582 48.0114 2.11271 48.0114H14.8464V22.1001Z" fill="#FB4A59" fill-opacity="0.7"/>
<path d="M97.0626 2.69851V22.1003H105V2.69851C105 1.75438 104.054 0.98822 102.887 0.98822H94.9499C96.1182 0.98822 97.0626 1.75438 97.0626 2.69851Z" fill="#F82F40" fill-opacity="0.7"/>
<path d="M82.4196 5.64778V15.1517C82.4196 15.8597 81.7119 16.4343 80.8352 16.4343C79.9605 16.4343 79.2507 15.8597 79.2507 15.1517V5.64778C79.2507 4.93972 79.9605 4.36514 80.8352 4.36514C81.7119 4.36514 82.4196 4.93972 82.4196 5.64778V5.64778Z" fill="#5B5555" fill-opacity="0.7"/>
<path d="M91.7746 16.4341C90.8994 16.4341 90.1902 15.8599 90.1902 15.1515V5.64778C90.1902 4.93939 90.8996 4.36514 91.7746 4.36514C92.6497 4.36514 93.3591 4.93939 93.3591 5.64778V15.1515C93.3591 15.8599 92.6499 16.4341 91.7746 16.4341Z" fill="#5B5555" fill-opacity="0.7"/>
<path d="M90.1902 12.1162V15.1513C90.1902 15.8597 90.8996 16.434 91.7746 16.434C92.6497 16.434 93.3591 15.8597 93.3591 15.1513V12.1162H90.1902Z" fill="#433F43" fill-opacity="0.7"/>
<path d="M64.16 7.87024V13.0131C64.16 13.9572 63.2135 14.7234 62.0472 14.7234H42.9528C41.7865 14.7234 40.8401 13.9572 40.8401 13.0131V7.87024C40.8401 6.92611 41.7865 6.15994 42.9528 6.15994H62.0472C63.2133 6.16011 64.16 6.92627 64.16 7.87024Z" fill="#8DCAFC" fill-opacity="0.7"/>
<path d="M64.1599 7.87024V8.46191L56.4277 14.7232H47.5607L58.1388 6.15994H62.0472C63.2133 6.16011 64.1599 6.92627 64.1599 7.87024Z" fill="#B5DBFD" fill-opacity="0.7"/>
<path d="M10.742 12.5944C12.8029 12.5944 14.4736 11.2419 14.4736 9.57355C14.4736 7.90519 12.8029 6.55273 10.742 6.55273C8.6811 6.55273 7.01041 7.90519 7.01041 9.57355C7.01041 11.2419 8.6811 12.5944 10.742 12.5944Z" fill="#756F6F" fill-opacity="0.7"/>
<path d="M23.6205 12.5944C25.6814 12.5944 27.3521 11.2419 27.3521 9.57355C27.3521 7.90519 25.6814 6.55273 23.6205 6.55273C21.5596 6.55273 19.8889 7.90519 19.8889 9.57355C19.8889 11.2419 21.5596 12.5944 23.6205 12.5944Z" fill="#756F6F" fill-opacity="0.7"/>
<path d="M5.4479 22.4598C4.57262 22.4598 3.86346 21.8856 3.86346 21.1772V20.3466C3.86346 19.6382 4.57283 19.064 5.4479 19.064C6.32297 19.064 7.03233 19.6382 7.03233 20.3466V21.1772C7.03254 21.8856 6.32317 22.4598 5.4479 22.4598V22.4598Z" fill="#FAF7F7" fill-opacity="0.7"/>
<path d="M5.4479 27.9697C4.57262 27.9697 3.86346 27.3955 3.86346 26.6871V25.8565C3.86346 25.1481 4.57283 24.5739 5.4479 24.5739C6.32297 24.5739 7.03233 25.1481 7.03233 25.8565V26.6871C7.03254 27.3955 6.32317 27.9697 5.4479 27.9697V27.9697Z" fill="#FAF7F7" fill-opacity="0.7"/>
<path d="M5.4479 33.4798C4.57262 33.4798 3.86346 32.9056 3.86346 32.1972V31.3666C3.86346 30.6582 4.57283 30.084 5.4479 30.084C6.32297 30.084 7.03233 30.6582 7.03233 31.3666V32.1972C7.03254 32.9054 6.32317 33.4798 5.4479 33.4798V33.4798Z" fill="#FAF7F7" fill-opacity="0.7"/>
<path d="M34.6098 16.0055C34.6072 16.0055 34.6047 16.0055 34.602 16.0055L34.5803 16.0053C33.7052 16.0018 32.9993 15.4249 33.0034 14.7166C33.0075 14.0102 33.7163 13.4399 34.5877 13.4399H34.5955L34.6172 13.4401C35.4923 13.4435 36.1982 14.0205 36.1941 14.7288C36.1899 15.4352 35.4812 16.0055 34.6098 16.0055Z" fill="#72F4C3" fill-opacity="0.7"/>
<path d="M34.6098 11.7245C34.6072 11.7245 34.6047 11.7245 34.602 11.7245L34.5803 11.7243C33.7052 11.7208 32.9993 11.1439 33.0034 10.4355C33.0075 9.72911 33.7163 9.15884 34.5877 9.15884H34.5955L34.6172 9.15901C35.4923 9.1625 36.1982 9.7394 36.1941 10.4478C36.1899 11.1542 35.4812 11.7245 34.6098 11.7245Z" fill="#72F4C3" fill-opacity="0.7"/>
<path d="M34.6097 7.44357H34.5879C33.7127 7.44357 33.0035 6.86933 33.0035 6.16094C33.0035 5.45255 33.7129 4.8783 34.5879 4.8783H34.6097C35.4849 4.8783 36.1941 5.45255 36.1941 6.16094C36.1941 6.86933 35.4847 7.44357 34.6097 7.44357Z" fill="#72F4C3" fill-opacity="0.7"/>
<path d="M70.4123 16.0055C70.4097 16.0055 70.4072 16.0055 70.4045 16.0055L70.3828 16.0053C69.5077 16.0018 68.8019 15.4249 68.806 14.7166C68.8101 14.0102 69.5188 13.4399 70.3902 13.4399H70.398L70.4197 13.4401C71.2948 13.4435 72.0007 14.0205 71.9965 14.7288C71.9924 15.4352 71.2839 16.0055 70.4123 16.0055Z" fill="#72F4C3" fill-opacity="0.7"/>
<path d="M70.4123 11.7245C70.4097 11.7245 70.4072 11.7245 70.4045 11.7245L70.3828 11.7243C69.5077 11.7208 68.8019 11.1439 68.806 10.4355C68.8101 9.72911 69.5188 9.15884 70.3902 9.15884H70.398L70.4197 9.15901C71.2948 9.1625 72.0007 9.7394 71.9965 10.4478C71.9924 11.1542 71.2839 11.7245 70.4123 11.7245Z" fill="#72F4C3" fill-opacity="0.7"/>
<path d="M70.4122 7.44357H70.3905C69.5152 7.44357 68.806 6.86933 68.806 6.16094C68.806 5.45255 69.5154 4.8783 70.3905 4.8783H70.4122C71.2875 4.8783 71.9966 5.45255 71.9966 6.16094C71.9966 6.86933 71.2875 7.44357 70.4122 7.44357Z" fill="#72F4C3" fill-opacity="0.7"/>
<path d="M79.2508 8.58493V14.471C79.76 14.5685 80.2903 14.6198 80.8352 14.6198C81.3803 14.6198 81.9106 14.5685 82.4196 14.471V8.58493H79.2508Z" fill="#433F43" fill-opacity="0.7"/>
<path d="M80.8359 12.0536C82.8777 12.0536 84.533 10.7136 84.533 9.0607C84.533 7.40775 82.8777 6.06776 80.8359 6.06776C78.794 6.06776 77.1387 7.40775 77.1387 9.0607C77.1387 10.7136 78.794 12.0536 80.8359 12.0536Z" fill="#F8F3F1" fill-opacity="0.7"/>
<path d="M84.5328 9.06057C84.5328 10.7144 82.8787 12.0535 80.8357 12.0535C80.2611 12.0535 79.716 11.9474 79.2301 11.7558C80.4661 11.2736 81.3217 10.2491 81.3217 9.0604C81.3217 7.87355 80.4661 6.84724 79.2301 6.36497C79.716 6.17339 80.2611 6.06747 80.8357 6.06747C82.8787 6.06763 84.5328 7.40838 84.5328 9.06057Z" fill="#EFE2DD" fill-opacity="0.7"/>
<path d="M91.7747 14.7314C93.8165 14.7314 95.4718 13.3915 95.4718 11.7385C95.4718 10.0856 93.8165 8.74559 91.7747 8.74559C89.7328 8.74559 88.0775 10.0856 88.0775 11.7385C88.0775 13.3915 89.7328 14.7314 91.7747 14.7314Z" fill="#F8F3F1" fill-opacity="0.7"/>
<path d="M95.4716 11.7384C95.4716 13.3922 93.8174 14.7313 91.7744 14.7313C91.1998 14.7313 90.6547 14.6252 90.1689 14.4338C91.4049 13.9516 92.2605 12.9271 92.2605 11.7384C92.2605 10.5516 91.4049 9.52524 90.1689 9.04297C90.6547 8.85138 91.1998 8.7453 91.7744 8.7453C93.8174 8.7453 95.4716 10.0862 95.4716 11.7384Z" fill="#EFE2DD" fill-opacity="0.7"/>
<path d="M14.474 9.57289C14.474 11.2422 12.8028 12.5949 10.743 12.5949C10.2656 12.5949 9.80933 12.523 9.38892 12.3897C10.7791 11.9501 11.7658 10.8555 11.7658 9.57289C11.7658 8.29191 10.7791 7.19737 9.38892 6.75776C9.80933 6.62428 10.2656 6.55257 10.743 6.55257C12.8028 6.55257 14.474 7.90543 14.474 9.57289V9.57289Z" fill="#5B5555" fill-opacity="0.7"/>
<path d="M27.353 9.57289C27.353 11.2422 25.6818 12.5949 23.6199 12.5949C23.1425 12.5949 22.6862 12.5213 22.2658 12.3897C23.6581 11.9519 24.6447 10.8555 24.6447 9.57289C24.6447 8.29191 23.6581 7.19571 22.2658 6.75776C22.6862 6.62611 23.1425 6.55257 23.6199 6.55257C25.6818 6.55257 27.353 7.90543 27.353 9.57289V9.57289Z" fill="#5B5555" fill-opacity="0.7"/>
<path d="M77.3112 20.3463H92.8204V48.0113H77.3112V20.3463Z" fill="#FAF7F7" fill-opacity="0.7"/>
<path d="M49.963 20.3463H67.0107V48.0113H49.963V20.3463Z" fill="#FAF7F7" fill-opacity="0.7"/>
<path d="M24.2234 20.3463H39.592V48.0113H24.2234V20.3463Z" fill="#FAF7F7" fill-opacity="0.7"/>
<path d="M25.263 48.0115H11.9735V22.0566C11.9735 21.112 12.9193 20.3463 14.0862 20.3463H25.263V48.0115Z" fill="#FAF7F7" fill-opacity="0.7"/>
<path d="M18.9072 20.3463H25.263V48.0113H18.9072V20.3463Z" fill="#EFE2DD" fill-opacity="0.7"/>
<path d="M32.1967 20.3463H38.5524V48.0113H32.1967V20.3463Z" fill="#EFE2DD" fill-opacity="0.7"/>
<path d="M38.5524 20.3463H51.8419V48.0113H38.5524V20.3463Z" fill="#FAF7F7" fill-opacity="0.7"/>
<path d="M45.4861 20.3463H51.8419V48.0113H45.4861V20.3463Z" fill="#EFE2DD" fill-opacity="0.7"/>
<path d="M58.7756 20.3463H65.1314V48.0113H58.7756V20.3463Z" fill="#EFE2DD" fill-opacity="0.7"/>
<path d="M65.1316 20.3463H78.4211V48.0113H65.1316V20.3463Z" fill="#FAF7F7" fill-opacity="0.7"/>
<path d="M72.0651 20.3463H78.4209V48.0113H72.0651V20.3463Z" fill="#EFE2DD" fill-opacity="0.7"/>
<path d="M85.3546 20.3463H91.7104V48.0113H85.3546V20.3463Z" fill="#EFE2DD" fill-opacity="0.7"/>
<path d="M105 20.3466V46.3015C105 47.2456 104.054 48.0118 102.887 48.0118H91.7111V20.3466H105Z" fill="#FAF7F7" fill-opacity="0.7"/>
<path d="M105 20.3466V46.3015C105 47.2456 104.054 48.0118 102.887 48.0118H94.9499C96.1182 48.0118 97.0626 47.2456 97.0626 46.3015V20.3466H105Z" fill="#EFE2DD" fill-opacity="0.7"/>
<path d="M27.1421 34.1449H23.3841C22.2172 34.1449 21.2714 33.3792 21.2714 32.4346V20.3463H29.2549V32.4346C29.2549 33.3792 28.3088 34.1449 27.1421 34.1449Z" fill="#756F6F" fill-opacity="0.7"/>
<path d="M25.1213 20.3463V34.1449H27.1421C28.309 34.1449 29.2548 33.3792 29.2548 32.4346V20.3463H25.1213Z" fill="#5B5555" fill-opacity="0.7"/>
<path d="M53.7211 34.1449H49.963C48.7961 34.1449 47.8503 33.3792 47.8503 32.4346V20.3463H55.8338V32.4346C55.8338 33.3792 54.8879 34.1449 53.7211 34.1449Z" fill="#756F6F" fill-opacity="0.7"/>
<path d="M51.7002 20.3463V34.1449H53.7211C54.888 34.1449 55.8338 33.3792 55.8338 32.4346V20.3463H51.7002Z" fill="#5B5555" fill-opacity="0.7"/>
<path d="M80.3 34.1449H76.542C75.3751 34.1449 74.4293 33.3792 74.4293 32.4346V20.3463H82.4127V32.4346C82.4127 33.3792 81.4669 34.1449 80.3 34.1449Z" fill="#756F6F" fill-opacity="0.7"/>
<path d="M78.2794 20.3463V34.1449H80.3002C81.4671 34.1449 82.4129 33.3792 82.4129 32.4346V20.3463H78.2794Z" fill="#5B5555" fill-opacity="0.7"/>
<path d="M67.0105 34.1449H63.2525C62.0856 34.1449 61.1398 33.3792 61.1398 32.4346V20.3463H69.1233V32.4346C69.1233 33.3792 68.1774 34.1449 67.0105 34.1449Z" fill="#756F6F" fill-opacity="0.7"/>
<path d="M64.9899 20.3463V34.1449H67.0107C68.1776 34.1449 69.1235 33.3792 69.1235 32.4346V20.3463H64.9899Z" fill="#5B5555" fill-opacity="0.7"/>
<g clip-path="url(#clip0)">
<path d="M17.7611 31.5582C17.6433 31.4404 17.5949 31.2622 17.6269 31.0615C17.6597 30.8556 17.7742 30.6435 17.9448 30.4729L28.9541 19.4636C29.3045 19.1132 29.7904 19.0309 30.0394 19.28L31.7587 20.9992C32.0076 21.2483 31.9255 21.7341 31.5751 22.0845L20.6159 33.0436C20.2706 33.3889 19.7925 33.4746 19.54 33.2365L17.7706 31.5674C17.7674 31.5644 17.7643 31.5613 17.7611 31.5582V31.5582Z" fill="#94443F"/>
<path d="M31.7587 20.9992L30.8798 20.1203L18.6259 32.3742L19.5401 33.2365C19.7926 33.4745 20.2706 33.3889 20.6159 33.0436L31.575 22.0845C31.9254 21.7341 32.0076 21.2482 31.7587 20.9992V20.9992Z" fill="#452123"/>
<path d="M25.7788 22.6373L27.0475 21.3686L29.668 23.9891L28.3993 25.2578L25.7788 22.6373Z" fill="#B45D4A"/>
<path d="M27.0697 23.9285L28.3384 22.6598L29.6679 23.9893L28.3992 25.258L27.0697 23.9285Z" fill="#94443F"/>
<path d="M23.241 25.1746L24.5097 23.9059L27.1302 26.5264L25.8615 27.7952L23.241 25.1746Z" fill="#B45D4A"/>
<path d="M24.5319 26.4657L25.8006 25.197L27.1301 26.5265L25.8614 27.7952L24.5319 26.4657Z" fill="#94443F"/>
<path d="M20.7031 27.7119L21.9718 26.4432L24.5923 29.0637L23.3236 30.3324L20.7031 27.7119Z" fill="#B45D4A"/>
<path d="M21.994 29.0031L23.2628 27.7343L24.5923 29.0639L23.3236 30.3326L21.994 29.0031Z" fill="#94443F"/>
<path d="M29.3119 20.3009C29.2777 20.2666 29.2521 20.2242 29.2377 20.178L28.6981 18.4359L28.6863 18.4081C28.6238 18.2606 28.6883 18.0909 28.8333 18.0219C31.4535 16.7749 32.6714 14.1993 32.6834 14.1735C32.7245 14.0848 32.8063 14.0217 32.9025 14.0046C32.9748 13.9918 33.0491 14.0059 33.1116 14.0444L33.1324 14.0572L35.5758 15.3001C35.6038 15.3143 35.6293 15.3329 35.6516 15.3552C35.6739 15.3775 35.6925 15.403 35.7068 15.4311L36.9676 17.9096C37.0042 17.9816 37.01 18.0666 36.9836 18.1429C36.9572 18.2193 36.9 18.2826 36.8267 18.3165C36.7172 18.3682 34.2132 19.5717 32.9781 22.1666C32.9147 22.2998 32.7606 22.3674 32.6196 22.3237L30.8289 21.769C30.7826 21.7547 30.7402 21.7291 30.7059 21.6949L29.3119 20.3009Z" fill="#FCD1A6"/>
<path d="M32.9781 22.1667C34.2132 19.5718 36.7172 18.3683 36.8267 18.3167C36.9 18.2827 36.9572 18.2195 36.9836 18.1431C37.01 18.0668 37.0042 17.9817 36.9676 17.9097L35.7068 15.4312C35.6924 15.4031 35.6739 15.3775 35.6516 15.3553C35.6505 15.3542 35.6491 15.3533 35.6479 15.3522L30.0055 20.9946L30.7059 21.695C30.7402 21.7293 30.7827 21.7549 30.829 21.7692L32.6196 22.3239C32.7606 22.3675 32.9147 22.3 32.9781 22.1667V22.1667Z" fill="#F3A871"/>
<path d="M10.4542 43.009L7.99111 40.5459C5.33642 37.8912 5.33642 33.5717 7.99111 30.917C9.44993 29.4581 11.4759 28.6926 13.5496 28.8167C14.095 28.8493 14.5808 28.4987 14.7049 27.9829C14.9246 27.0695 15.3948 26.2354 16.0646 25.5709C17.3017 24.3434 19.0622 23.8427 20.774 24.2315C21.1477 24.3164 21.4263 24.6292 21.4673 25.0102C21.5084 25.3913 21.3031 25.7562 20.956 25.9189C20.7557 26.0128 20.5771 26.1374 20.4254 26.2892C19.3991 27.3154 19.7779 29.4282 21.2525 30.9029C22.485 32.1353 24.1525 32.6331 25.3076 32.1135C25.6422 31.9629 26.0345 32.0312 26.2985 32.2858C26.3025 32.2895 26.3064 32.2934 26.3103 32.2973C26.565 32.552 26.643 32.9351 26.5069 33.2697C26.2553 33.8884 25.8891 34.443 25.4184 34.9183C24.7563 35.5867 23.9254 36.057 23.0153 36.2783C22.499 36.4038 22.1487 36.8899 22.1825 37.4341C22.3117 39.5138 21.5466 41.5458 20.0832 43.0091C17.4284 45.6637 13.1089 45.6637 10.4542 43.009Z" fill="#FA676D"/>
<path d="M22.1825 37.4339C22.1487 36.8898 22.499 36.4037 23.0153 36.2782C23.9253 36.0569 24.7563 35.5866 25.4183 34.9182C25.8891 34.4429 26.2553 33.8883 26.5069 33.2696C26.643 32.935 26.565 32.5519 26.3103 32.2972C26.3064 32.2933 26.3025 32.2895 26.2985 32.2856C26.0345 32.0311 25.6421 31.9628 25.3076 32.1133C24.1525 32.633 22.485 32.1352 21.2525 30.9027C21.055 30.7052 20.8778 30.496 20.7204 30.2797L9.22266 41.7775L10.4542 43.009C13.1089 45.6637 17.4285 45.6637 20.0832 43.009C21.5464 41.5456 22.3116 39.5137 22.1825 37.4339V37.4339Z" fill="#F92F3E"/>
<path d="M18.0108 34.8804L16.1197 32.9892C15.7693 32.6388 15.7693 32.0707 16.1197 31.7203C16.4701 31.3699 17.0382 31.3699 17.3886 31.7203L19.2797 33.6115C19.6301 33.9619 19.6301 34.53 19.2797 34.8804C18.9293 35.2308 18.3612 35.2308 18.0108 34.8804Z" fill="#F3F5FB"/>
<path d="M19.2797 33.6115L18.3342 32.6659L17.0653 33.9348L18.0108 34.8804C18.3612 35.2308 18.9293 35.2308 19.2797 34.8804C19.6301 34.53 19.6301 33.9618 19.2797 33.6115Z" fill="#CED3DF"/>
<path d="M15.1741 37.7171L13.283 35.8259C12.9326 35.4755 12.9326 34.9074 13.283 34.557C13.6334 34.2066 14.2015 34.2066 14.5519 34.557L16.443 36.4482C16.7934 36.7986 16.7934 37.3666 16.443 37.7171C16.0927 38.0675 15.5245 38.0675 15.1741 37.7171Z" fill="#F3F5FB"/>
<path d="M16.443 36.4481L15.4975 35.5025L14.2286 36.7714L15.1741 37.717C15.5245 38.0674 16.0926 38.0674 16.443 37.717C16.7934 37.3667 16.7934 36.7985 16.443 36.4481Z" fill="#CED3DF"/>
</g>
<g clip-path="url(#clip1)">
<path d="M35.1568 52.6033C33.9763 52.3377 33.12 51.4008 32.8487 50.2778L30.4341 54.2017C29.7516 55.3108 30.0614 56.7862 31.1262 57.4972C32.1917 58.2087 33.6079 57.8847 34.2899 56.7763L36.9648 52.4293C36.3976 52.6775 35.7737 52.7416 35.1568 52.6033Z" fill="black"/>
<path d="M38.9844 49.1473L44.1638 40.7305L40.2399 43.0939L38.9844 49.1473Z" fill="black"/>
<path d="M50.9499 37.8234L51.2542 36.4597C50.0484 37.1861 46.8234 39.1286 46.432 39.3642L50.333 45.4623L48.1265 54.926C47.828 56.2062 48.5823 57.4961 49.8113 57.807C51.0385 58.1177 52.2783 57.3335 52.577 56.052L55.0204 45.5724C55.1713 44.9248 55.0554 44.2412 54.7007 43.6866L50.9499 37.8234Z" fill="black"/>
<path d="M50.8481 19.2405C53.0324 19.2405 54.8031 17.3961 54.8031 15.1208C54.8031 12.8455 53.0324 11.001 50.8481 11.001C48.6639 11.001 46.8932 12.8455 46.8932 15.1208C46.8932 17.3961 48.6639 19.2405 50.8481 19.2405Z" fill="black"/>
<path d="M66.389 24.8245C65.8689 23.8696 64.7043 23.5345 63.7875 24.0764L63.0643 24.5038L65.1717 27.8293L65.6709 27.5343C66.5876 26.9925 66.9091 25.7793 66.389 24.8245Z" fill="black"/>
<path d="M59.6654 22.9733C60.0596 22.2425 60.0587 21.3141 59.5848 20.5663C58.9097 19.5009 57.5331 19.207 56.5101 19.9105C55.4877 20.6135 55.205 22.0474 55.8805 23.1133C56.3463 23.8485 57.1586 24.2284 57.9736 24.1364L59.5317 26.5952L48.9691 32.9574C49.1887 33.754 49.1651 34.6412 48.8531 35.4667L60.6505 28.3606L62.3904 31.1061C62.6985 31.5924 63.3274 31.727 63.7947 31.4057C64.2619 31.0844 64.3906 30.4296 64.0822 29.9428L59.6654 22.9733Z" fill="black"/>
<path d="M42.6863 36.7418L37.4863 39.8741L29.59 38.097C29.0425 37.9735 28.5035 38.3361 28.3853 38.9061C28.2671 39.4759 28.6148 40.0379 29.162 40.161L36.2868 41.7645C36.3161 41.8228 36.2914 41.7818 36.3466 41.8668L34.8081 49.2843C34.6898 49.8551 35.0385 50.4167 35.5848 50.5394C36.1345 50.6627 36.6718 50.2981 36.7895 49.7304L38.4481 41.7341L44.8316 37.8891C43.9937 37.7614 43.2563 37.3567 42.6863 36.7418Z" fill="black"/>
<path d="M46.7985 32.7136C46.2733 32.0993 42.5866 27.7871 42.1253 27.2477C42.5322 25.4883 42.4902 25.6702 42.9652 23.6159C43.0457 23.2631 43.3762 22.9714 43.8603 23.0885L43.2729 25.7206L47.9166 31.1521L53.1405 28.0056L53.7058 25.4719L54.3352 27.2859L56.4028 26.0405C55.5067 25.7341 54.7237 25.121 54.1887 24.2767C53.619 23.3776 53.4068 22.3392 53.5154 21.3442L49.6692 20.413C49.6689 20.4129 49.6685 20.4129 49.6682 20.4128L44.6682 19.2024C42.255 18.618 39.8252 20.1854 39.2535 22.6906C39.2519 22.6976 38.1853 27.3096 38.181 27.3276C38.0325 27.9699 38.2049 28.6403 38.6112 29.1152L43.9483 35.3578C43.9488 35.3584 43.9494 35.3589 43.9499 35.3596C44.6504 36.1767 45.8552 36.2508 46.6426 35.5202C47.4297 34.79 47.4994 33.5334 46.7985 32.7136Z" fill="black"/>
<g clip-path="url(#clip2)">
<path d="M57.5565 25.5152C56.8382 25.3758 56.1751 24.9428 55.7404 24.2536C54.8714 22.8759 55.2385 20.9873 56.5603 20.0354C57.8822 19.0835 59.6582 19.4287 60.5272 20.8065C60.9626 21.4968 61.0877 22.3154 60.9379 23.0801L57.5565 25.5152Z" fill="#685E68"/>
<path d="M60.5294 20.8049C60.9648 21.4951 61.0898 22.3138 60.94 23.0786L60.4141 23.4573C60.5639 22.6925 60.4389 21.8738 60.0035 21.1836C59.193 19.8986 57.5931 19.5117 56.3089 20.2382C56.3889 20.1659 56.4734 20.0978 56.5623 20.0337C57.8841 19.0819 59.6605 19.4272 60.5294 20.8049Z" fill="#554E56"/>
<path d="M60.7288 21.0601L55.8848 24.5485C55.7823 24.6223 55.6445 24.5955 55.5771 24.4887L55.1891 23.8734C55.1216 23.7665 55.1501 23.6201 55.2526 23.5463L60.0967 20.0579C60.1992 19.9841 60.337 20.0109 60.4044 20.1177L60.7924 20.733C60.8598 20.8398 60.8314 20.9863 60.7288 21.0601Z" fill="#FB4A59"/>
<path d="M60.4084 20.1243L60.7883 20.7266C60.8579 20.8369 60.8286 20.9885 60.7227 21.0647L60.2893 21.3768C60.3953 21.3005 60.4246 21.1488 60.355 21.0385L59.9751 20.4362C59.9055 20.3259 59.7632 20.2982 59.6571 20.3746L60.0906 20.0625C60.1964 19.9863 60.3388 20.0139 60.4084 20.1243V20.1243Z" fill="#FA676D"/>
<path d="M64.0973 31.9846L63.2514 32.5938L64.7478 34.6491C64.8754 34.8245 65.112 34.8619 65.2888 34.7346L65.6622 34.4657L66.0356 34.1968C66.2124 34.0695 66.2687 33.8212 66.1645 33.6289L64.9432 31.3755L64.0973 31.9846Z" fill="#E2DEE2"/>
<path d="M64.943 31.3755L66.1645 33.629C66.2687 33.8213 66.2123 34.0695 66.0355 34.1969L65.515 34.5716C65.6917 34.4444 65.7482 34.1961 65.6439 34.0039L64.4226 31.7504L64.943 31.3755Z" fill="#CBC4CC"/>
<path d="M59.2483 24.2969L57.5676 25.5072L58.6492 26.6055L58.6684 26.6493L58.7534 26.7359L63.2514 32.5938L64.0973 31.9846L64.9432 31.3755L61.5498 24.7221L61.5065 24.6055L61.4858 24.5959L60.9245 23.0898L59.2483 24.2969Z" fill="#685E68"/>
<path d="M60.9355 23.082L61.5005 24.6005L61.5065 24.6055L61.5498 24.7221L64.943 31.3755L64.4226 31.7503L61.0291 25.0971L60.4195 23.4536L60.9355 23.082Z" fill="#554E56"/>
<path d="M59.2483 24.2969L57.5565 25.5152L58.6684 26.6492L60.0874 25.6274L61.5065 24.6055L60.94 23.0786L59.2483 24.2969Z" fill="#E2DEE2"/>
<path d="M60.9402 23.0786L61.5065 24.6055L60.9859 24.9804L60.4143 23.4574L60.9402 23.0786Z" fill="#CBC4CC"/>
<path d="M61.8717 28.424L61.8437 28.4442C61.6148 28.609 61.3072 28.5492 61.1567 28.3106L60.6068 27.4388C60.4563 27.2002 60.5199 26.8731 60.7488 26.7082L60.7768 26.6881C61.0058 26.5232 61.3134 26.583 61.4639 26.8216L62.0137 27.6934C62.1643 27.932 62.1007 28.2591 61.8717 28.424Z" fill="#E2DEE2"/>
<path d="M61.4777 26.8246L62.0149 27.6761C62.1721 27.9254 62.1057 28.2674 61.8665 28.4396C61.7876 28.4964 61.6998 28.5277 61.6119 28.5349C61.6921 28.3638 61.6871 28.1552 61.5817 27.9881L61.0445 27.1365C60.9659 27.0119 60.8462 26.9339 60.7163 26.9086C60.6722 26.9001 60.6268 26.8975 60.5815 26.9013C60.6208 26.817 60.6809 26.7418 60.7597 26.685C60.8793 26.5989 61.0195 26.5714 61.1495 26.5967C61.2794 26.6219 61.3991 26.6999 61.4777 26.8246V26.8246Z" fill="#CBC4CC"/>
<path d="M61.079 28.1892L60.6839 27.5629L61.5491 26.9399L61.9441 27.5662L61.079 28.1892Z" fill="#433F43"/>
<path d="M61.511 27.8781L61.116 27.2518L61.5491 26.9399L61.9442 27.5662L61.511 27.8781Z" fill="#333133"/>
</g>
</g>
<path d="M10.6754 42.935V55.3405C10.6754 56.6227 11.7148 57.6622 12.9971 57.6622C14.2793 57.6622 15.3188 56.6227 15.3188 55.3405V44.2671C15.2555 44.2688 15.1923 44.2708 15.1286 44.2708C13.6012 44.2707 12.0602 43.7951 10.6754 42.935Z" fill="black"/>
<path d="M24.5047 43.458L21.5963 38.1674C21.4339 40.1229 20.5638 41.8118 19.1405 42.9269C19.0878 42.9682 19.0339 43.0076 18.98 43.0471L20.1763 45.2232L20.6574 55.4498C20.7158 56.6934 21.7425 57.6624 22.9747 57.6624C23.0115 57.6624 23.0484 57.6615 23.0856 57.6598C24.3664 57.5995 25.3558 56.5123 25.2956 55.2315L24.7892 44.4674C24.7725 44.1136 24.6752 43.7683 24.5047 43.458Z" fill="black"/>
<path d="M15.8194 18.3572C18.0339 18.3572 19.8291 16.562 19.8291 14.3474C19.8291 12.1329 18.0339 10.3377 15.8194 10.3377C13.6049 10.3377 11.8097 12.1329 11.8097 14.3474C11.8097 16.562 13.6049 18.3572 15.8194 18.3572Z" fill="black"/>
<path d="M29.6645 26L26 28.8709C26.0168 28.9327 26.0321 28.9945 26.0472 29.0563L31.6312 26.2173C30.9464 26.3844 30.2513 26.2913 29.6645 26Z" fill="black"/>
<path d="M16.1613 34.6516C16.7776 33.7788 16.5698 32.5715 15.6968 31.9552C15.511 31.824 12.3654 29.6028 9.87761 27.846C9.90181 24.8375 9.89174 26.081 9.90685 24.2102C9.90795 23.9985 10.0801 23.8277 10.2917 23.8283C10.5033 23.8288 10.6744 24.0005 10.6744 24.2121V26.1348L13.042 27.8067C13.042 27.8067 13.6904 27.8899 13.7437 27.8899C14.1302 27.8899 14.4775 27.6596 14.6284 27.3031C14.9773 26.479 15.5027 25.7882 16.1899 25.2499C17.1045 24.5332 18.2322 24.1545 19.4507 24.1546C19.9416 24.1546 20.4351 24.2162 20.9223 24.3346V24.3109C20.9223 24.1074 21.0721 23.9351 21.2736 23.9068C21.475 23.8785 21.6665 24.0029 21.7226 24.1984C21.7556 24.3134 21.7748 24.4473 21.7743 24.6032C22.0789 24.7213 22.3787 24.8613 22.6714 25.0237L25.3184 22.9501C24.5923 20.9104 22.9757 19.6352 21.0229 19.6352H10.6157C8.10382 19.6352 6.04989 21.6787 6.0373 24.1848L6.02623 25.5676L6.00006 28.8269C5.99502 29.4574 6.30319 30.0588 6.81878 30.4228C7.55143 30.9402 12.7488 34.6102 13.4648 35.1158C14.3408 35.7346 15.5487 35.5193 16.1613 34.6516Z" fill="black"/>
<g clip-path="url(#clip3)">
<g clip-path="url(#clip4)">
<path d="M73.363 33.1207C73.5095 33.7408 73.8088 34.3342 74.2764 34.8344C74.6851 35.2716 74.9674 35.574 75.01 35.6207C75.5203 36.1803 76.3586 36.7087 77.3368 37.0944C77.5553 37.1806 77.7062 37.4024 77.7198 37.6567C77.8768 40.5863 79.0095 43.5994 80.2706 44.9826C82.4542 47.3776 86.644 46.6652 89.629 43.3914C92.6138 40.1177 93.2634 35.5223 91.0798 33.1274C89.9184 31.8536 87.4966 30.6993 85.0346 30.3901C84.802 30.3609 84.608 30.1803 84.5411 29.9344C84.1849 28.6257 83.6268 27.4791 83.0299 26.8246L83.0259 26.8202C82.8449 26.6217 82.5376 26.6974 82.4511 26.9616C81.7159 29.2083 79.631 31.2542 76.8407 32.1674C75.7761 32.5158 74.715 32.6643 73.7131 32.6352C73.4778 32.6284 73.304 32.8706 73.363 33.1207V33.1207Z" fill="#F92F3E"/>
<path d="M82.4511 26.9616C82.2061 27.7103 81.8105 28.4363 81.2896 29.1059C81.824 29.7798 82.3142 30.8333 82.6377 32.0219C82.7047 32.2678 82.8987 32.4484 83.1312 32.4776C85.5932 32.7868 88.015 33.9411 89.1765 35.2149C91.1225 37.3493 90.8182 41.2313 88.6161 44.3681C88.9652 44.0732 89.3042 43.7475 89.6289 43.3914C92.6138 40.1177 93.2634 35.5223 91.0798 33.1274C89.9183 31.8536 87.4965 30.6993 85.0345 30.3902C84.802 30.3609 84.6079 30.1804 84.541 29.9344C84.1848 28.6258 83.6267 27.4792 83.0299 26.8247L83.0258 26.8202C82.8449 26.6217 82.5376 26.6975 82.4511 26.9616V26.9616Z" fill="#FA676D"/>
<path d="M70.5471 19.812L84.7645 35.4053C84.9773 35.6386 84.9773 36.0171 84.7645 36.2505L83.1181 38.0562C82.9053 38.2895 82.5603 38.2895 82.3475 38.0562L68.1301 22.4629L70.5471 19.812Z" fill="#407093"/>
<path d="M69.4533 21.0115L83.6707 36.6049C83.8835 36.8383 83.8835 37.2167 83.6707 37.4501L84.7645 36.2505C84.9773 36.0171 84.9773 35.6386 84.7645 35.4053L70.5471 19.812L69.4533 21.0115Z" fill="#2B4D66"/>
<path d="M87.7111 37.8568C87.7111 37.9744 87.6702 38.092 87.5884 38.1816L84.8788 41.1534C84.7152 41.3328 84.4501 41.3328 84.2865 41.1534C84.1231 40.974 84.1231 40.6832 84.2865 40.5039L86.9961 37.5321C87.1597 37.3527 87.4248 37.3527 87.5884 37.5321C87.6702 37.6217 87.7111 37.7393 87.7111 37.8568Z" fill="#C1D5E4"/>
<path d="M89.0659 39.3427C89.0659 39.4603 89.0249 39.5779 88.9432 39.6675L86.2337 42.6392C86.0701 42.8186 85.805 42.8186 85.6414 42.6392C85.4779 42.4598 85.4779 42.169 85.6414 41.9897L88.351 39.018C88.5146 38.8386 88.7797 38.8386 88.9432 39.018C89.025 39.1076 89.0659 39.2252 89.0659 39.3427V39.3427Z" fill="#C1D5E4"/>
<path d="M87.2923 34.0594C87.2923 33.4943 86.8746 33.0363 86.3594 33.0363C85.8442 33.0363 85.4266 33.4943 85.4266 34.0594C85.4266 34.6244 85.8442 35.0825 86.3594 35.0825C86.8746 35.0825 87.2923 34.6244 87.2923 34.0594Z" fill="#DAE7EF"/>
<path d="M90.5128 36.1056C90.5128 35.5406 90.0951 35.0825 89.5799 35.0825C89.0647 35.0825 88.6471 35.5406 88.6471 36.1056C88.6471 36.6707 89.0647 37.1288 89.5799 37.1288C90.0951 37.1288 90.5128 36.6707 90.5128 36.1056Z" fill="#DAE7EF"/>
<path d="M85.4594 33.7939C85.5368 33.7711 85.6177 33.7578 85.7016 33.7578C86.2168 33.7578 86.6344 34.2159 86.6344 34.7809C86.6344 34.8729 86.6223 34.9617 86.6015 35.0465C86.9992 34.9294 87.2923 34.5324 87.2923 34.0594C87.2923 33.4943 86.8747 33.0363 86.3594 33.0363C85.9281 33.0363 85.5662 33.3577 85.4594 33.7939V33.7939Z" fill="#C1D5E4"/>
<path d="M88.6799 35.8401C88.7573 35.8173 88.8381 35.8041 88.922 35.8041C89.4373 35.8041 89.8549 36.2621 89.8549 36.8272C89.8549 36.9192 89.8428 37.0079 89.822 37.0927C90.2197 36.9757 90.5128 36.5787 90.5128 36.1057C90.5128 35.5406 90.0951 35.0825 89.5799 35.0825C89.1486 35.0825 88.7867 35.4041 88.6799 35.8401V35.8401Z" fill="#C1D5E4"/>
<path d="M82.7567 38.0458C82.7567 38.1633 82.7158 38.2809 82.6341 38.3705C82.4705 38.55 82.2054 38.55 82.0418 38.3705L67.8339 22.7877C67.6705 22.6083 67.6705 22.3175 67.8339 22.1381C67.9975 21.9588 68.2626 21.9588 68.4262 22.1381L82.6341 37.721C82.7159 37.8106 82.7567 37.9282 82.7567 38.0458V38.0458Z" fill="#C1D5E4"/>
<path d="M85.1738 35.3948C85.1738 35.5124 85.1329 35.6299 85.0511 35.7196C84.8875 35.899 84.6224 35.899 84.4589 35.7196L70.2509 20.1368C70.0875 19.9573 70.0875 19.6666 70.2509 19.4872C70.4145 19.3078 70.6796 19.3078 70.8432 19.4872L85.0511 35.07C85.1329 35.1597 85.1738 35.2772 85.1738 35.3948V35.3948Z" fill="#C1D5E4"/>
<path d="M69.6007 16.2593C69.6007 16.3768 69.5598 16.4944 69.478 16.5841L68.0039 18.2009C67.8403 18.3803 67.5752 18.3803 67.4116 18.2009C67.2482 18.0215 67.2482 17.7307 67.4116 17.5513L68.8858 15.9345C69.0493 15.7552 69.3145 15.7552 69.478 15.9345C69.5598 16.0242 69.6007 16.1418 69.6007 16.2593V16.2593Z" fill="#407093"/>
<path d="M70.9554 17.7452C70.9554 17.8627 70.9145 17.9803 70.8328 18.0699L69.3587 19.6867C69.1952 19.8661 68.93 19.8661 68.7665 19.6868C68.6029 19.5073 68.6029 19.2165 68.7664 19.0372L70.2405 17.4205C70.404 17.241 70.6692 17.241 70.8327 17.4204C70.9145 17.5101 70.9554 17.6277 70.9554 17.7452V17.7452Z" fill="#407093"/>
<path d="M72.5268 19.0435C72.5268 19.161 72.4859 19.2786 72.4041 19.3683L70.9301 20.9851C70.7665 21.1645 70.5014 21.1645 70.3379 20.9851C70.1743 20.8057 70.1743 20.5149 70.3378 20.3356L71.8119 18.7188C71.9754 18.5394 72.2406 18.5394 72.4041 18.7188C72.4859 18.8085 72.5268 18.926 72.5268 19.0435V19.0435Z" fill="#407093"/>
<path d="M66.8396 19.2875C66.8396 19.405 66.7987 19.5227 66.717 19.6124L65.2428 21.2291C65.0793 21.4085 64.8141 21.4085 64.6506 21.2291C64.4871 21.0497 64.4871 20.759 64.6506 20.5795L66.1247 18.9628C66.2883 18.7834 66.5534 18.7834 66.717 18.9628C66.7988 19.0524 66.8396 19.17 66.8396 19.2875Z" fill="#407093"/>
<path d="M68.1944 20.7734C68.1944 20.891 68.1535 21.0086 68.0717 21.0983L66.5976 22.715C66.434 22.8943 66.1689 22.8943 66.0053 22.7149C65.8418 22.5356 65.8419 22.2448 66.0054 22.0654L67.4795 20.4487C67.6431 20.2693 67.9082 20.2693 68.0717 20.4487C68.1535 20.5383 68.1944 20.6559 68.1944 20.7734Z" fill="#407093"/>
<path d="M69.3782 22.497C69.3782 22.6145 69.3373 22.7321 69.2555 22.8218L67.7813 24.4385C67.6178 24.6179 67.3526 24.6179 67.1891 24.4384C67.0256 24.2591 67.0256 23.9683 67.1892 23.7889L68.6633 22.1722C68.8268 21.9928 69.092 21.9928 69.2555 22.1723C69.3373 22.2618 69.3782 22.3794 69.3782 22.497Z" fill="#407093"/>
<path d="M71.1919 19.381C70.3587 19.1908 69.5943 18.7378 68.9925 18.0778C68.5703 17.6148 68.2392 17.0617 68.0194 16.4528C67.8705 15.9631 67.3037 15.8163 66.9709 16.1814L64.9603 18.3866C64.6615 18.7142 64.6615 19.2454 64.9603 19.573C65.0262 19.6453 65.1031 19.7051 65.1887 19.7455C65.696 19.9854 66.1577 20.3288 66.5489 20.7578C67.1507 21.4179 67.5637 22.2563 67.7371 23.1701C67.7994 23.4982 68.0786 23.7208 68.3824 23.6845L69.6667 23.5312C70.1409 23.4747 70.5832 23.2422 70.9204 22.8723C71.2577 22.5024 71.4697 22.0173 71.5212 21.4973L71.661 20.0886C71.6941 19.7556 71.4911 19.4493 71.1919 19.381V19.381Z" fill="#407093"/>
<path d="M66.9708 16.1814L65.6955 17.5802C66.0284 17.215 66.5952 17.3618 66.744 17.8516C66.9638 18.4604 67.295 19.0135 67.7172 19.4765C68.319 20.1366 69.0834 20.5895 69.9166 20.7798C70.2157 20.8481 70.4187 21.1543 70.3856 21.4875L70.2459 22.8961C70.2283 23.0736 70.1915 23.2468 70.138 23.413C70.4304 23.2996 70.6983 23.116 70.9204 22.8724C71.2577 22.5025 71.4697 22.0174 71.5212 21.4974L71.661 20.0887C71.6941 19.7556 71.4911 19.4493 71.1919 19.381C70.3587 19.1908 69.5942 18.7378 68.9924 18.0778C68.5702 17.6147 68.2391 17.0617 68.0193 16.4529C67.8705 15.9631 67.3037 15.8164 66.9708 16.1814Z" fill="#2B4D66"/>
<path d="M85.0015 37.8568C85.0015 37.9744 84.9606 38.092 84.8788 38.1816C84.7153 38.361 84.4501 38.361 84.2866 38.1816L70.0181 22.5323C69.8546 22.3529 69.8546 22.0622 70.0181 21.8828C70.1816 21.7034 70.4467 21.7034 70.6103 21.8828L84.8789 37.5321C84.9606 37.6217 85.0015 37.7393 85.0015 37.8568V37.8568Z" fill="#C1D5E4"/>
</g>
<path d="M92.1631 56.3429L90.234 44.8891C88.9261 45.8843 87.4427 46.5343 85.9326 46.785L87.6698 57.0997C87.8788 58.3409 89.0544 59.177 90.2949 58.968C91.5357 58.7591 92.3721 57.5838 92.1631 56.3429Z" fill="black"/>
<path d="M78.5756 46.076L79.5714 44.8568C79.4826 44.7606 79.396 44.662 79.3127 44.5597C78.2185 43.2137 77.7505 41.4578 77.9826 39.5984L74.4553 43.9176C74.0767 44.3813 73.8956 44.9755 73.9517 45.5715L75.0183 56.9343C75.1358 58.1859 76.2452 59.1072 77.4995 58.9897C78.7523 58.8721 79.6725 57.7612 79.5549 56.5084L78.5756 46.076Z" fill="black"/>
<path d="M88.7095 21.869C90.8824 21.869 92.644 20.1075 92.644 17.9345C92.644 15.7615 90.8824 14 88.7095 14C86.5365 14 84.775 15.7615 84.775 17.9345C84.775 20.1075 86.5365 21.869 88.7095 21.869Z" fill="black"/>
<path d="M92.5382 24.127L86.0798 22.6583C86.0797 22.6583 86.0796 22.6583 86.0795 22.6582L82.5798 21.8623C80.7117 21.4374 78.8869 22.3058 77.7481 24.0996L79.8305 26.6608C80.1447 26.5697 81.0728 26.387 81.653 26.3827C83.3308 26.37 84.9113 26.9689 85.9825 28.2866C86.5229 28.9512 86.8752 29.7266 87.0299 30.5912C87.107 31.0228 87.432 31.3232 87.8623 31.4163C88.1678 31.4824 88.437 31.4189 88.437 31.4189L91.0677 30.3337L91.4827 28.509C91.5225 28.3341 91.6769 28.2021 91.8562 28.206C92.103 28.2113 92.2704 28.4367 92.2198 28.6646C91.8472 30.3666 92.033 29.5179 91.4579 32.1445L84.9952 34.8103C84.0259 35.2101 83.5643 36.3201 83.9641 37.2894C83.965 37.2918 83.9663 37.2939 83.9672 37.2963C84.3661 38.2527 85.4698 38.7222 86.4433 38.3207C87.4819 37.8922 92.8291 35.6866 93.824 35.2762C94.4068 35.0359 94.8244 34.5212 94.9547 33.9271C95.1732 32.9299 95.712 30.469 95.928 29.4824C96.4626 27.0761 94.9419 24.6737 92.5382 24.127Z" fill="black"/>
</g>
<defs>
<clipPath id="clip0">
<rect x="6" y="14" width="31" height="31" fill="white"/>
</clipPath>
<clipPath id="clip1">
<rect x="25" y="11" width="45" height="46.875" fill="white"/>
</clipPath>
<clipPath id="clip2">
<rect x="53.2787" y="32.5272" width="13.7804" height="12.9594" transform="rotate(-79 53.2787 32.5272)" fill="white"/>
</clipPath>
<clipPath id="clip3">
<rect x="60" y="14" width="45" height="45" fill="white"/>
</clipPath>
<clipPath id="clip4">
<rect x="64.5" y="46.4" width="30.6" height="27.9" transform="rotate(-90 64.5 46.4)" fill="white"/>
</clipPath>
</defs>
</svg>
