<svg width="147" height="65" viewBox="0 0 147 65" fill="none" xmlns="http://www.w3.org/2000/svg">
<g clip-path="url(#clip0)">
<path d="M68.9363 11.0394C68.9352 8.21652 70.0185 5.38635 72.1723 3.23255C76.4777 -1.0729 83.4583 -1.0729 87.7638 3.23255C92.0692 7.538 92.0692 14.5186 87.7638 18.824C85.6064 20.9813 82.7775 22.0576 79.9501 22.0532L68.9363 11.0394Z" fill="#685E68"/>
<path d="M87.7711 18.8311C85.6141 20.9881 82.7848 22.0644 79.957 22.0601L78.2441 20.3471C81.0719 20.3514 83.9012 19.2751 86.0581 17.1182C90.0737 13.1026 90.3441 6.75823 86.8675 2.42944C87.1801 2.67921 87.4813 2.9491 87.7711 3.2388C92.0763 7.54405 92.0763 14.5259 87.7711 18.8311Z" fill="#554E56"/>
<path d="M87 19.7744L71.222 3.99641C70.8881 3.66247 70.8881 3.12105 71.222 2.78721L73.1447 0.864527C73.4786 0.530589 74.0201 0.530589 74.3539 0.864527L90.1319 16.6425C90.4658 16.9764 90.4658 17.5178 90.1319 17.8517L88.2092 19.7744C87.8753 20.1083 87.3339 20.1083 87 19.7744Z" fill="#FB4A59"/>
<path d="M90.1114 17.8717L88.2292 19.7539C87.8844 20.0986 87.3241 20.0993 86.9795 19.7546L85.5677 18.3427C85.9131 18.6882 86.4734 18.6875 86.8182 18.3427L88.7003 16.4606C89.0451 16.1158 89.0451 15.5563 88.6996 15.2109L90.1114 16.6227C90.4561 16.9674 90.4561 17.527 90.1114 17.8717V17.8717Z" fill="#FA676D"/>
<path d="M50.4224 40.574L47.6672 37.8188L41.3828 44.9991C40.8465 45.6118 40.8772 46.5355 41.453 47.1112L42.6691 48.3274L43.8853 49.5435C44.4611 50.1193 45.3847 50.15 45.9974 49.6137L53.1777 43.3293L50.4224 40.574Z" fill="#E2DEE2"/>
<path d="M53.1774 43.3288L45.9972 49.614C45.3841 50.1501 44.4611 50.1193 43.8851 49.5433L42.19 47.8481C42.7653 48.4235 43.6888 48.4548 44.3012 47.9181L51.4821 41.6336L53.1774 43.3288Z" fill="#CBC4CC"/>
<path d="M74.4467 16.5497L68.9725 11.0757L65.8093 15.9803L65.6669 16.0853L65.417 16.471L47.6672 37.8188L50.4224 40.574L53.1776 43.3291L74.5255 25.5794L74.9111 25.3295L74.9308 25.2441L79.9065 22.0096L74.4467 16.5497Z" fill="#685E68"/>
<path d="M79.9418 22.0455L74.9246 25.3031L74.9111 25.3295L74.5255 25.5794L53.1774 43.3288L51.4823 41.6336L72.8296 23.8836L78.2612 20.3648L79.9418 22.0455Z" fill="#554E56"/>
<path d="M74.4467 16.5497L68.9363 11.0394L65.6668 16.0853L70.2889 20.7074L74.911 25.3295L79.957 22.0601L74.4467 16.5497Z" fill="#E2DEE2"/>
<path d="M79.957 22.0607L74.9109 25.3296L73.2151 23.6338L78.244 20.3477L79.957 22.0607Z" fill="#CBC4CC"/>
<path d="M61.5635 29.524L61.4723 29.4328C60.7266 28.6871 60.7266 27.4781 61.4723 26.7325L64.1968 24.0081C64.9424 23.2624 66.1515 23.2624 66.8971 24.0081L66.9883 24.0992C67.734 24.8449 67.734 26.054 66.9883 26.7996L64.2638 29.524C63.5182 30.2697 62.3092 30.2697 61.5635 29.524Z" fill="#E2DEE2"/>
<path d="M66.9874 26.8542L64.3262 29.5154C63.5471 30.2945 62.2833 30.2945 61.5042 29.5154C61.2474 29.2586 61.075 28.9491 60.9885 28.6216C61.6536 28.799 62.393 28.6266 62.9153 28.1043L65.5764 25.4432C65.9659 25.0537 66.1607 24.5429 66.1607 24.0322C66.1607 23.859 66.1384 23.6851 66.0936 23.5164C66.4211 23.603 66.7306 23.7754 66.9875 24.0322C67.377 24.4217 67.5718 24.9324 67.5718 25.4432C67.5718 25.954 67.377 26.4646 66.9874 26.8542V26.8542Z" fill="#CBC4CC"/>
<path d="M61.851 26.3487L63.8081 24.3915L66.626 27.2095L64.6689 29.1666L61.851 26.3487Z" fill="#433F43"/>
<path d="M63.258 27.7559L65.2152 25.7988L66.6259 27.2095L64.6688 29.1667L63.258 27.7559Z" fill="#333133"/>
<path d="M57.1377 3.09605C56.6801 4.55629 55.4918 7.21012 52.7211 8.24611C52.4949 8.33067 52.4949 8.65621 52.7211 8.74077C55.4918 9.77675 56.6801 12.4306 57.1377 13.8908C57.2151 14.1379 57.5662 14.1379 57.6435 13.8908C58.101 12.4306 59.2893 9.77675 62.0601 8.74077C62.2863 8.65621 62.2863 8.33067 62.0601 8.24611C59.2893 7.21012 58.101 4.55629 57.6435 3.09605C57.5662 2.84901 57.2151 2.84901 57.1377 3.09605Z" fill="#FDB441"/>
<path d="M62.06 8.74086C59.2892 9.77646 58.1012 12.4302 57.644 13.8907C57.5662 14.1381 57.215 14.1381 57.1373 13.8907C56.9334 13.2396 56.5851 12.3544 56.0168 11.4783C56.5286 10.3881 57.0141 9.31519 58.5514 8.74086C58.7776 8.65611 58.7776 8.33105 58.5514 8.2463C57.0142 7.67099 56.5287 6.598 56.0168 5.50782C56.5851 4.63265 56.9333 3.74645 57.1373 3.09644C57.215 2.84911 57.5662 2.84911 57.644 3.09644C58.1012 4.556 59.2892 7.20963 62.06 8.2463C62.2861 8.33105 62.2861 8.65611 62.06 8.74086Z" fill="#FEA613"/>
<path d="M73.013 34.8997C72.6786 35.9669 71.8102 37.9065 69.7852 38.6636C69.6199 38.7254 69.6199 38.9634 69.7852 39.0252C71.8102 39.7823 72.6787 41.7219 73.013 42.7891C73.0695 42.9696 73.3261 42.9696 73.3827 42.7891C73.7171 41.7219 74.5855 39.7823 76.6105 39.0252C76.7758 38.9634 76.7758 38.7254 76.6105 38.6636C74.5855 37.9065 73.717 35.9669 73.3827 34.8997C73.3261 34.7191 73.0696 34.7191 73.013 34.8997Z" fill="#FDB441"/>
<path d="M76.6106 39.0252C74.5855 39.7821 73.7173 41.7215 73.3831 42.7889C73.3262 42.9697 73.0695 42.9697 73.0127 42.7889C72.8637 42.3131 72.6092 41.6661 72.1939 41.0258C72.5678 40.229 72.5161 39.4449 73.6397 39.0251C73.8049 38.9631 73.8049 38.7256 73.6397 38.6636C72.5161 38.2432 72.5679 37.4589 72.1939 36.6622C72.6093 36.0227 72.8637 35.3749 73.0127 34.8999C73.0695 34.7191 73.3262 34.7191 73.3831 34.8999C73.7172 35.9666 74.5855 37.906 76.6106 38.6636C76.7758 38.7257 76.7758 38.9633 76.6106 39.0252V39.0252Z" fill="#FEA613"/>
<path d="M84.0063 25.4778C83.585 26.8225 82.4906 29.2665 79.939 30.2206C79.7306 30.2985 79.7306 30.5982 79.939 30.6762C82.4906 31.6302 83.585 34.0742 84.0063 35.419C84.0776 35.6465 84.4009 35.6465 84.4721 35.419C84.8935 34.0742 85.9878 31.6302 88.5394 30.6762C88.7478 30.5982 88.7478 30.2985 88.5394 30.2206C85.9878 29.2665 84.8936 26.8225 84.4721 25.4778C84.4009 25.2503 84.0776 25.2503 84.0063 25.4778V25.4778Z" fill="#FDB441"/>
<path d="M88.5393 30.6762C85.9878 31.6299 84.8937 34.0737 84.4725 35.4188C84.401 35.6465 84.0775 35.6465 84.0059 35.4188C83.8181 34.8192 83.4975 34.004 82.9741 33.1971C83.4454 32.1931 83.3802 31.2051 84.7959 30.6762C85.0041 30.598 85.0041 30.2988 84.7959 30.2207C83.3802 29.6909 83.4454 28.7027 82.9741 27.6987C83.4975 26.8928 83.8181 26.0767 84.0059 25.4781C84.0775 25.2504 84.401 25.2504 84.4725 25.4781C84.8937 26.8222 85.9878 29.266 88.5393 30.2207C88.7476 30.2988 88.7476 30.5981 88.5393 30.6762V30.6762Z" fill="#FEA613"/>
</g>
<path d="M112.884 35.3018C113.146 36.3151 113.683 37.2847 114.521 38.1019C115.253 38.8163 115.759 39.3104 115.835 39.3867C116.75 40.3012 118.252 41.1646 120.005 41.7948C120.397 41.9356 120.667 42.298 120.691 42.7136C120.973 47.5006 123.003 52.4239 125.263 54.6841C129.176 58.5974 136.685 57.4333 142.034 52.084C147.383 46.7348 148.547 39.2261 144.634 35.3128C142.553 33.2313 138.213 31.3453 133.8 30.84C133.384 30.7923 133.036 30.4973 132.916 30.0954C132.278 27.9571 131.277 26.0836 130.208 25.0141L130.201 25.0068C129.876 24.6825 129.325 24.8062 129.171 25.238C127.853 28.9091 124.117 32.252 119.116 33.7441C117.208 34.3135 115.306 34.5561 113.511 34.5085C113.089 34.4974 112.778 34.8932 112.884 35.3018V35.3018Z" fill="#F92F3E"/>
<path d="M129.171 25.238C128.731 26.4612 128.022 27.6476 127.089 28.7416C128.047 29.8429 128.925 31.5643 129.505 33.5064C129.625 33.9082 129.973 34.2033 130.389 34.251C134.801 34.7562 139.142 36.6423 141.223 38.7237C144.711 42.2112 144.165 48.5545 140.219 53.6799C140.844 53.1981 141.452 52.6659 142.034 52.084C147.383 46.7348 148.547 39.2261 144.634 35.3128C142.553 33.2314 138.212 31.3453 133.8 30.8401C133.384 30.7924 133.036 30.4974 132.916 30.0955C132.277 27.9572 131.277 26.0837 130.208 25.0142L130.2 25.0069C129.876 24.6825 129.326 24.8064 129.171 25.238V25.238Z" fill="#FA676D"/>
<path d="M107.837 13.5556L133.316 39.0348C133.698 39.4161 133.698 40.0345 133.316 40.4158L130.366 43.3663C129.984 43.7477 129.366 43.7477 128.985 43.3663L103.505 17.8871L107.837 13.5556Z" fill="#407093"/>
<path d="M105.877 15.5156L131.356 40.9949C131.738 41.3763 131.738 41.9946 131.356 42.376L133.316 40.4158C133.698 40.0345 133.698 39.4161 133.316 39.0348L107.837 13.5556L105.877 15.5156Z" fill="#2B4D66"/>
<path d="M138.597 43.0406C138.597 43.2327 138.524 43.4248 138.377 43.5713L133.521 48.4271C133.228 48.7203 132.753 48.7203 132.46 48.4271C132.167 48.1341 132.167 47.6589 132.46 47.3658L137.316 42.5099C137.609 42.2168 138.084 42.2168 138.377 42.5099C138.524 42.6564 138.597 42.8485 138.597 43.0406Z" fill="#C1D5E4"/>
<path d="M141.025 45.4685C141.025 45.6606 140.951 45.8527 140.805 45.9992L135.949 50.855C135.656 51.1481 135.181 51.1481 134.888 50.855C134.595 50.5618 134.595 50.0866 134.888 49.7936L139.744 44.9379C140.037 44.6447 140.512 44.6447 140.805 44.9379C140.952 45.0844 141.025 45.2766 141.025 45.4685V45.4685Z" fill="#C1D5E4"/>
<path d="M137.846 36.8357C137.846 35.9124 137.098 35.1639 136.175 35.1639C135.251 35.1639 134.503 35.9124 134.503 36.8357C134.503 37.759 135.251 38.5074 136.175 38.5074C137.098 38.5074 137.846 37.759 137.846 36.8357Z" fill="#DAE7EF"/>
<path d="M143.618 40.1792C143.618 39.2559 142.869 38.5074 141.946 38.5074C141.023 38.5074 140.274 39.2559 140.274 40.1792C140.274 41.1025 141.023 41.851 141.946 41.851C142.869 41.851 143.618 41.1025 143.618 40.1792Z" fill="#DAE7EF"/>
<path d="M134.562 36.4017C134.7 36.3645 134.845 36.3429 134.996 36.3429C135.919 36.3429 136.667 37.0914 136.667 38.0146C136.667 38.1649 136.646 38.3099 136.609 38.4485C137.321 38.2572 137.846 37.6086 137.846 36.8356C137.846 35.9123 137.098 35.1638 136.175 35.1638C135.402 35.1638 134.753 35.6891 134.562 36.4017V36.4017Z" fill="#C1D5E4"/>
<path d="M140.333 39.7453C140.472 39.7081 140.617 39.6864 140.767 39.6864C141.69 39.6864 142.439 40.4349 142.439 41.3582C142.439 41.5085 142.417 41.6535 142.38 41.7921C143.093 41.6008 143.618 40.9521 143.618 40.1792C143.618 39.2559 142.869 38.5074 141.946 38.5074C141.173 38.5074 140.525 39.0328 140.333 39.7453V39.7453Z" fill="#C1D5E4"/>
<path d="M129.718 43.3493C129.718 43.5414 129.645 43.7335 129.498 43.88C129.205 44.1731 128.73 44.1731 128.437 43.88L102.975 18.4179C102.682 18.1247 102.682 17.6496 102.975 17.3564C103.268 17.0634 103.743 17.0634 104.036 17.3564L129.498 42.8186C129.645 42.9651 129.718 43.1572 129.718 43.3493V43.3493Z" fill="#C1D5E4"/>
<path d="M134.05 39.0177C134.05 39.2097 133.976 39.4018 133.83 39.5483C133.537 39.8415 133.062 39.8415 132.769 39.5483L107.306 14.0862C107.013 13.793 107.013 13.3179 107.306 13.0248C107.6 12.7317 108.075 12.7317 108.368 13.0248L133.83 38.487C133.976 38.6336 134.05 38.8256 134.05 39.0177V39.0177Z" fill="#C1D5E4"/>
<path d="M106.141 7.75051C106.141 7.9425 106.068 8.13469 105.921 8.28127L103.279 10.9231C102.986 11.2161 102.511 11.2161 102.218 10.9231C101.925 10.6299 101.925 10.1548 102.218 9.86165L104.86 7.21985C105.153 6.92678 105.628 6.92678 105.921 7.21985C106.068 7.36643 106.141 7.55852 106.141 7.75051V7.75051Z" fill="#407093"/>
<path d="M108.569 10.1784C108.569 10.3704 108.496 10.5626 108.349 10.7091L105.707 13.3509C105.414 13.644 104.939 13.644 104.646 13.351C104.353 13.0578 104.353 12.5826 104.646 12.2896L107.288 9.64786C107.581 9.35469 108.056 9.35469 108.349 9.64776C108.496 9.79434 108.569 9.98643 108.569 10.1784V10.1784Z" fill="#407093"/>
<path d="M111.385 12.2999C111.385 12.4919 111.312 12.6841 111.165 12.8306L108.523 15.4724C108.23 15.7655 107.755 15.7655 107.462 15.4725C107.169 15.1793 107.169 14.7041 107.462 14.4111L110.104 11.7693C110.397 11.4762 110.872 11.4762 111.165 11.7692C111.312 11.9158 111.385 12.1079 111.385 12.2999V12.2999Z" fill="#407093"/>
<path d="M101.193 12.6986C101.193 12.8906 101.12 13.0828 100.973 13.2294L98.3313 15.8712C98.0381 16.1642 97.563 16.1642 97.2698 15.8712C96.9769 15.578 96.9769 15.1029 97.2698 14.8097L99.9116 12.1679C100.205 11.8749 100.68 11.8749 100.973 12.1679C101.12 12.3144 101.193 12.5066 101.193 12.6986Z" fill="#407093"/>
<path d="M103.621 15.1266C103.621 15.3186 103.547 15.5107 103.401 15.6573L100.759 18.299C100.466 18.5921 99.9908 18.5921 99.6977 18.2989C99.4047 18.0059 99.4048 17.5308 99.6978 17.2376L102.34 14.5959C102.633 14.3028 103.108 14.3028 103.401 14.596C103.548 14.7424 103.621 14.9346 103.621 15.1266Z" fill="#407093"/>
<path d="M105.742 17.9428C105.742 18.1349 105.669 18.327 105.522 18.4735L102.881 21.1152C102.588 21.4083 102.112 21.4083 101.819 21.1151C101.526 20.8221 101.526 20.3469 101.819 20.0538L104.461 17.4121C104.754 17.119 105.229 17.119 105.522 17.4122C105.669 17.5586 105.742 17.7507 105.742 17.9428Z" fill="#407093"/>
<path d="M108.993 12.8514C107.5 12.5405 106.13 11.8004 105.051 10.7219C104.294 9.96533 103.701 9.06171 103.307 8.06679C103.04 7.2665 102.025 7.02665 101.428 7.62324L97.8248 11.2265C97.2895 11.7618 97.2895 12.6298 97.8248 13.1651C97.943 13.2833 98.0808 13.3809 98.2342 13.447C99.1434 13.8389 99.9707 14.4 100.672 15.1011C101.75 16.1796 102.49 17.5495 102.801 19.0427C102.913 19.5788 103.413 19.9426 103.958 19.8833L106.259 19.6328C107.109 19.5403 107.902 19.1604 108.506 18.5561C109.111 17.9518 109.49 17.1591 109.583 16.3094L109.833 14.0076C109.893 13.4634 109.529 12.963 108.993 12.8514V12.8514Z" fill="#407093"/>
<path d="M101.428 7.62324L99.1425 9.90879C99.7391 9.31221 100.755 9.55205 101.022 10.3523C101.415 11.3472 102.009 12.2508 102.766 13.0074C103.844 14.0859 105.214 14.8261 106.707 15.1369C107.243 15.2485 107.607 15.7489 107.548 16.2933L107.297 18.595C107.266 18.8851 107.2 19.1681 107.104 19.4395C107.628 19.2543 108.108 18.9543 108.506 18.5562C109.111 17.9519 109.49 17.1592 109.583 16.3095L109.833 14.0077C109.893 13.4634 109.529 12.9629 108.993 12.8514C107.5 12.5405 106.129 11.8004 105.051 10.7219C104.294 9.96524 103.701 9.06172 103.307 8.0668C103.04 7.26651 102.025 7.02676 101.428 7.62324Z" fill="#2B4D66"/>
<path d="M133.741 43.0406C133.741 43.2327 133.668 43.4248 133.521 43.5713C133.228 43.8644 132.753 43.8644 132.46 43.5713L106.889 18.0006C106.596 17.7074 106.596 17.2323 106.889 16.9392C107.182 16.6461 107.657 16.6461 107.95 16.9392L133.521 42.51C133.668 42.6564 133.741 42.8485 133.741 43.0406V43.0406Z" fill="#C1D5E4"/>
<g clip-path="url(#clip1)">
<path d="M18.9696 36.3196C18.7795 36.1296 18.7016 35.8422 18.7531 35.5186C18.806 35.1864 18.9907 34.8443 19.2658 34.5692L37.0228 16.8122C37.588 16.247 38.3717 16.1144 38.7733 16.5161L41.5463 19.2891C41.9478 19.6907 41.8153 20.4744 41.2501 21.0395L23.574 38.7156C23.0171 39.2724 22.246 39.4107 21.8388 39.0266L18.9849 36.3345C18.9798 36.3297 18.9747 36.3247 18.9696 36.3196V36.3196Z" fill="#94443F"/>
<path d="M41.5462 19.2891L40.1286 17.8715L20.3643 37.6357L21.8388 39.0265C22.246 39.4105 23.0171 39.2724 23.574 38.7155L41.25 21.0395C41.8152 20.4744 41.9478 19.6906 41.5462 19.2891V19.2891Z" fill="#452123"/>
<path d="M31.9013 21.9312L33.9476 19.8849L38.1743 24.1115L36.1279 26.1578L31.9013 21.9312Z" fill="#B45D4A"/>
<path d="M33.9834 24.0137L36.0297 21.9673L38.1741 24.1117L36.1277 26.158L33.9834 24.0137Z" fill="#94443F"/>
<path d="M27.808 26.0236L29.8543 23.9773L34.0809 28.2039L32.0346 30.2503L27.808 26.0236Z" fill="#B45D4A"/>
<path d="M29.8901 28.1059L31.9365 26.0596L34.0808 28.204L32.0345 30.2503L29.8901 28.1059Z" fill="#94443F"/>
<path d="M23.7146 30.116L25.7609 28.0696L29.9876 32.2963L27.9413 34.3426L23.7146 30.116Z" fill="#B45D4A"/>
<path d="M25.7968 32.1985L27.8432 30.1522L29.9875 32.2965L27.9412 34.3428L25.7968 32.1985Z" fill="#94443F"/>
<path d="M37.5998 18.1627C37.5447 18.1075 37.5033 18.039 37.4802 17.9645L36.6099 15.1547L36.5908 15.1098C36.4899 14.8719 36.594 14.5983 36.8279 14.487C41.0541 12.4756 43.0183 8.32147 43.0377 8.27979C43.104 8.13671 43.236 8.035 43.391 8.00748C43.5078 7.98674 43.6276 8.00947 43.7284 8.07159L43.762 8.09223L47.7028 10.0969C47.748 10.1198 47.7892 10.1498 47.8252 10.1858C47.8612 10.2218 47.8911 10.263 47.9142 10.3083L49.9477 14.3058C50.0067 14.4219 50.0162 14.5591 49.9736 14.6822C49.9309 14.8054 49.8387 14.9074 49.7205 14.9621C49.5438 15.0454 45.5051 16.9866 43.5131 21.1719C43.4108 21.3868 43.1623 21.4958 42.9349 21.4253L40.0467 20.5307C39.972 20.5076 39.9035 20.4663 39.8482 20.4111L37.5998 18.1627Z" fill="#FCD1A6"/>
<path d="M43.5132 21.1721C45.5051 16.9868 49.5439 15.0456 49.7206 14.9623C49.8387 14.9076 49.931 14.8056 49.9737 14.6824C50.0162 14.5593 50.0068 14.4221 49.9477 14.306L47.9142 10.3084C47.8911 10.263 47.8611 10.2218 47.8251 10.1859C47.8233 10.1841 47.8212 10.1827 47.8193 10.1809L38.7186 19.2816L39.8483 20.4114C39.9036 20.4666 39.9721 20.5079 40.0467 20.531L42.9349 21.4256C43.1623 21.496 43.4109 21.387 43.5132 21.1721V21.1721Z" fill="#F3A871"/>
<path d="M7.18411 54.7886L3.21145 50.816C-1.07032 46.5342 -1.07032 39.5672 3.21145 35.2854C5.56437 32.9325 8.83206 31.6977 12.1767 31.8979C13.0564 31.9504 13.84 31.3849 14.0402 30.553C14.3944 29.0799 15.1529 27.7346 16.2332 26.6628C18.2285 24.6829 21.068 23.8753 23.829 24.5024C24.4317 24.6393 24.881 25.1439 24.9473 25.7585C25.0136 26.373 24.6823 26.9617 24.1226 27.224C23.7995 27.3755 23.5115 27.5764 23.2667 27.8212C21.6115 29.4764 22.2224 32.8842 24.6009 35.2627C26.5887 37.2506 29.2782 38.0534 31.1413 37.2153C31.6809 36.9725 32.3137 37.0825 32.7395 37.4932C32.7459 37.4992 32.7523 37.5055 32.7586 37.5118C33.1694 37.9226 33.2952 38.5404 33.0757 39.0802C32.6698 40.0781 32.0791 40.9726 31.3199 41.7392C30.2521 42.8172 28.9118 43.5757 27.4441 43.9327C26.6113 44.1352 26.0463 44.9192 26.1008 45.7969C26.3091 49.1513 25.0751 52.4287 22.7149 54.7889C18.4329 59.0705 11.466 59.0705 7.18411 54.7886Z" fill="#FA676D"/>
<path d="M26.1007 45.7966C26.0463 44.919 26.6113 44.1349 27.4441 43.9325C28.9118 43.5756 30.2521 42.8171 31.3199 41.739C32.0791 40.9724 32.6698 40.0779 33.0757 39.08C33.2952 38.5402 33.1694 37.9224 32.7586 37.5116C32.7523 37.5053 32.7459 37.4991 32.7395 37.493C32.3137 37.0823 31.6808 36.9723 31.1413 37.2151C29.2783 38.0532 26.5887 37.2504 24.6009 35.2625C24.2823 34.9439 23.9965 34.6065 23.7425 34.2576L5.19785 52.8024L7.18423 54.7888C11.466 59.0705 18.433 59.0705 22.7148 54.7888C25.0749 52.4285 26.309 49.1511 26.1007 45.7966V45.7966Z" fill="#F92F3E"/>
<path d="M19.3723 41.678L16.3221 38.6278C15.7569 38.0626 15.7569 37.1463 16.3221 36.5812C16.8873 36.016 17.8035 36.016 18.3687 36.5812L21.4189 39.6314C21.9841 40.1966 21.9841 41.1128 21.4189 41.678C20.8538 42.2432 19.9375 42.2432 19.3723 41.678Z" fill="#F3F5FB"/>
<path d="M21.4189 39.6314L19.8938 38.1063L17.8472 40.1529L19.3723 41.678C19.9375 42.2432 20.8538 42.2432 21.4189 41.678C21.9841 41.1128 21.9841 40.1965 21.4189 39.6314Z" fill="#CED3DF"/>
<path d="M14.797 46.2533L11.7468 43.2031C11.1816 42.6379 11.1816 41.7216 11.7468 41.1565C12.312 40.5913 13.2282 40.5913 13.7934 41.1565L16.8436 44.2067C17.4088 44.7719 17.4088 45.6882 16.8436 46.2533C16.2785 46.8185 15.3622 46.8185 14.797 46.2533Z" fill="#F3F5FB"/>
<path d="M16.8436 44.2066L15.3185 42.6815L13.2719 44.7281L14.797 46.2532C15.3622 46.8184 16.2784 46.8184 16.8436 46.2532C17.4088 45.6882 17.4088 44.7718 16.8436 44.2066Z" fill="#CED3DF"/>
</g>
<g clip-path="url(#clip2)">
<path d="M57.0697 38.5884H100V27.1758C100 26.6201 99.5496 26.1697 98.9939 26.1697H51.0061C50.4504 26.1697 50 26.6201 50 27.1758V52.8242C50 53.3799 50.4504 53.8303 51.0061 53.8303H57.0697V38.5884Z" fill="#FB4A59"/>
<path d="M96.2203 27.1756V38.5884H100V27.1756C100 26.6202 99.5493 26.1695 98.9939 26.1695H95.2142C95.7706 26.1695 96.2203 26.6202 96.2203 27.1756Z" fill="#F82F40"/>
<path d="M89.2475 28.9104V34.501C89.2475 34.9175 88.9104 35.2555 88.493 35.2555C88.0765 35.2555 87.7385 34.9175 87.7385 34.501V28.9104C87.7385 28.4939 88.0765 28.156 88.493 28.156C88.9104 28.156 89.2475 28.4939 89.2475 28.9104V28.9104Z" fill="#5B5555"/>
<path d="M93.7022 35.2554C93.2854 35.2554 92.9478 34.9176 92.9478 34.5009V28.9104C92.9478 28.4937 93.2855 28.156 93.7022 28.156C94.1189 28.156 94.4567 28.4937 94.4567 28.9104V34.5009C94.4567 34.9176 94.119 35.2554 93.7022 35.2554Z" fill="#5B5555"/>
<path d="M92.9478 32.7154V34.5008C92.9478 34.9175 93.2855 35.2553 93.7022 35.2553C94.1189 35.2553 94.4567 34.9175 94.4567 34.5008V32.7154H92.9478Z" fill="#433F43"/>
<path d="M80.5524 30.2178V33.243C80.5524 33.7983 80.1017 34.249 79.5463 34.249H70.4537C69.8983 34.249 69.4477 33.7983 69.4477 33.243V30.2178C69.4477 29.6624 69.8983 29.2117 70.4537 29.2117H79.5463C80.1016 29.2118 80.5524 29.6625 80.5524 30.2178Z" fill="#8DCAFC"/>
<path d="M80.5524 30.2178V30.5658L76.8703 34.2489H72.6479L77.6852 29.2117H79.5463C80.1016 29.2118 80.5524 29.6625 80.5524 30.2178Z" fill="#B5DBFD"/>
<path d="M55.1152 32.9967C56.0966 32.9967 56.8922 32.2011 56.8922 31.2197C56.8922 30.2383 56.0966 29.4428 55.1152 29.4428C54.1339 29.4428 53.3383 30.2383 53.3383 31.2197C53.3383 32.2011 54.1339 32.9967 55.1152 32.9967Z" fill="#756F6F"/>
<path d="M61.2479 32.9967C62.2292 32.9967 63.0248 32.2011 63.0248 31.2197C63.0248 30.2383 62.2292 29.4428 61.2479 29.4428C60.2665 29.4428 59.4709 30.2383 59.4709 31.2197C59.4709 32.2011 60.2665 32.9967 61.2479 32.9967Z" fill="#756F6F"/>
<path d="M52.5942 38.7999C52.1774 38.7999 51.8398 38.4621 51.8398 38.0454V37.5568C51.8398 37.1401 52.1775 36.8023 52.5942 36.8023C53.0109 36.8023 53.3487 37.1401 53.3487 37.5568V38.0454C53.3488 38.4621 53.011 38.7999 52.5942 38.7999V38.7999Z" fill="#FAF7F7"/>
<path d="M52.5942 42.041C52.1774 42.041 51.8398 41.7032 51.8398 41.2865V40.7979C51.8398 40.3812 52.1775 40.0435 52.5942 40.0435C53.0109 40.0435 53.3487 40.3812 53.3487 40.7979V41.2865C53.3488 41.7032 53.011 42.041 52.5942 42.041V42.041Z" fill="#FAF7F7"/>
<path d="M52.5942 45.2822C52.1774 45.2822 51.8398 44.9444 51.8398 44.5277V44.0392C51.8398 43.6225 52.1775 43.2847 52.5942 43.2847C53.0109 43.2847 53.3487 43.6225 53.3487 44.0392V44.5277C53.3488 44.9443 53.011 45.2822 52.5942 45.2822V45.2822Z" fill="#FAF7F7"/>
<path d="M66.4809 35.0032C66.4796 35.0032 66.4784 35.0032 66.4772 35.0032L66.4668 35.0031C66.0501 35.0011 65.714 34.6617 65.7159 34.245C65.7179 33.8295 66.0554 33.494 66.4703 33.494H66.474L66.4844 33.4941C66.9011 33.4962 67.2372 33.8355 67.2353 34.2522C67.2333 34.6678 66.8958 35.0032 66.4809 35.0032Z" fill="#72F4C3"/>
<path d="M66.4809 32.485C66.4796 32.485 66.4784 32.485 66.4772 32.485L66.4668 32.4849C66.0501 32.4828 65.714 32.1435 65.7159 31.7268C65.7179 31.3112 66.0554 30.9758 66.4703 30.9758H66.474L66.4844 30.9759C66.9011 30.9779 67.2372 31.3173 67.2353 31.734C67.2333 32.1495 66.8958 32.485 66.4809 32.485Z" fill="#72F4C3"/>
<path d="M66.4808 29.9668H66.4705C66.0537 29.9668 65.716 29.629 65.716 29.2123C65.716 28.7956 66.0538 28.4578 66.4705 28.4578H66.4808C66.8976 28.4578 67.2353 28.7956 67.2353 29.2123C67.2353 29.629 66.8975 29.9668 66.4808 29.9668Z" fill="#72F4C3"/>
<path d="M83.5297 35.0032C83.5284 35.0032 83.5272 35.0032 83.526 35.0032L83.5156 35.0031C83.0989 35.0011 82.7628 34.6617 82.7647 34.245C82.7667 33.8295 83.1042 33.494 83.5191 33.494H83.5228L83.5332 33.4941C83.9499 33.4962 84.286 33.8355 84.2841 34.2522C84.2821 34.6678 83.9447 35.0032 83.5297 35.0032Z" fill="#72F4C3"/>
<path d="M83.5297 32.485C83.5284 32.485 83.5272 32.485 83.526 32.485L83.5156 32.4849C83.0989 32.4828 82.7628 32.1435 82.7647 31.7268C82.7667 31.3112 83.1042 30.9758 83.5191 30.9758H83.5228L83.5332 30.9759C83.9499 30.9779 84.286 31.3173 84.2841 31.734C84.2821 32.1495 83.9447 32.485 83.5297 32.485Z" fill="#72F4C3"/>
<path d="M83.5297 29.9668H83.5193C83.1025 29.9668 82.7648 29.629 82.7648 29.2123C82.7648 28.7956 83.1026 28.4578 83.5193 28.4578H83.5297C83.9465 28.4578 84.2842 28.7956 84.2842 29.2123C84.2842 29.629 83.9465 29.9668 83.5297 29.9668Z" fill="#72F4C3"/>
<path d="M87.7385 30.6382V34.1006C87.9809 34.1579 88.2335 34.1881 88.493 34.1881C88.7525 34.1881 89.0051 34.1579 89.2475 34.1006V30.6382H87.7385Z" fill="#433F43"/>
<path d="M88.4933 32.6787C89.4656 32.6787 90.2538 31.8905 90.2538 30.9182C90.2538 29.9458 89.4656 29.1576 88.4933 29.1576C87.5209 29.1576 86.7327 29.9458 86.7327 30.9182C86.7327 31.8905 87.5209 32.6787 88.4933 32.6787Z" fill="#F8F3F1"/>
<path d="M90.2537 30.918C90.2537 31.8908 89.466 32.6785 88.4932 32.6785C88.2196 32.6785 87.96 32.6161 87.7286 32.5034C88.3172 32.2197 88.7246 31.6171 88.7246 30.9179C88.7246 30.2197 88.3172 29.616 87.7286 29.3323C87.96 29.2196 88.2196 29.1573 88.4932 29.1573C89.466 29.1574 90.2537 29.9461 90.2537 30.918Z" fill="#EFE2DD"/>
<path d="M93.7022 34.2539C94.6745 34.2539 95.4628 33.4657 95.4628 32.4934C95.4628 31.521 94.6745 30.7328 93.7022 30.7328C92.7299 30.7328 91.9417 31.521 91.9417 32.4934C91.9417 33.4657 92.7299 34.2539 93.7022 34.2539Z" fill="#F8F3F1"/>
<path d="M95.4627 32.4932C95.4627 33.466 94.675 34.2537 93.7021 34.2537C93.4285 34.2537 93.1689 34.1913 92.9376 34.0787C93.5261 33.795 93.9336 33.1924 93.9336 32.4932C93.9336 31.795 93.5261 31.1913 92.9376 30.9076C93.1689 30.7949 93.4285 30.7325 93.7021 30.7325C94.675 30.7325 95.4627 31.5213 95.4627 32.4932Z" fill="#EFE2DD"/>
<path d="M56.8924 31.2193C56.8924 32.2013 56.0966 32.997 55.1157 32.997C54.8884 32.997 54.6711 32.9547 54.4709 32.8763C55.1329 32.6177 55.6028 31.9738 55.6028 31.2193C55.6028 30.4658 55.1329 29.822 54.4709 29.5634C54.6711 29.4849 54.8884 29.4427 55.1157 29.4427C56.0966 29.4427 56.8924 30.2385 56.8924 31.2193V31.2193Z" fill="#5B5555"/>
<path d="M63.0252 31.2193C63.0252 32.2013 62.2294 32.997 61.2476 32.997C61.0202 32.997 60.8029 32.9537 60.6028 32.8763C61.2657 32.6187 61.7356 31.9738 61.7356 31.2193C61.7356 30.4658 61.2657 29.821 60.6028 29.5634C60.8029 29.4859 61.0202 29.4427 61.2476 29.4427C62.2294 29.4427 63.0252 30.2385 63.0252 31.2193V31.2193Z" fill="#5B5555"/>
<path d="M86.8148 37.5566H94.2002V53.8302H86.8148V37.5566Z" fill="#FAF7F7"/>
<path d="M73.7919 37.5566H81.9098V53.8302H73.7919V37.5566Z" fill="#FAF7F7"/>
<path d="M61.5349 37.5566H68.8533V53.8302H61.5349V37.5566Z" fill="#FAF7F7"/>
<path d="M62.03 53.8303H55.7017V38.5627C55.7017 38.007 56.1521 37.5566 56.7077 37.5566H62.03V53.8303Z" fill="#FAF7F7"/>
<path d="M59.0034 37.5566H62.03V53.8302H59.0034V37.5566Z" fill="#EFE2DD"/>
<path d="M65.3317 37.5566H68.3583V53.8302H65.3317V37.5566Z" fill="#EFE2DD"/>
<path d="M68.3583 37.5566H74.6866V53.8302H68.3583V37.5566Z" fill="#FAF7F7"/>
<path d="M71.66 37.5566H74.6866V53.8302H71.66V37.5566Z" fill="#EFE2DD"/>
<path d="M77.9884 37.5566H81.0149V53.8302H77.9884V37.5566Z" fill="#EFE2DD"/>
<path d="M81.015 37.5566H87.3433V53.8302H81.015V37.5566Z" fill="#FAF7F7"/>
<path d="M84.3167 37.5566H87.3432V53.8302H84.3167V37.5566Z" fill="#EFE2DD"/>
<path d="M90.645 37.5566H93.6716V53.8302H90.645V37.5566Z" fill="#EFE2DD"/>
<path d="M100 37.5568V52.8244C100 53.3798 99.5493 53.8305 98.9939 53.8305H93.672V37.5568H100Z" fill="#FAF7F7"/>
<path d="M100 37.5568V52.8244C100 53.3798 99.5493 53.8305 98.9939 53.8305H95.2142C95.7706 53.8305 96.2203 53.3798 96.2203 52.8244V37.5568H100Z" fill="#EFE2DD"/>
<path d="M62.9248 45.6734H61.1353C60.5796 45.6734 60.1292 45.223 60.1292 44.6674V37.5566H63.9309V44.6674C63.9309 45.223 63.4804 45.6734 62.9248 45.6734Z" fill="#756F6F"/>
<path d="M61.9625 37.5566V45.6734H62.9248C63.4805 45.6734 63.9309 45.223 63.9309 44.6674V37.5566H61.9625Z" fill="#5B5555"/>
<path d="M75.5814 45.6734H73.7919C73.2362 45.6734 72.7858 45.223 72.7858 44.6674V37.5566H76.5875V44.6674C76.5875 45.223 76.1371 45.6734 75.5814 45.6734Z" fill="#756F6F"/>
<path d="M74.6191 37.5566V45.6734H75.5814C76.1371 45.6734 76.5875 45.223 76.5875 44.6674V37.5566H74.6191Z" fill="#5B5555"/>
<path d="M88.2381 45.6734H86.4486C85.8929 45.6734 85.4425 45.223 85.4425 44.6674V37.5566H89.2442V44.6674C89.2442 45.223 88.7938 45.6734 88.2381 45.6734Z" fill="#756F6F"/>
<path d="M87.2759 37.5566V45.6734H88.2382C88.7939 45.6734 89.2443 45.223 89.2443 44.6674V37.5566H87.2759Z" fill="#5B5555"/>
<path d="M81.9098 45.6734H80.1202C79.5646 45.6734 79.1142 45.223 79.1142 44.6674V37.5566H82.9158V44.6674C82.9158 45.223 82.4654 45.6734 81.9098 45.6734Z" fill="#756F6F"/>
<path d="M80.9476 37.5566V45.6734H81.9099C82.4655 45.6734 82.9159 45.223 82.9159 44.6674V37.5566H80.9476Z" fill="#5B5555"/>
</g>
<defs>
<clipPath id="clip0">
<rect x="41" width="50" height="50" fill="white"/>
</clipPath>
<clipPath id="clip1">
<rect y="8" width="50" height="50" fill="white"/>
</clipPath>
<clipPath id="clip2">
<rect x="50" y="15" width="50" height="50" fill="white"/>
</clipPath>
</defs>
</svg>
