<svg width="100" height="100" viewBox="0 0 100 100" fill="none" xmlns="http://www.w3.org/2000/svg">
<path d="M49.9971 94.1408C74.3753 94.1408 94.1377 74.3784 94.1377 50.0002C94.1377 25.622 74.3753 5.85957 49.9971 5.85957C25.6189 5.85957 5.85643 25.622 5.85643 50.0002C5.85643 74.3784 25.6189 94.1408 49.9971 94.1408Z" fill="#B7BCCE"/>
<path d="M49.9971 66.4065C59.058 66.4065 66.4033 59.0611 66.4033 50.0002C66.4033 40.9393 59.058 33.594 49.9971 33.594C40.9361 33.594 33.5908 40.9393 33.5908 50.0002C33.5908 59.0611 40.9361 66.4065 49.9971 66.4065Z" fill="#CBF4FB"/>
<path d="M49.9971 57.0315C53.8803 57.0315 57.0283 53.8835 57.0283 50.0002C57.0283 46.117 53.8803 42.969 49.9971 42.969C46.1138 42.969 42.9658 46.117 42.9658 50.0002C42.9658 53.8835 46.1138 57.0315 49.9971 57.0315Z" fill="#382983"/>
<path d="M18.2643 98.0471L4.74942 84.5322C1.01739 80.8002 1.01739 74.7494 4.74942 71.0174C8.48145 67.2854 14.5322 67.2854 18.2643 71.0174C21.9963 67.2854 28.0471 67.2854 31.7791 71.0174C35.5111 74.7494 35.5111 80.8002 31.7791 84.5322L18.2643 98.0471Z" fill="#0087D1"/>
<path d="M81.5978 32.0024C85.0496 32.0024 87.8478 29.2041 87.8478 25.7524C87.8478 22.3006 85.0496 19.5023 81.5978 19.5023C78.1461 19.5023 75.3478 22.3006 75.3478 25.7524C75.3478 29.2041 78.1461 32.0024 81.5978 32.0024Z" fill="#0087D1"/>
<path d="M49.9971 41.0158C45.0432 41.0158 41.0127 45.0463 41.0127 50.0002C41.0127 54.9541 45.0432 58.9846 49.9971 58.9846C54.951 58.9846 58.9814 54.9541 58.9814 50.0002C58.9814 45.0463 54.9512 41.0158 49.9971 41.0158V41.0158ZM49.9971 55.0783C47.1971 55.0783 44.9189 52.8004 44.9189 50.0002C44.9189 47.2 47.1971 44.9221 49.9971 44.9221C52.7971 44.9221 55.0752 47.2 55.0752 50.0002C55.0752 52.8004 52.7973 55.0783 49.9971 55.0783Z" fill="black"/>
<path d="M49.9971 31.6408C39.8736 31.6408 31.6377 39.8768 31.6377 50.0002C31.6377 60.1236 39.8736 68.3596 49.9971 68.3596C60.1205 68.3596 68.3564 60.1236 68.3564 50.0002C68.3564 39.8768 60.1205 31.6408 49.9971 31.6408V31.6408ZM49.9971 64.4533C42.0275 64.4533 35.5439 57.9697 35.5439 50.0002C35.5439 42.0307 42.0275 35.5471 49.9971 35.5471C57.9666 35.5471 64.4502 42.0307 64.4502 50.0002C64.4502 57.9697 57.9666 64.4533 49.9971 64.4533Z" fill="black"/>
<path d="M99.9205 1.4125C99.6219 0.375983 98.5396 -0.221086 97.5029 0.0765696L87.5526 2.94414C86.6139 3.08652 85.8946 3.89687 85.8946 4.87519V18.7681C84.9731 18.1992 83.9317 17.807 82.8172 17.6402C78.6698 13.4314 73.8346 10.1012 68.4311 7.74101C62.6061 5.19668 56.404 3.90644 49.9972 3.90644C37.6851 3.90644 26.1099 8.70097 17.4041 17.407C8.69822 26.1128 3.9035 37.688 3.9035 50.0001C3.9035 55.9313 5.00819 61.6753 7.18533 67.1085C5.79549 67.6694 4.49335 68.5112 3.36835 69.636C-1.11914 74.1237 -1.11914 81.4254 3.36835 85.9131L16.8832 99.4279C17.2646 99.8092 17.7644 100 18.2642 100C18.764 100 19.264 99.8092 19.6453 99.4279L28.3626 90.7106C34.9909 94.2365 42.4382 96.0938 49.9972 96.0938C59.1145 96.0938 67.9301 93.436 75.4914 88.4074C76.3897 87.81 76.6336 86.5977 76.0362 85.6994C75.4389 84.8012 74.2264 84.5575 73.3284 85.1547C66.4102 89.7559 58.3423 92.1877 49.9972 92.1877C43.4806 92.1877 37.0564 90.6795 31.2644 87.8092L33.1603 85.9133C37.6478 81.4256 37.6478 74.1239 33.1603 69.6362C29.1081 65.5844 22.7619 65.1909 18.2644 68.4565C16.1338 66.9092 13.5879 66.185 11.0677 66.2803C8.90682 61.1266 7.80994 55.6573 7.80994 50.0003C7.80994 26.738 26.7351 7.81288 49.9974 7.81288C60.443 7.81288 70.2432 11.5512 77.9555 18.4052C75.2555 19.7494 73.395 22.5371 73.395 25.7523C73.395 30.2755 77.0748 33.9554 81.5981 33.9554C84.049 33.9554 86.2508 32.8736 87.7553 31.164C90.6615 36.9851 92.1848 43.4298 92.1848 50.0003C92.1848 58.3458 89.7527 66.4134 85.1518 73.3313C84.5543 74.2295 84.7983 75.442 85.6965 76.0391C86.0291 76.2604 86.4047 76.3663 86.7764 76.3663C87.4082 76.3663 88.0283 76.0602 88.4045 75.4946C93.4332 67.9337 96.091 59.1177 96.091 50.0003C96.091 41.7661 93.9004 33.7113 89.7502 26.6566C89.783 26.3595 89.8012 26.0582 89.8012 25.7525V6.36191L98.585 3.83047C99.6211 3.53125 100.219 2.44903 99.9205 1.4125V1.4125ZM19.6451 72.3983C22.6097 69.4339 27.4333 69.434 30.3978 72.3983C33.3622 75.3627 33.3622 80.1864 30.3978 83.151L18.264 95.2848L6.13026 83.151C3.16581 80.1864 3.16581 75.3627 6.13026 72.3983C7.61248 70.9161 9.55974 70.1749 11.5066 70.1749C13.4535 70.1749 15.4007 70.9161 16.883 72.3983C17.6459 73.1608 18.8824 73.1608 19.6451 72.3983V72.3983ZM81.5977 30.0492C79.2284 30.0492 77.3008 28.1216 77.3008 25.7523C77.3008 23.383 79.2284 21.4554 81.5977 21.4554C83.967 21.4554 85.8946 23.383 85.8946 25.7523C85.8946 28.1216 83.967 30.0492 81.5977 30.0492Z" fill="black"/>
<path d="M49.9971 86.8492C70.3156 86.8492 86.8461 70.3188 86.8461 50.0002C86.8461 48.9217 85.9717 48.0471 84.893 48.0471C83.8143 48.0471 82.9399 48.9217 82.9399 50.0002C82.9399 68.1649 68.1617 82.943 49.9971 82.943C48.9184 82.943 48.0439 83.8176 48.0439 84.8961C48.0439 85.9746 48.9184 86.8492 49.9971 86.8492V86.8492Z" fill="black"/>
<path d="M48.0439 75.6512C48.0439 76.7297 48.9184 77.6043 49.9971 77.6043C65.2182 77.6043 77.6012 65.2213 77.6012 50.0002C77.6012 48.9217 76.7267 48.0471 75.648 48.0471C74.5693 48.0471 73.6949 48.9217 73.6949 50.0002C73.6949 63.0672 63.0641 73.6981 49.9971 73.6981C48.9184 73.6981 48.0439 74.5727 48.0439 75.6512V75.6512Z" fill="black"/>
<path d="M81.2099 79.26C80.6963 79.26 80.1923 79.4672 79.8271 79.8303C79.4638 80.1955 79.2568 80.6975 79.2568 81.2131C79.2568 81.7268 79.4638 82.2307 79.8271 82.594C80.1923 82.9572 80.6943 83.1662 81.2099 83.1662C81.7236 83.1662 82.2275 82.9574 82.5908 82.594C82.9541 82.2305 83.1631 81.7268 83.1631 81.2131C83.1631 80.6975 82.9541 80.1955 82.5908 79.8303C82.2275 79.467 81.7236 79.26 81.2099 79.26Z" fill="black"/>
</svg>
