<svg width="71" height="71" viewBox="0 0 71 71" fill="none" xmlns="http://www.w3.org/2000/svg">
<path d="M60.6024 10.3978C53.8972 3.69269 44.9824 0 35.5 0L34.0208 35.5L35.5 71C44.9824 71 53.8972 67.3073 60.6024 60.6024C67.3073 53.8972 71 44.9824 71 35.5C71 26.0176 67.3073 17.1028 60.6024 10.3978V10.3978Z" fill="#28485E"/>
<path d="M10.3976 10.3978C3.69269 17.1028 0 26.0176 0 35.5C0 44.9824 3.69269 53.8972 10.3976 60.6024C17.1028 67.3073 26.0176 71 35.5 71V0C26.0176 0 17.1028 3.69269 10.3976 10.3978V10.3978Z" fill="#36607D"/>
<path d="M60.5071 35.5H56.347C56.347 40.5 54.577 45.094 51.6314 48.6898L54.5832 51.6415C58.2762 47.2824 60.5071 41.6472 60.5071 35.5Z" fill="#1B303E"/>
<path d="M35.5 56.347V60.5071C41.6472 60.5071 47.2824 58.2762 51.6417 54.5832L48.6899 51.6314C45.094 54.577 40.5 56.347 35.5 56.347Z" fill="#1B303E"/>
<path d="M35.5 14.653V10.4929C29.3528 10.4929 23.7176 12.7238 19.3583 16.4168L22.3101 19.3686C25.906 16.4231 30.5001 14.653 35.5 14.653Z" fill="#44799B"/>
<path d="M10.4929 35.5H14.6531C14.6531 30.5001 16.4231 25.906 19.3685 22.3102L16.4167 19.3585C12.7238 23.7176 10.4929 29.3528 10.4929 35.5V35.5Z" fill="#44799B"/>
<path d="M35.5 21.5866L34.0208 35.5L35.5 49.4134C37.9096 49.4134 40.178 48.7974 42.1563 47.7149L44.375 35.5L42.1563 23.285C40.178 22.2026 37.9096 21.5866 35.5 21.5866V21.5866Z" fill="#A9DFEB"/>
<path d="M35.5 21.5866C33.0904 21.5866 30.822 22.2026 28.8438 23.2851L26.625 35.5L28.8438 47.7151C30.822 48.7974 33.0904 49.4135 35.5 49.4135V21.5866Z" fill="#E4FAFF"/>
<path d="M21.5866 35.5C21.5866 40.7623 24.5233 45.3513 28.8438 47.7151V23.2851C24.5233 25.6488 21.5866 30.2377 21.5866 35.5Z" fill="#0087D1"/>
<path d="M49.4134 35.5C49.4134 30.2378 46.4767 25.6488 42.1562 23.2851V47.7151C46.4767 45.3513 49.4134 40.7623 49.4134 35.5V35.5Z" fill="#382983"/>
<path d="M37.5801 33.4199H35.5L34.0208 35.5L35.5 37.5801H37.5801V33.4199Z" fill="#FAEEE5"/>
<path d="M33.4199 33.4199H35.5V37.5801H33.4199V33.4199Z" fill="#FFFBF5"/>
</svg>
