<svg height="512" viewBox="0 0 512 512" width="512" xmlns="http://www.w3.org/2000/svg"><g><g><path d="m496 256v124a19.994 19.994 0 0 1 -20 20h-440a19.994 19.994 0 0 1 -20-20v-124z" fill="none"/><path d="m152 112v144h-136v-124a19.994 19.994 0 0 1 20-20z" fill="#57565c"/><path d="m496 132v124h-136v-144h116a19.994 19.994 0 0 1 20 20z" fill="#57565c"/><path d="m152 112h208v144h-208z" fill="#acabb1"/><g fill="#2d2d30"><path d="m56 256h32v64h-32z"/><path d="m112 256h32v64h-32z"/><path d="m416 256h32v64h-32z"/><path d="m208 256h32v64h-32z"/><path d="m264 256h32v64h-32z"/><path d="m320 256h32v64h-32z"/></g><path d="m440 152h32v24h-32z" fill="#ffda44"/><path d="m384 184h32v24h-32z" fill="#ffda44"/><path d="m176 136h160v96h-160z" fill="#83d8f4"/><path d="m40 200h32v32h-32z" fill="#ffda44"/><path d="m96 200h32v32h-32z" fill="#ffda44"/></g><g><path d="m476 104h-440a28.031 28.031 0 0 0 -28 28v248a28.031 28.031 0 0 0 28 28h440a28.031 28.031 0 0 0 28-28v-248a28.031 28.031 0 0 0 -28-28zm-316 16h192v128h-192zm-136 12a12.01 12.01 0 0 1 12-12h108v128h-120zm40 260h-28a12.01 12.01 0 0 1 -12-12v-116h24v56a8 8 0 0 0 8 8h8zm0-128h16v48h-16zm56 128h-40v-64h8a8 8 0 0 0 8-8v-56h8v56a8 8 0 0 0 8 8h8zm0-128h16v48h-16zm48 128h-32v-64h8a8 8 0 0 0 8-8v-56h16zm48 0h-32v-128h16v56a8 8 0 0 0 8 8h8zm0-128h16v48h-16zm56 128h-40v-64h8a8 8 0 0 0 8-8v-56h8v56a8 8 0 0 0 8 8h8zm0-128h16v48h-16zm56 128h-40v-64h8a8 8 0 0 0 8-8v-56h8v56a8 8 0 0 0 8 8h8zm0-128h16v48h-16zm48 128h-32v-64h8a8 8 0 0 0 8-8v-56h16zm48 0h-32v-128h16v56a8 8 0 0 0 8 8h8zm64-12a12.01 12.01 0 0 1 -12 12h-36v-64h8a8 8 0 0 0 8-8v-56h32zm-64-68v-48h16v48zm64-64h-120v-128h108a12.01 12.01 0 0 1 12 12z"/><path d="m440 184h8v48a8 8 0 0 0 16 0v-48h8a8 8 0 0 0 8-8v-24a8 8 0 0 0 -8-8h-8v-8a8 8 0 0 0 -16 0v8h-8a8 8 0 0 0 -8 8v24a8 8 0 0 0 8 8zm8-24h16v8h-16z"/><path d="m384 216h8v16a8 8 0 0 0 16 0v-16h8a8 8 0 0 0 8-8v-24a8 8 0 0 0 -8-8h-8v-40a8 8 0 0 0 -16 0v40h-8a8 8 0 0 0 -8 8v24a8 8 0 0 0 8 8zm8-24h16v8h-16z"/><path d="m40 144h88a8 8 0 0 0 0-16h-88a8 8 0 0 0 0 16z"/><path d="m40 168h24a8 8 0 0 0 0-16h-24a8 8 0 0 0 0 16z"/><path d="m336 128h-160a8 8 0 0 0 -8 8v96a8 8 0 0 0 8 8h160a8 8 0 0 0 8-8v-96a8 8 0 0 0 -8-8zm-8 96h-144v-80h144z"/><path d="m80 232v-32a8 8 0 0 0 -8-8h-32a8 8 0 0 0 -8 8v32a8 8 0 0 0 8 8h32a8 8 0 0 0 8-8zm-16-8h-16v-16h16z"/><path d="m128 192h-32a8 8 0 0 0 -8 8v32a8 8 0 0 0 8 8h32a8 8 0 0 0 8-8v-32a8 8 0 0 0 -8-8zm-8 32h-16v-16h16z"/></g></g></svg>