<svg width="307" height="262" viewBox="0 0 307 262" fill="none" xmlns="http://www.w3.org/2000/svg">
<g clip-path="url(#clip0)">
<path opacity="0.18" d="M1.30752 197.05C-0.382231 176.68 -1.89868 155.233 6.74506 136.704C11.6012 126.623 17.859 117.28 25.3323 108.953C32.0047 101.573 42.4898 99.6883 51.0036 95.2329C64.796 88.0118 74.0319 74.4579 81.6213 60.8678C89.2108 47.2777 95.9192 32.8427 106.895 21.78C119.07 9.46081 135.924 2.21806 153.147 0.456109C170.369 -1.30584 187.946 2.18917 203.825 9.12142C211.104 12.3059 218.159 16.2703 223.864 21.8089C235.836 33.4421 240.472 50.4116 246.719 65.8936C250.145 74.3863 254.18 82.6205 258.793 90.532C262.887 97.5509 268.974 104.057 272.455 111.293C275.936 118.528 278.051 125.699 282.507 132.617C286.71 139.152 291.36 145.412 295.122 152.229C303.73 167.937 307.262 185.926 305.232 203.723C304.17 212.8 301.527 221.941 295.902 229.141C289.757 237.005 280.622 241.893 271.451 245.829C233.703 261.904 191.769 265.346 151.905 255.642C137.701 252.14 123.742 246.977 109.17 246.009C94.4533 245.042 79.8449 248.421 65.1932 250.096C50.9964 251.721 29.9972 252.003 17.4901 243.8C4.03712 234.968 2.48457 211.276 1.30752 197.05Z" fill="#68E1FD"/>
<path d="M128.45 177.965C128.869 184.644 127.728 191.367 128.349 198.032C128.566 200.199 128.963 202.466 128.241 204.531C127.573 206.303 126.257 207.754 124.558 208.59C120.608 210.611 115.474 209.312 112.39 206.098C109.307 202.885 108.058 198.256 108.31 193.822C108.563 189.388 110.108 185.157 111.957 181.113C113.618 177.502 116.42 170.375 120.529 168.837C125.836 166.902 128.219 174.181 128.45 177.965Z" fill="#3E3E54"/>
<path d="M121.439 165.869C119.785 162.88 115.214 161.63 111.914 163.27C110.935 163.884 109.914 164.429 108.859 164.902C107.617 165.32 106.267 165.212 104.967 165.342C100.786 165.775 97.0814 169.032 96.4532 172.816C96.0993 174.982 96.6481 177.149 96.3015 179.315C95.4855 184.428 89.9035 188.284 89.3403 193.418C89.1598 195.086 89.5353 196.747 89.6797 198.408C89.933 201.527 89.3914 204.66 88.1055 207.514C87.1884 209.557 85.8958 211.507 85.5564 213.68C84.8848 218.013 88.5171 222.173 93.0664 223.501C97.6158 224.83 102.728 223.783 107.039 221.739C111.791 219.486 116.023 215.796 117.452 211.124C119.691 203.838 114.773 196.09 116.983 188.796C117.595 187.102 118.319 185.449 119.149 183.85C121.316 179.113 124.11 170.715 121.439 165.869Z" fill="#3E3E54"/>
<path d="M103.01 193.663C103.061 191.692 102.75 189.331 104.252 188.081C104.379 187.961 104.541 187.882 104.714 187.858C104.884 187.866 105.048 187.918 105.191 188.009C106.833 188.909 108.3 190.095 109.524 191.511C111.026 193.252 112.195 195.36 114.131 196.566C114.911 197.065 115.784 197.397 116.593 197.83C118.265 198.733 119.669 200.061 120.666 201.679C120.812 201.872 120.917 202.092 120.975 202.327C121.033 202.561 121.044 202.805 121.005 203.044C120.825 203.657 120.117 203.925 119.489 204.047C117.681 204.353 115.845 204.45 114.015 204.336C111.521 204.269 109.03 204.168 106.541 204.033C104.936 204.002 103.34 203.791 101.782 203.405C101.118 203.217 99.8977 202.755 99.7316 201.96C99.5656 201.166 100.656 200.357 101.096 199.686C102.272 197.891 102.934 195.808 103.01 193.663V193.663Z" fill="url(#paint0_linear)"/>
<path d="M306.64 229.126H0.144424V240.369H306.64V229.126Z" fill="#382983"/>
<path d="M306.64 229.126H0.144424V235.062H306.64V229.126Z" fill="url(#paint1_linear)"/>
<path d="M129.317 211.868L131.649 231.198C114.859 232.058 98.0328 231.913 81.26 230.765C80.8845 227.292 82.1627 223.869 83.4986 220.656C86.8203 212.655 91.4851 204.091 99.7389 201.469C106.05 199.462 111.589 201.968 117.792 202.589C120.868 202.899 124.24 201.867 126.674 204.314C128.537 206.192 129.006 209.326 129.317 211.868Z" fill="#68E1FD"/>
<path d="M129.317 211.868L131.649 231.198C114.859 232.058 98.0328 231.913 81.26 230.765C80.8845 227.292 82.1627 223.869 83.4986 220.656C86.8203 212.655 91.4851 204.091 99.7389 201.469C106.05 199.462 111.589 201.968 117.792 202.589C120.868 202.899 124.24 201.867 126.674 204.314C128.537 206.192 129.006 209.326 129.317 211.868Z" fill="url(#paint2_linear)"/>
<path d="M55.2202 200.444C57.1844 200.913 59.1991 201.484 60.7805 202.74C61.9988 203.796 63.0164 205.063 63.7845 206.481C67.6457 212.943 70.1059 220.144 71.0057 227.617C71.1326 228.223 71.0825 228.852 70.8612 229.43C70.3197 230.527 68.8321 230.664 67.6045 230.65L10.6296 230.036L4.1955 230.441C5.63973 224.028 9.84245 202.755 18.8906 199.996C22.5165 199.087 26.2082 198.464 29.9317 198.133C33.8071 197.973 37.6883 198.026 41.5578 198.292C46.1617 198.647 50.7302 199.366 55.2202 200.444V200.444Z" fill="#68E1FD"/>
<path d="M55.2202 200.444C57.1844 200.913 59.1991 201.484 60.7805 202.74C61.9988 203.796 63.0164 205.063 63.7845 206.481C67.6457 212.943 70.1059 220.144 71.0057 227.617C71.1326 228.223 71.0825 228.852 70.8612 229.43C70.3197 230.527 68.8321 230.664 67.6045 230.65L10.6296 230.036L4.1955 230.441C5.63973 224.028 9.84245 202.755 18.8906 199.996C22.5165 199.087 26.2082 198.464 29.9317 198.133C33.8071 197.973 37.6883 198.026 41.5578 198.292C46.1617 198.647 50.7302 199.366 55.2202 200.444V200.444Z" fill="url(#paint3_linear)"/>
<path d="M46.3094 198.595C46.3274 199.539 46.2057 200.481 45.9483 201.39C45.154 203.751 42.41 205.123 39.9475 204.762C38.7194 204.528 37.5628 204.011 36.5699 203.251C35.577 202.491 34.7752 201.51 34.2284 200.386C33.1589 198.135 32.6628 195.654 32.7841 193.165C32.7096 192.035 32.9952 190.91 33.6001 189.952C34.0094 189.497 34.5095 189.134 35.068 188.885C35.6265 188.637 36.231 188.508 36.8424 188.507C39.0386 188.373 41.2007 189.098 42.8721 190.529C43.6881 191.251 45.2768 191.844 45.7606 192.623C46.3527 193.699 46.3599 197.281 46.3094 198.595Z" fill="url(#paint4_linear)"/>
<path d="M33.5568 191.223C33.5568 191.223 41.139 203.159 43.8975 199.765C44.7057 198.774 45.2874 197.618 45.6017 196.378C45.9161 195.138 45.9555 193.844 45.7173 192.587L33.5568 191.223Z" fill="url(#paint5_linear)"/>
<path d="M61.1489 199.498L56.6501 202.574C56.3015 202.785 55.9853 203.045 55.7114 203.347C55.3239 203.909 55.0763 204.555 54.9892 205.232C53.5741 212.12 52.9035 219.141 52.989 226.173C52.9472 226.91 53.0578 227.647 53.3139 228.339C53.7256 229.144 54.4049 229.78 55.2348 230.137C56.8884 230.939 58.7876 231.004 60.6217 231.054L67.9078 231.249C68.6381 231.315 69.3741 231.236 70.0742 231.018C71.7567 230.368 72.4138 228.282 72.2838 226.483C72.04 224.59 71.4836 222.75 70.6374 221.039L65.6837 209.427C64.485 206.546 63.4452 201.672 61.1489 199.498Z" fill="#0087D1"/>
<path d="M109.488 225.841C110.947 225.816 112.404 225.983 113.82 226.339C114.525 226.524 115.174 226.876 115.712 227.367C116.25 227.857 116.662 228.471 116.911 229.155C117.452 231.09 116.037 233.134 114.225 233.993C112.412 234.852 110.325 234.823 108.318 234.78L92.1423 234.397C90.26 234.441 88.381 234.219 86.5603 233.74C85.651 233.493 84.8036 233.058 84.0723 232.463C83.3411 231.869 82.7423 231.128 82.3143 230.289C81.1444 227.675 82.5526 224.411 84.9644 222.859C88.6256 220.512 92.525 221.689 96.2078 223.075C100.461 224.69 104.943 225.623 109.488 225.841V225.841Z" fill="#0087D1"/>
<path d="M233.554 230.83C236.768 222.569 243.462 211.008 246.675 202.747C248.177 198.891 249.881 194.804 253.384 192.566C255.745 191.064 258.612 190.659 261.392 190.284L275.221 188.385C278.932 187.886 281.915 189.107 284.933 191.324C287.951 193.54 290.204 196.653 292.154 199.859C296.677 207.271 299.887 215.408 301.643 223.912C302.026 225.79 302.249 228.021 300.885 229.371C299.895 230.36 298.364 230.541 296.963 230.613C276.954 231.747 253.629 229.783 233.554 230.83Z" fill="#68E1FD"/>
<path d="M233.554 230.83C236.768 222.569 243.462 211.008 246.675 202.747C248.177 198.891 249.881 194.804 253.384 192.566C255.745 191.064 258.612 190.659 261.392 190.284L275.221 188.385C278.932 187.886 281.915 189.107 284.933 191.324C287.951 193.54 290.204 196.653 292.154 199.859C296.677 207.271 299.887 215.408 301.643 223.912C302.026 225.79 302.249 228.021 300.885 229.371C299.895 230.36 298.364 230.541 296.963 230.613C276.954 231.747 253.629 229.783 233.554 230.83Z" fill="url(#paint6_linear)"/>
<path d="M271.292 192.811C270.537 193.807 269.499 194.553 268.314 194.949C267.129 195.346 265.851 195.376 264.649 195.035C264.278 194.939 263.932 194.761 263.638 194.515C263.365 194.233 263.151 193.899 263.01 193.533C261.919 191.006 261.869 188.175 261.825 185.424C261.729 184.307 261.882 183.182 262.273 182.131C263.624 179.185 270 176.224 272.051 179.82C273.776 182.853 273.314 190.045 271.292 192.811Z" fill="url(#paint7_linear)"/>
<path d="M65.7704 148.762C65.1917 148.412 64.5113 148.267 63.84 148.352C63.1687 148.438 62.546 148.748 62.0733 149.232C61.1541 150.239 60.6667 151.566 60.7157 152.929C60.6685 153.723 60.8408 154.515 61.214 155.218C61.4065 155.565 61.6879 155.854 62.0294 156.056C62.3708 156.258 62.7598 156.365 63.1564 156.366C63.7575 156.292 64.314 156.011 64.7306 155.572C65.1784 155.097 65.527 154.538 65.7557 153.927C65.9844 153.316 66.0887 152.666 66.0625 152.014C66.0363 151.362 65.88 150.722 65.6029 150.131C65.3258 149.541 64.9335 149.011 64.449 148.575" fill="white"/>
<path d="M77.6132 140.075C76.7395 141.382 76.8911 143.433 78.2631 144.256C78.927 144.611 79.6793 144.767 80.4295 144.704C81.3124 144.674 82.1871 144.524 83.0291 144.256C83.2869 144.14 83.5725 144.1 83.8523 144.141C84.0974 144.246 84.3149 144.407 84.4878 144.61C85.1389 145.167 85.9844 145.441 86.8383 145.374C87.6921 145.307 88.4844 144.904 89.0407 144.253C89.5971 143.602 89.872 142.756 89.8049 141.902C89.7379 141.048 89.3344 140.256 88.6833 139.7C88.5027 139.555 88.2789 139.382 88.3078 139.151C88.3293 139.03 88.3843 138.917 88.4666 138.826C88.8736 138.199 89.0255 137.44 88.8913 136.704C88.757 135.969 88.3468 135.312 87.7445 134.869C85.1449 133.064 84.625 135.627 83.4985 137.035C82.0398 138.877 79.1297 137.837 77.6132 140.075Z" fill="white"/>
<path d="M109.206 126.796C110.267 126.723 111.437 126.435 111.993 125.532C112.259 125.032 112.395 124.473 112.39 123.907C112.439 123.001 112.4 122.091 112.275 121.192C111.849 118.159 107.559 116.686 105.985 119.632C104.411 122.579 105.126 127.085 109.206 126.796Z" fill="white"/>
<path d="M135.931 138.819C135.672 138.617 135.332 138.956 135.209 139.252C134.833 140.146 134.671 141.116 134.737 142.084C134.802 143.052 135.092 143.991 135.585 144.827C135.691 145.025 135.842 145.196 136.025 145.325C136.211 145.427 136.42 145.477 136.632 145.47C137.172 145.43 137.685 145.217 138.094 144.861C138.503 144.506 138.785 144.028 138.899 143.498C138.996 142.966 138.982 142.419 138.858 141.892C138.734 141.365 138.502 140.869 138.177 140.436C137.595 139.564 136.743 138.907 135.751 138.566" fill="white"/>
<path d="M193.296 147.578C193.698 147.567 194.081 147.404 194.367 147.121C194.653 146.838 194.82 146.456 194.834 146.054C195.398 142.863 191.513 137.389 188.155 140.465C184.797 143.541 189.975 148.084 193.296 147.578Z" fill="white"/>
<path d="M225.684 121.033C226.058 120.364 226.182 119.584 226.032 118.832C225.883 118.08 225.47 117.406 224.868 116.932C224.495 116.633 224.039 116.459 223.563 116.431C223.087 116.404 222.614 116.526 222.21 116.78C221.329 117.437 221.271 118.708 221.293 119.806C220.455 119.401 219.401 120.21 219.307 121.134C219.302 121.602 219.41 122.063 219.623 122.48C219.835 122.896 220.146 123.254 220.527 123.524C220.91 123.861 221.357 124.117 221.841 124.276C222.325 124.434 222.836 124.493 223.344 124.449C223.849 124.392 224.323 124.176 224.697 123.832C225.071 123.488 225.326 123.034 225.424 122.535C225.511 121.849 225.236 121.141 225.373 120.463" fill="white"/>
<path d="M237.584 133.143C236.752 132.738 235.806 132.631 234.905 132.84C234.552 132.899 234.227 133.071 233.98 133.331C233.74 133.682 233.628 134.105 233.663 134.53C233.662 135.163 233.742 135.794 233.901 136.407C233.974 136.828 234.179 137.215 234.486 137.512C235.157 138.068 236.161 137.728 236.956 137.367C237.569 137.086 238.263 136.718 238.4 136.053C238.457 135.636 238.381 135.212 238.183 134.84C237.82 133.977 237.354 133.16 236.797 132.407" fill="white"/>
<path d="M255.868 135.67C255.533 136.157 255.374 136.742 255.414 137.331C255.455 137.919 255.694 138.477 256.091 138.913C256.269 139.116 256.493 139.272 256.745 139.368C256.997 139.464 257.269 139.496 257.536 139.462C257.854 139.361 258.137 139.171 258.352 138.915C258.567 138.66 258.705 138.348 258.749 138.017C258.889 137.183 258.711 136.326 258.252 135.615C257.792 134.904 257.083 134.391 256.265 134.176" fill="white"/>
<path d="M141.593 24.2558C138.682 26.3877 136.391 29.2565 134.956 32.5673C134.663 33.3188 134.218 34.002 133.649 34.5747C132.342 35.7157 130.371 35.3474 128.652 35.1308C125.535 34.7288 122.367 35.0433 119.389 36.0502C116.412 37.057 113.703 38.7298 111.469 40.9412C109.236 43.1526 107.536 45.8444 106.499 48.8117C105.462 51.7791 105.116 54.9438 105.487 58.0651C99.385 58.2889 94.7491 64.0586 93.2615 69.9799C92.4541 73.1409 92.3282 76.4374 92.8922 79.6507C93.4562 82.864 94.6971 85.9206 96.5327 88.6176C98.408 91.2806 100.895 93.4542 103.786 94.9559C106.676 96.4575 109.884 97.2432 113.141 97.2469C112.73 101.847 114.817 106.281 117.156 110.245C118.738 112.931 120.5 115.581 122.933 117.553C125.367 119.524 128.53 120.759 131.599 120.217C132.061 127.099 138.401 132.667 145.225 133.627C152.049 134.587 158.989 131.648 164.224 127.164C167.047 129.879 171.481 130.37 175.243 129.28C179.006 128.189 182.219 125.741 185.151 123.149C190.639 124.723 196.344 122.03 201.42 119.416C204.648 117.748 208.027 115.95 209.956 112.873C211.884 109.797 212.042 105.984 211.241 102.504C210.439 99.0233 208.735 95.8171 207.053 92.6615C209.977 90.9573 212.988 89.1737 214.953 86.4152C216.917 83.6567 217.531 79.6346 215.472 76.9555C214.945 76.2695 214.259 75.6557 214.079 74.7892C213.869 73.8288 214.397 72.8828 214.801 71.9946C216.794 67.6619 216.202 62.4699 214.158 58.1662C212.115 53.8624 208.771 50.3168 205.233 47.1251C202.575 44.7349 199.73 42.4674 196.416 41.146C193.101 39.8245 189.195 39.5573 186.017 41.146C185.129 38.3658 184.183 35.4846 182.183 33.3616C180.183 31.2386 176.803 30.0976 174.24 31.5491C175.135 31.0364 169.221 25.2234 168.622 24.7973C166.052 22.9874 163.076 21.839 159.956 21.454C154.706 20.8546 146.07 21.1868 141.593 24.2558Z" fill="white"/>
<path d="M180.71 201.563C177.171 205.362 175.121 210.279 173.135 215.074L167.488 228.794C167.302 229.107 167.189 229.457 167.155 229.819C167.121 230.182 167.168 230.547 167.293 230.888C167.509 231.159 167.781 231.379 168.09 231.535C168.399 231.69 168.738 231.778 169.084 231.791C171.975 232.228 174.886 232.517 177.807 232.658C192.504 233.577 207.216 233.914 221.942 233.669C223.704 233.669 225.553 233.582 227.113 232.788C231.171 230.73 231.496 225.09 230.774 220.598C229.942 215.383 228.473 210.29 226.398 205.434C225.672 203.503 224.606 201.717 223.249 200.162C219.884 196.638 214.534 196.075 209.667 195.938C200.344 195.649 187.685 194.061 180.71 201.563Z" fill="#0087D1"/>
<path d="M169.9 198.422C169.737 197.874 169.406 197.392 168.954 197.043C168.561 196.841 168.124 196.742 167.683 196.754C166.401 196.699 165.116 196.745 163.841 196.891C163.024 196.917 162.239 197.214 161.61 197.736C161.152 198.285 160.87 198.96 160.801 199.671C159.768 205.268 160.953 210.994 161.415 216.663C161.725 220.526 161.762 224.606 163.848 227.899C164.788 229.338 166.074 230.518 167.588 231.332C169.101 232.146 170.795 232.567 172.514 232.556C173.958 232.556 175.619 232.022 176.175 230.686C176.394 230.011 176.456 229.295 176.356 228.592C175.684 218.417 174.218 207.781 169.9 198.422Z" fill="#0087D1"/>
<path d="M169.17 193.439C169.857 191.959 170.781 190.609 171.597 189.193C171.83 188.844 171.981 188.447 172.037 188.031C172.063 187.821 172.023 187.609 171.924 187.423C171.824 187.237 171.67 187.086 171.481 186.991C170.665 186.68 170.037 187.807 169.163 187.98C168.289 188.154 167.719 187.482 167.156 186.912C164.743 184.503 161.889 182.581 158.75 181.25C158.592 181.154 158.415 181.091 158.231 181.066C158.047 181.041 157.86 181.055 157.682 181.106C157.335 181.25 157.241 181.828 157.595 181.958C157.259 181.982 156.924 181.895 156.642 181.712C156.331 181.582 155.883 181.575 155.746 181.878C155.609 182.182 156.013 182.601 155.912 183.005C155.534 183.02 155.157 182.964 154.8 182.839C154.432 182.767 153.948 182.889 153.876 183.265C153.866 183.406 153.88 183.548 153.919 183.684C153.97 184.251 153.97 184.821 153.919 185.388C153.919 186.897 154.836 188.276 155.732 189.468C157.638 192.06 159.732 194.523 161.213 197.411C161.608 198.316 162.123 199.163 162.744 199.931C163.639 200.877 166.946 202.242 167.798 200.581C168.21 199.801 167.871 198.09 168.015 197.173C168.229 195.882 168.617 194.625 169.17 193.439V193.439Z" fill="url(#paint8_linear)"/>
<path d="M213.971 216.381C214.259 217.782 214.303 219.385 213.393 220.497C212.483 221.609 210.793 221.876 209.306 221.941C202.085 222.317 194.676 221.075 187.642 222.721C186.627 222.855 185.69 223.338 184.992 224.086C184.27 225.061 184.364 226.404 184.508 227.617L185.115 232.802L178.06 231.517C177.874 231.51 177.692 231.465 177.525 231.385C177.357 231.306 177.207 231.193 177.084 231.054C176.962 230.915 176.868 230.753 176.81 230.576C176.752 230.4 176.73 230.214 176.746 230.029C176.182 227.328 175.94 224.57 176.023 221.811C176.116 219.051 177.195 216.415 179.064 214.381C180.761 212.706 183.064 211.817 185.353 211.16C190.805 209.608 196.503 209.145 202.15 208.691C204.598 208.496 208.649 207.968 210.764 209.615C212.483 210.944 213.537 214.301 213.971 216.381Z" fill="url(#paint9_linear)"/>
<path d="M280.752 213.377C280.03 214.525 278.376 214.626 276.997 214.626C270.948 214.653 264.92 215.314 259.009 216.598C256.829 216.974 254.727 217.706 252.784 218.764C251.817 219.295 250.968 220.017 250.288 220.886C249.607 221.755 249.111 222.752 248.827 223.819C248.372 225.985 249.304 228.484 251.282 229.458C252.509 229.943 253.832 230.136 255.146 230.022L294.465 229.596C295.365 229.648 296.266 229.518 297.115 229.213C299.065 228.354 299.902 225.913 299.787 223.783C298.444 198.27 285.633 191.006 283.503 191.331C281.799 191.584 281.517 204.748 281.041 206.632C280.499 208.77 282.109 211.29 280.752 213.377Z" fill="#0087D1"/>
<path d="M246.77 224.288C245.17 224.061 243.541 224.149 241.975 224.548C238.809 225.299 235.905 226.89 233.569 229.155C233.295 229.389 233.08 229.683 232.941 230.015C232.859 230.404 232.919 230.81 233.11 231.159C233.3 231.508 233.609 231.779 233.981 231.921C234.733 232.185 235.539 232.26 236.328 232.138L243.715 231.618C244.806 231.604 245.887 231.399 246.907 231.011C248.127 230.47 249.167 229.394 250.517 229.336C250.909 229.371 251.304 229.345 251.687 229.257C252.864 228.816 252.561 226.924 251.889 226.224C250.864 225.155 248.163 224.491 246.77 224.288Z" fill="url(#paint10_linear)"/>
<path d="M55.1698 176.174C55.1698 182.723 52.8518 190.067 46.9232 192.855C42.6627 194.855 37.4129 193.909 33.5568 191.223C29.7007 188.536 27.1083 184.334 25.5196 179.907C23.6927 174.809 23.0789 169.155 24.617 163.963C26.1551 158.771 30.0545 154.149 35.2104 152.503C49.5734 147.946 55.1842 165.349 55.1698 176.174Z" fill="url(#paint11_linear)"/>
<path d="M34.0984 161.977C34.5994 161.85 35.084 161.666 35.5426 161.428C36.3803 160.901 36.8136 159.912 37.579 159.262C38.4275 158.713 39.3866 158.358 40.388 158.222C43.0148 157.601 45.5013 156.492 47.7175 154.951C49.8839 153.442 51.9058 150.907 51.0537 148.452C50.7092 147.577 50.1325 146.813 49.3856 146.242C48.259 145.327 46.9315 144.691 45.512 144.387C44.0924 144.084 42.6211 144.12 41.2185 144.495C37.3768 145.578 34.7194 149.001 31.506 151.34C27.7076 154.092 22.595 155.803 20.8836 160.172C19.9593 162.54 20.2626 165.284 19.1794 167.588C18.6595 168.693 17.8002 169.826 18.1396 171.003C18.4501 172.05 19.6488 172.744 19.6921 173.834C19.6566 174.354 19.5114 174.861 19.2661 175.322C18.3201 177.69 18.8184 180.449 19.9882 182.709C21.281 184.916 22.9 186.915 24.7903 188.637C26.9566 190.804 29.744 193.194 32.7986 192.638C32.979 192.614 33.1517 192.55 33.3041 192.45C33.9251 191.981 33.3041 191.006 32.7625 190.486C30.6916 188.492 29.1567 186.009 28.2998 183.265C28.1664 182.94 28.1387 182.581 28.2203 182.239C28.3425 181.987 28.5507 181.787 28.8075 181.674C29.0643 181.562 29.3529 181.544 29.6213 181.626C30.1546 181.802 30.6376 182.104 31.0294 182.507C31.3242 182.216 31.5114 181.834 31.5599 181.423C31.6085 181.013 31.5156 180.597 31.2966 180.246C30.3361 178.448 28.6969 177.358 27.8521 175.379C27.1025 173.885 26.835 172.194 27.0866 170.541C27.7149 166.721 30.3145 163.168 34.0984 161.977Z" fill="#3E3E54"/>
<path d="M53.8844 186.666C51.9695 186.532 50.073 187.114 48.5624 188.298C47.8836 188.782 47.1759 189.547 47.4287 190.349C47.5895 190.676 47.8448 190.947 48.1615 191.127C48.4783 191.308 48.8418 191.389 49.2051 191.36C49.9299 191.289 50.6614 191.335 51.3714 191.497C50.0584 193.241 49.1976 195.283 48.8657 197.44C48.548 199.541 48.8657 201.997 50.6349 203.217C51.8875 203.955 53.3585 204.234 54.7943 204.004C55.9434 203.94 57.0691 203.653 58.1088 203.159C59.2156 202.524 60.1249 201.595 60.7354 200.474C61.346 199.354 61.6341 198.086 61.5677 196.812C61.4811 194.349 60.2462 192.255 58.6359 190.472C57.2134 188.905 56.2168 186.94 53.8844 186.666Z" fill="url(#paint12_linear)"/>
<path d="M190.444 176.506C189.601 178.075 188.991 179.758 188.631 181.503C188.411 183.076 188.569 184.679 189.093 186.179C189.616 187.678 190.491 189.031 191.643 190.125C193.325 191.721 195.636 192.898 196.365 195.1C197.03 197.115 196.134 199.433 196.993 201.397C197.853 203.361 200.2 204.17 202.222 203.744C204.233 203.203 205.96 201.911 207.045 200.133C208.097 198.352 208.98 196.476 209.681 194.53C210.743 191.987 211.981 189.521 213.386 187.15C214.433 185.534 215.363 183.845 216.166 182.095C216.983 180.012 217.409 177.797 217.422 175.56C217.523 170.39 215.639 164.938 211.472 161.876C209.559 160.499 207.257 159.768 204.9 159.789C202.543 159.81 200.254 160.581 198.365 161.991C196.437 163.436 195.78 165.364 194.755 167.501C193.315 170.486 191.878 173.487 190.444 176.506Z" fill="url(#paint13_linear)"/>
<path d="M199.492 150.17C198.77 149.499 197.788 148.726 196.965 149.246C196.663 149.466 196.436 149.774 196.315 150.127C195.789 151.4 195.715 152.814 196.106 154.135C195.298 153.738 194.373 153.651 193.506 153.889C192.199 154.445 191.997 156.258 192.416 157.615C192.834 158.973 193.643 160.244 193.65 161.659C193.65 162.381 193.434 163.104 193.419 163.869C193.384 164.239 193.455 164.611 193.624 164.943C193.793 165.274 194.052 165.55 194.372 165.739C195.261 166.136 196.214 165.436 197.023 164.887C201.312 161.999 207.854 163.335 210.678 167.689C213.501 172.043 212.44 177.654 211.321 182.673C211.602 183.106 212.136 182.449 212.476 182.059C213.198 181.229 214.758 181.907 214.974 182.99C215.027 183.541 214.925 184.096 214.68 184.592C214.435 185.088 214.057 185.506 213.588 185.799C212.693 186.449 211.624 186.818 210.699 187.41C210.572 187.472 210.459 187.559 210.366 187.666C210.273 187.772 210.202 187.896 210.158 188.031C210.132 188.268 210.18 188.508 210.295 188.717C210.593 189.398 210.931 190.061 211.306 190.703C211.428 190.978 211.606 191.225 211.828 191.427C212.051 191.63 212.313 191.784 212.599 191.88C213.019 191.914 213.44 191.819 213.805 191.605C216.758 190.161 218.766 187.338 220.419 184.492C222.073 181.647 223.394 178.246 221.784 175.502C221.466 174.961 221.062 174.484 220.751 173.935C220.297 172.882 220.028 171.758 219.957 170.613C219.138 165.376 216.573 160.569 212.678 156.973C210.837 155.269 208.88 153.781 206.388 153.362C203.565 152.907 201.622 152.279 199.492 150.17Z" fill="#B7A451"/>
<path d="M253.594 174.6C253.377 177.279 253.839 180.376 256.056 181.864C257.652 182.947 259.731 182.911 261.667 182.832C264.382 182.723 267.191 182.586 269.61 181.387C273.314 179.582 275.524 175.719 277.207 171.949C278.485 169.379 279.309 166.606 279.64 163.753C279.857 160.865 279.142 157.861 277.178 155.767C275.923 154.503 274.371 153.575 272.665 153.066C260.656 149.116 254.323 165.277 253.594 174.6Z" fill="url(#paint14_linear)"/>
<path d="M261.536 149.022C261.581 148.051 261.853 147.103 262.331 146.257C262.922 145.415 263.783 144.8 264.772 144.516C267.79 143.563 270.989 144.986 273.827 146.379L281.193 149.99C282.576 150.442 283.833 151.215 284.861 152.245C285.888 153.276 286.658 154.534 287.107 155.918C287.547 156.819 287.838 157.784 287.967 158.778C287.988 160.112 287.667 161.43 287.035 162.605C286.64 163.644 285.965 164.554 285.085 165.234C285.844 165.58 286.06 166.57 285.966 167.4C285.754 168.863 285.075 170.217 284.031 171.263C282.989 172.3 281.839 173.222 280.601 174.015L278.218 175.661C277.799 175.95 277.272 176.253 276.774 176.044C276.601 175.948 276.46 175.804 276.366 175.63C276.273 175.456 276.231 175.259 276.246 175.062C276.283 174.668 276.388 174.285 276.557 173.928C277.794 170.803 278.346 167.449 278.174 164.093C278.177 163.511 278.064 162.934 277.842 162.396C277.584 161.94 277.255 161.528 276.867 161.175L273.43 157.731C272.577 156.795 271.606 155.975 270.542 155.29C269.531 154.712 268.401 154.378 267.239 154.312C266.077 154.247 264.916 154.453 263.847 154.915C263.371 155.124 262.519 155.68 261.977 155.536C261.255 155.341 261.45 154.655 261.406 153.947C261.307 152.305 261.351 150.657 261.536 149.022V149.022Z" fill="#3E3E54"/>
<path d="M279.922 173.509C279.978 173.955 279.943 174.408 279.818 174.84C279.694 175.272 279.484 175.674 279.2 176.022C278.613 176.806 277.828 177.42 276.925 177.799C276.519 178.012 276.048 178.066 275.604 177.95C275.304 177.795 275.055 177.558 274.884 177.267C274.714 176.975 274.631 176.641 274.644 176.304C274.623 175.545 274.789 174.793 275.128 174.114C275.466 173.435 275.967 172.851 276.586 172.412C277.813 171.61 279.619 171.819 279.922 173.509Z" fill="url(#paint15_linear)"/>
<path d="M253.333 169.559C254.026 169.342 254.74 169.199 255.464 169.133C255.943 169.069 256.429 169.069 256.908 169.133C257.507 169.269 258.086 169.477 258.634 169.754C260.078 170.419 261.645 171.198 262.346 172.643C262.53 173.136 262.742 173.618 262.981 174.087C263.602 174.848 264.445 175.396 265.393 175.654C266.166 175.95 266.252 176.99 266.902 177.495C267.682 178.102 268.816 177.856 269.69 177.416C270.673 176.931 271.542 176.241 272.239 175.394C272.66 174.751 273.196 174.19 273.82 173.74C274.141 173.533 274.531 173.462 274.905 173.542C275.278 173.622 275.605 173.846 275.813 174.166C275.882 174.424 275.895 174.694 275.853 174.958C275.81 175.221 275.713 175.473 275.568 175.697C274.512 177.837 273.076 179.768 271.329 181.395C270.759 181.96 270.115 182.446 269.415 182.839C268.348 183.331 267.206 183.638 266.036 183.749C263.705 184.081 261.356 184.262 259.002 184.29C257.64 184.379 256.274 184.19 254.987 183.734C254.593 183.572 254.227 183.348 253.904 183.07C253.127 182.251 252.623 181.212 252.46 180.095C251.586 176.297 252.077 173.177 253.333 169.559Z" fill="#3E3E54"/>
<path d="M260.814 177.604C260.863 178.052 260.775 178.506 260.561 178.903C260.092 179.625 259.073 179.734 258.214 179.625C257.418 179.516 256.646 179.272 255.932 178.903C255.652 178.77 255.405 178.575 255.21 178.333C254.95 177.899 254.839 177.392 254.893 176.889C254.901 176.181 254.949 175.475 255.037 174.773C255.082 174.249 255.209 173.734 255.413 173.249C255.745 172.527 256.294 171.993 257.073 172.31C257.771 172.607 258.406 173.033 258.943 173.567C260.042 174.637 260.707 176.074 260.814 177.604Z" fill="url(#paint16_linear)"/>
<path d="M124.767 200.834C125.344 198.897 126.229 197.066 127.389 195.411L131.201 189.309C131.301 189.099 131.469 188.928 131.678 188.825C131.804 188.801 131.933 188.804 132.058 188.834C132.182 188.864 132.299 188.92 132.4 188.998C134.176 190.103 134.61 192.515 134.393 194.595C134.176 196.675 133.483 198.733 133.671 200.812C133.903 201.936 134.072 203.071 134.176 204.214C134.139 205.061 133.92 205.891 133.536 206.647C133.151 207.403 132.608 208.068 131.945 208.597C130.32 209.962 126.659 211.832 125.287 209.377C124.139 207.261 124.262 203.058 124.767 200.834Z" fill="url(#paint17_linear)"/>
<path d="M128.804 207.159C126.934 207.665 124.977 208.568 124.175 210.329C123.842 211.206 123.673 212.136 123.677 213.073C123.403 217.964 123.297 222.86 123.359 227.761C123.27 228.756 123.503 229.753 124.024 230.606C124.746 231.537 126.053 231.769 127.237 231.805C129.463 231.87 131.678 231.464 133.736 230.613C134.391 230.418 134.952 229.992 135.317 229.414C135.514 228.92 135.578 228.382 135.505 227.855C135.252 222.995 134.119 218.092 134.061 213.254C133.989 209.831 133.44 205.903 128.804 207.159Z" fill="#0087D1"/>
<path d="M115.64 228.889C115.355 228.886 115.076 228.961 114.831 229.105C114.576 229.359 114.417 229.693 114.383 230.051C114.123 231.38 113.993 232.99 115.04 233.842C115.567 234.202 116.175 234.428 116.81 234.499C118.34 234.787 119.879 235.055 121.41 235.315C121.903 235.441 122.422 235.421 122.904 235.257C123.26 235.037 123.603 234.796 123.93 234.535C124.536 234.26 125.213 234.184 125.865 234.318C127.526 234.484 129.187 234.715 130.833 235.04C131.388 235.178 131.963 235.212 132.53 235.141C132.813 235.101 133.078 234.982 133.297 234.798C133.515 234.615 133.677 234.373 133.765 234.102C133.967 233.271 133.187 232.542 132.465 232.073C127.324 228.672 121.561 228.484 115.64 228.889Z" fill="url(#paint18_linear)"/>
<path d="M109.863 205.759C110.982 207.023 114.752 208.192 116.254 207.42C117.25 206.907 117.337 204.141 117.785 203.087C118.129 202.26 118.393 201.401 118.572 200.524C118.927 199.312 119.001 198.035 118.788 196.79C118.673 196.17 118.385 195.596 117.957 195.133C117.529 194.671 116.978 194.339 116.369 194.176C115.185 193.959 107.993 193.151 108.679 194.14C111.516 198.263 107.184 202.748 109.863 205.759Z" fill="url(#paint19_linear)"/>
<path d="M112.181 201.318C112.506 202.304 112.95 203.247 113.502 204.127C113.784 204.565 114.157 204.937 114.596 205.217C115.034 205.498 115.528 205.68 116.044 205.751C116.29 205.776 116.539 205.739 116.766 205.643C117.416 205.34 117.59 204.517 117.683 203.809L118.196 199.982C118.258 199.694 118.243 199.395 118.153 199.115C118.026 198.879 117.839 198.68 117.611 198.538C117.065 198.128 116.496 197.75 115.907 197.404C114.687 196.682 113.091 195.887 111.618 196.169C111.375 196.203 111.146 196.303 110.956 196.459C110.766 196.614 110.623 196.819 110.542 197.05C110.361 197.678 110.852 198.321 111.105 198.855C111.495 199.642 111.849 200.473 112.181 201.318Z" fill="url(#paint20_linear)"/>
<path d="M125.483 178.622C125.483 178.622 128.956 192.667 125.013 197.556C121.07 202.444 114.752 202.293 112.232 199.607C109.711 196.92 100.338 185.164 103.812 178.095C107.285 171.025 120.854 162.526 125.483 178.622Z" fill="url(#paint21_linear)"/>
<path d="M111.011 174.665C110.744 176.297 110.968 178.015 110.39 179.56C109.379 182.247 106.231 183.648 105.191 186.319C104.938 186.969 104.823 187.67 104.519 188.298C104.395 188.624 104.188 188.913 103.92 189.137C103.652 189.36 103.332 189.512 102.988 189.576C102.642 189.582 102.302 189.49 102.005 189.312C101.709 189.133 101.469 188.874 101.313 188.565C101.006 187.944 100.836 187.265 100.815 186.572C100.367 181.951 100.901 177.033 103.479 173.177C104.467 171.67 105.785 170.407 107.332 169.484C108.88 168.561 110.617 168.001 112.412 167.848C114.578 167.732 115.3 168.187 113.784 169.79C112.426 171.22 111.343 172.621 111.011 174.665Z" fill="#3E3E54"/>
<path d="M104.765 191.208C104.594 191.216 104.429 191.271 104.288 191.367C104.201 191.446 104.129 191.542 104.079 191.649C103.791 192.088 103.658 192.612 103.703 193.136C103.819 193.53 104.043 193.883 104.351 194.154C104.66 194.425 105.038 194.603 105.444 194.667C106.319 194.896 107.242 194.879 108.108 194.617C108.193 194.598 108.271 194.555 108.332 194.494C108.374 194.419 108.397 194.334 108.397 194.248C108.397 194.162 108.374 194.078 108.332 194.003C108 193.229 107.544 192.514 106.982 191.887C106.704 191.59 106.353 191.371 105.964 191.252C105.575 191.132 105.161 191.117 104.765 191.208Z" fill="url(#paint22_linear)"/>
<path d="M169.647 230.751C169.257 231.227 168.925 231.957 169.344 232.383C169.49 232.491 169.658 232.568 169.836 232.607C170.013 232.647 170.198 232.649 170.376 232.614L183.331 231.848C183.546 231.847 183.758 231.808 183.959 231.733C184.602 231.444 184.681 230.563 184.602 229.855C184.53 228.736 184.458 227.624 184.378 226.512C184.299 225.4 184.552 224.93 183.382 224.772C181.764 224.548 179.728 225.075 178.182 225.494C174.866 226.33 171.887 228.165 169.647 230.751V230.751Z" fill="url(#paint23_linear)"/>
<path d="M157 103C170.807 103 182 91.8071 182 78C182 64.1929 170.807 53 157 53C143.193 53 132 64.1929 132 78C132 91.8071 143.193 103 157 103Z" fill="#FFD93B"/>
<path d="M182 78C182 91.8125 170.805 103 157 103C149.141 103 142.125 99.375 137.539 93.6953C141.828 97.1641 147.289 99.2344 153.234 99.2344C167.039 99.2344 178.234 88.0469 178.234 74.2344C178.234 68.2891 176.164 62.8281 172.695 58.5391C178.367 63.125 182 70.1406 182 78Z" fill="#F4C534"/>
<path d="M164.869 92.4687C166.087 92.7844 167.294 91.8672 167.245 90.6094C167.039 85.2469 162.616 80.7703 157 80.7703C151.373 80.7703 146.952 85.2594 146.755 90.6265C146.709 91.8781 147.905 92.7984 149.117 92.4875C154.502 91.1125 159.748 91.1406 164.869 92.4687Z" fill="#3E4347"/>
<path d="M162.75 92C162.806 91.7406 162.841 91.4734 162.841 91.1953C162.841 89.1031 161.147 87.4094 159.063 87.4094C158.028 87.4094 157.1 87.8156 156.427 88.4813C155.967 88.2891 155.469 88.1828 154.939 88.1828C152.855 88.1828 151.161 89.8766 151.161 91.9609C151.161 91.9844 151.167 92.0063 151.169 92.0297C155.1 91.2828 158.959 91.2875 162.75 92Z" fill="#E24B4B"/>
<path d="M175.939 87.1797C175.939 85.3984 172.714 79.9234 172.714 79.9234C172.714 79.9234 169.489 85.3984 169.489 87.1797C169.489 88.9609 170.933 90.4047 172.714 90.4047C174.495 90.4047 175.939 88.9609 175.939 87.1797Z" fill="#65B1EF"/>
<path d="M173.058 79.4953L170.266 76.45C167.055 72.9594 161.28 72.8578 161.216 72.8578L159.63 72.8453L160.797 71.7656C162.281 70.3703 163.856 69.8234 165.442 70.1406C168.958 70.8266 171.217 75.5469 171.306 75.75L173.058 79.4953Z" fill="#3E4347"/>
<path d="M158.956 57.5984C165.359 64.8 167.314 65.1562 169.519 67.1297C167.387 67.1266 164.653 66.1625 162.534 64.25C159.92 61.7875 158.933 59.1984 158.956 57.5984Z" fill="#3E4347"/>
<path d="M140.777 79.4953L143.569 76.45C146.78 72.9594 152.555 72.8578 152.619 72.8578L154.205 72.8453L153.037 71.7656C151.553 70.3703 149.978 69.8234 148.392 70.1406C144.877 70.8266 142.617 75.5469 142.528 75.75L140.777 79.4953Z" fill="#3E4347"/>
<path d="M154.878 57.5984C148.475 64.8 146.52 65.1562 144.316 67.1297C146.447 67.1266 149.181 66.1625 151.3 64.25C153.916 61.7875 154.902 59.1984 154.878 57.5984Z" fill="#3E4347"/>
<g opacity="0.2">
<path opacity="0.2" d="M174.455 88.6188C174.003 89.1563 173.345 89.3766 173.02 89.0813C172.68 88.8016 172.786 88.1297 173.252 87.5906C173.705 87.0391 174.347 86.8328 174.686 87.1281C175.027 87.4094 174.92 88.0813 174.455 88.6188Z" fill="white"/>
</g>
</g>
<defs>
<linearGradient id="paint0_linear" x1="107.993" y1="211.016" x2="115.019" y2="185.532" gradientUnits="userSpaceOnUse">
<stop stop-opacity="0"/>
<stop offset="0.99"/>
</linearGradient>
<linearGradient id="paint1_linear" x1="61.4435" y1="2136.98" x2="130150" y2="2136.98" gradientUnits="userSpaceOnUse">
<stop stop-color="#382983"/>
<stop offset="0.99"/>
</linearGradient>
<linearGradient id="paint2_linear" x1="103.097" y1="213.658" x2="118.246" y2="260.79" gradientUnits="userSpaceOnUse">
<stop stop-color="#0087D1"/>
<stop offset="0.8"/>
</linearGradient>
<linearGradient id="paint3_linear" x1="4231.6" y1="9882.24" x2="4603.64" y2="12355.1" gradientUnits="userSpaceOnUse">
<stop stop-color="#0087D1"/>
<stop offset="0.8"/>
</linearGradient>
<linearGradient id="paint4_linear" x1="32.7697" y1="196.638" x2="46.3311" y2="196.638" gradientUnits="userSpaceOnUse">
<stop stop-color="#E5C5D5"/>
<stop offset="0.42" stop-color="#EAD4D1"/>
<stop offset="1" stop-color="#F0E9CB"/>
</linearGradient>
<linearGradient id="paint5_linear" x1="925.949" y1="2850.59" x2="949.009" y2="2498.47" gradientUnits="userSpaceOnUse">
<stop stop-opacity="0"/>
<stop offset="0.99"/>
</linearGradient>
<linearGradient id="paint6_linear" x1="27494.8" y1="12730.2" x2="26923.2" y2="15854.8" gradientUnits="userSpaceOnUse">
<stop stop-color="#0087D1"/>
<stop offset="0.99"/>
</linearGradient>
<linearGradient id="paint7_linear" x1="261.825" y1="186.724" x2="273.112" y2="186.724" gradientUnits="userSpaceOnUse">
<stop stop-color="#867580"/>
<stop offset="0.57" stop-color="#9B8F8E"/>
</linearGradient>
<linearGradient id="paint8_linear" x1="4369.83" y1="5703.02" x2="4827.22" y2="5703.02" gradientUnits="userSpaceOnUse">
<stop stop-color="#E5C5D5"/>
<stop offset="0.42" stop-color="#EAD4D1"/>
<stop offset="1" stop-color="#F0E9CB"/>
</linearGradient>
<linearGradient id="paint9_linear" x1="10975.5" y1="7321.38" x2="11338.2" y2="9482.78" gradientUnits="userSpaceOnUse">
<stop stop-color="#0087D1"/>
<stop offset="0.99"/>
</linearGradient>
<linearGradient id="paint10_linear" x1="6916.79" y1="2818.5" x2="7447.51" y2="2818.5" gradientUnits="userSpaceOnUse">
<stop stop-color="#867580"/>
<stop offset="0.57" stop-color="#9B8F8E"/>
</linearGradient>
<linearGradient id="paint11_linear" x1="1651.62" y1="10544.8" x2="3019.29" y2="10544.8" gradientUnits="userSpaceOnUse">
<stop stop-color="#E5C5D5"/>
<stop offset="0.42" stop-color="#EAD4D1"/>
<stop offset="1" stop-color="#F0E9CB"/>
</linearGradient>
<linearGradient id="paint12_linear" x1="1247.77" y1="5027.43" x2="1526.96" y2="5027.43" gradientUnits="userSpaceOnUse">
<stop stop-color="#E5C5D5"/>
<stop offset="0.42" stop-color="#EAD4D1"/>
<stop offset="1" stop-color="#F0E9CB"/>
</linearGradient>
<linearGradient id="paint13_linear" x1="8277.56" y1="11567.1" x2="9434.37" y2="11567.1" gradientUnits="userSpaceOnUse">
<stop stop-color="#E5C5D5"/>
<stop offset="0.42" stop-color="#EAD4D1"/>
<stop offset="1" stop-color="#F0E9CB"/>
</linearGradient>
<linearGradient id="paint14_linear" x1="9923.17" y1="7429.72" x2="10869.9" y2="7429.72" gradientUnits="userSpaceOnUse">
<stop stop-color="#867580"/>
<stop offset="0.57" stop-color="#9B8F8E"/>
</linearGradient>
<linearGradient id="paint15_linear" x1="2392.65" y1="1680.91" x2="2431.97" y2="1680.91" gradientUnits="userSpaceOnUse">
<stop stop-color="#867580"/>
<stop offset="0.57" stop-color="#9B8F8E"/>
</linearGradient>
<linearGradient id="paint16_linear" x1="2466.65" y1="2038.87" x2="2515.6" y2="2038.87" gradientUnits="userSpaceOnUse">
<stop stop-color="#867580"/>
<stop offset="0.57" stop-color="#9B8F8E"/>
</linearGradient>
<linearGradient id="paint17_linear" x1="2044.95" y1="6361.92" x2="2184.99" y2="6361.92" gradientUnits="userSpaceOnUse">
<stop stop-color="#E5C5D5"/>
<stop offset="0.42" stop-color="#EAD4D1"/>
<stop offset="1" stop-color="#F0E9CB"/>
</linearGradient>
<linearGradient id="paint18_linear" x1="3584.24" y1="2416.81" x2="4116.1" y2="2416.81" gradientUnits="userSpaceOnUse">
<stop stop-color="#E5C5D5"/>
<stop offset="0.42" stop-color="#EAD4D1"/>
<stop offset="1" stop-color="#F0E9CB"/>
</linearGradient>
<linearGradient id="paint19_linear" x1="1848.76" y1="4186.28" x2="1995.17" y2="4186.28" gradientUnits="userSpaceOnUse">
<stop stop-color="#E5C5D5"/>
<stop offset="0.42" stop-color="#EAD4D1"/>
<stop offset="1" stop-color="#F0E9CB"/>
</linearGradient>
<linearGradient id="paint20_linear" x1="1438.68" y1="3023.95" x2="1604.72" y2="2818.41" gradientUnits="userSpaceOnUse">
<stop stop-opacity="0"/>
<stop offset="0.99"/>
</linearGradient>
<linearGradient id="paint21_linear" x1="3957.47" y1="8625.04" x2="4744.91" y2="8625.04" gradientUnits="userSpaceOnUse">
<stop stop-color="#E5C5D5"/>
<stop offset="0.42" stop-color="#EAD4D1"/>
<stop offset="1" stop-color="#F0E9CB"/>
</linearGradient>
<linearGradient id="paint22_linear" x1="867.826" y1="1200.19" x2="898.483" y2="1200.19" gradientUnits="userSpaceOnUse">
<stop stop-color="#E5C5D5"/>
<stop offset="0.42" stop-color="#EAD4D1"/>
<stop offset="1" stop-color="#F0E9CB"/>
</linearGradient>
<linearGradient id="paint23_linear" x1="4087.38" y1="2789.35" x2="4419.07" y2="2789.35" gradientUnits="userSpaceOnUse">
<stop stop-color="#E5C5D5"/>
<stop offset="0.42" stop-color="#EAD4D1"/>
<stop offset="1" stop-color="#F0E9CB"/>
</linearGradient>
<clipPath id="clip0">
<rect width="306.64" height="261.051" fill="white"/>
</clipPath>
</defs>
</svg>
