<svg width="80" height="80" viewBox="0 0 80 80" fill="none" xmlns="http://www.w3.org/2000/svg">
<g clip-path="url(#clip0)">
<path d="M69.6808 1.59845H17.3542C20.8486 3.63751 23.1986 7.42408 23.1986 11.7617C23.1986 16.0994 20.8487 19.886 17.3543 21.925H69.6809C75.2939 21.925 79.8442 17.3747 79.8442 11.7617C79.844 6.14876 75.2939 1.59845 69.6808 1.59845Z" fill="#256EBC"/>
<path d="M32.899 11.7617C32.899 7.42408 30.5492 3.63751 27.0547 1.59845H17.3542C20.8487 3.63751 23.1986 7.42408 23.1986 11.7617C23.1986 16.0994 20.8487 19.886 17.3543 21.925H27.0548C30.5492 19.8861 32.899 16.0995 32.899 11.7617Z" fill="#5A98DA"/>
<path d="M10.3192 29.8367H62.6458C59.1514 31.8757 56.8015 35.6623 56.8015 39.9999C56.8015 44.3376 59.1514 48.1241 62.6458 50.1632H10.3192C4.70622 50.1632 0.155907 45.6129 0.155907 39.9999C0.155907 34.387 4.70606 29.8367 10.3192 29.8367Z" fill="#6A3AB8"/>
<path d="M9.85638 40C9.85638 34.3869 14.4067 29.8366 20.0197 29.8366H10.3192C4.70622 29.8366 0.155907 34.3869 0.155907 39.9999C0.155907 45.6128 4.70622 50.1631 10.3192 50.1631H20.0197C14.4067 50.1633 9.85638 45.6132 9.85638 40Z" fill="#541FAB"/>
<path d="M69.6808 58.0748H17.3542C20.8486 60.1139 23.1984 63.9005 23.1984 68.2381C23.1984 72.5758 20.8486 76.3623 17.354 78.4014H69.6806C75.2936 78.4014 79.8439 73.8511 79.8439 68.2381C79.844 62.6251 75.2939 58.0748 69.6808 58.0748Z" fill="#FF656F"/>
<path d="M32.899 68.2383C32.899 63.9006 30.5492 60.1141 27.0548 58.075H17.3543C20.8487 60.1141 23.1986 63.9006 23.1986 68.2383C23.1986 72.576 20.8487 76.3625 17.3542 78.4016H27.0547C30.5492 76.3625 32.899 72.5758 32.899 68.2383Z" fill="#FF4756"/>
<path d="M11.9176 23.5238C18.4135 23.5238 23.6795 18.2578 23.6795 11.7619C23.6795 5.26597 18.4135 0 11.9176 0C5.42173 0 0.155762 5.26597 0.155762 11.7619C0.155762 18.2578 5.42173 23.5238 11.9176 23.5238Z" fill="#DFEBFA"/>
<path d="M68.0823 51.7618C74.5782 51.7618 79.8442 46.4959 79.8442 40C79.8442 33.5041 74.5782 28.2381 68.0823 28.2381C61.5864 28.2381 56.3204 33.5041 56.3204 40C56.3204 46.4959 61.5864 51.7618 68.0823 51.7618Z" fill="#DFEBFA"/>
<path d="M11.9176 80C18.4135 80 23.6795 74.734 23.6795 68.2381C23.6795 61.7422 18.4135 56.4763 11.9176 56.4763C5.42173 56.4763 0.155762 61.7422 0.155762 68.2381C0.155762 74.734 5.42173 80 11.9176 80Z" fill="#DFEBFA"/>
<path d="M6.35645 11.7619C6.35645 6.33938 10.0271 1.77656 15.0183 0.415937C14.0305 0.146562 12.9919 0 11.9185 0C5.4227 0 0.156761 5.26594 0.156761 11.7619C0.156761 18.2578 5.4227 23.5238 11.9186 23.5238C12.9919 23.5238 14.0305 23.3772 15.0185 23.108C10.0272 21.7472 6.35645 17.1844 6.35645 11.7619Z" fill="#B1DBFC"/>
<path d="M62.5203 40C62.5203 34.5775 66.1909 30.0147 71.1822 28.6541C70.1942 28.3847 69.1556 28.2383 68.0823 28.2383C61.5864 28.2383 56.3204 33.5042 56.3204 40.0002C56.3204 46.4961 61.5864 51.762 68.0823 51.762C69.1556 51.762 70.1942 51.6155 71.1822 51.3462C66.1909 49.9853 62.5203 45.4225 62.5203 40Z" fill="#B1DBFC"/>
<path d="M6.35561 68.2381C6.35561 62.8156 10.0262 58.2528 15.0175 56.8922C14.0295 56.6228 12.9909 56.4764 11.9176 56.4764C5.4217 56.4764 0.155762 61.7423 0.155762 68.2383C0.155762 74.7342 5.42186 80 11.9176 80C12.9909 80 14.0295 79.8534 15.0175 79.5842C10.0264 78.2234 6.35561 73.6608 6.35561 68.2381Z" fill="#B1DBFC"/>
<path d="M45.0712 64.7822H30.4043C29.7403 64.7822 29.2018 64.2438 29.2018 63.5797C29.2018 62.9156 29.7403 62.3772 30.4043 62.3772H45.0712C45.7353 62.3772 46.2737 62.9156 46.2737 63.5797C46.2737 64.2438 45.7354 64.7822 45.0712 64.7822Z" fill="#FC2D39"/>
<path d="M62.1646 69.5025H30.4043C29.7403 69.5025 29.2018 68.9641 29.2018 68.3C29.2018 67.6359 29.7403 67.0975 30.4043 67.0975H62.1648C62.8289 67.0975 63.3673 67.6359 63.3673 68.3C63.3673 68.9641 62.8289 69.5025 62.1646 69.5025Z" fill="#FC2D39"/>
<path d="M62.1646 74.2227H30.4043C29.7403 74.2227 29.2018 73.6843 29.2018 73.0202C29.2018 72.3562 29.7403 71.8177 30.4043 71.8177H62.1648C62.8289 71.8177 63.3673 72.3562 63.3673 73.0202C63.3673 73.6843 62.8289 74.2227 62.1646 74.2227Z" fill="#FC2D39"/>
<path d="M45.0712 8.18234H30.4043C29.7403 8.18234 29.2018 7.64391 29.2018 6.97984C29.2018 6.31578 29.7403 5.77734 30.4043 5.77734H45.0712C45.7353 5.77734 46.2737 6.31578 46.2737 6.97984C46.2737 7.64391 45.7354 8.18234 45.0712 8.18234Z" fill="#4D96E3"/>
<path d="M62.1646 12.9027H30.4043C29.7403 12.9027 29.2018 12.3642 29.2018 11.7002C29.2018 11.0361 29.7403 10.4977 30.4043 10.4977H62.1648C62.8289 10.4977 63.3673 11.0361 63.3673 11.7002C63.3673 12.3642 62.8289 12.9027 62.1646 12.9027Z" fill="#5A98DA"/>
<path d="M62.1646 17.6228H30.4043C29.7403 17.6228 29.2018 17.0844 29.2018 16.4203C29.2018 15.7562 29.7403 15.2178 30.4043 15.2178H62.1648C62.8289 15.2178 63.3673 15.7562 63.3673 16.4203C63.3673 17.0844 62.8289 17.6228 62.1646 17.6228Z" fill="#4D96E3"/>
<path d="M29.947 36.4823H15.2801C14.6161 36.4823 14.0776 35.9439 14.0776 35.2798C14.0776 34.6158 14.6161 34.0773 15.2801 34.0773H29.947C30.6111 34.0773 31.1495 34.6158 31.1495 35.2798C31.1495 35.9439 30.6112 36.4823 29.947 36.4823Z" fill="#894BEF"/>
<path d="M47.0404 41.2025H15.2801C14.6161 41.2025 14.0776 40.664 14.0776 40C14.0776 39.3359 14.6161 38.7975 15.2801 38.7975H47.0406C47.7046 38.7975 48.2431 39.3359 48.2431 40C48.2431 40.664 47.7046 41.2025 47.0404 41.2025Z" fill="#894BEF"/>
<path d="M47.0404 45.9228H15.2801C14.6161 45.9228 14.0776 45.3844 14.0776 44.7203C14.0776 44.0563 14.6161 43.5178 15.2801 43.5178H47.0406C47.7046 43.5178 48.2431 44.0563 48.2431 44.7203C48.2431 45.3844 47.7046 45.9228 47.0404 45.9228Z" fill="#894BEF"/>
<path d="M12.0493 17.5831C11.3853 17.5831 10.8468 17.0447 10.8468 16.3806V9.04408C10.2909 9.21158 9.67997 8.95517 9.41903 8.4158C9.12981 7.81798 9.37981 7.09892 9.97778 6.80955L11.5258 6.06048C11.8984 5.88002 12.3376 5.90408 12.6884 6.12408C13.0392 6.34392 13.2522 6.72892 13.2522 7.14283V16.3803C13.2518 17.0447 12.7134 17.5831 12.0493 17.5831Z" fill="#5A98DA"/>
<path d="M70.9028 45.8611H65.2617C64.7814 45.8611 64.3472 45.5753 64.1572 45.1342C63.9672 44.6931 64.058 44.1812 64.3881 43.8322L68.7456 39.2253C69.1277 38.7966 69.3167 38.3006 69.2781 37.8275C69.2453 37.4231 69.0522 37.0686 68.72 36.8025C68.3547 36.51 67.9369 36.5183 67.6505 36.5769C67.0992 36.6898 66.5902 37.0712 66.322 37.5723C66.0086 38.1578 65.2798 38.3784 64.6942 38.0651C64.1087 37.7517 63.8881 37.023 64.2014 36.4373C64.8072 35.3056 65.9161 34.4769 67.168 34.2206C68.2855 33.9919 69.3706 34.2422 70.2238 34.9255C71.073 35.6061 71.5885 36.5673 71.6752 37.6325C71.7681 38.7758 71.3594 39.9166 70.5239 40.8445C70.5172 40.8519 70.5106 40.8591 70.5038 40.8662L68.0541 43.4561H70.9025C71.5666 43.4561 72.105 43.9945 72.105 44.6586C72.1053 45.3226 71.567 45.8611 70.9028 45.8611Z" fill="#894BEF"/>
<path d="M16.3394 65.9089C16.3394 63.9616 14.755 62.3772 12.8075 62.3772H10.4012C9.73717 62.3772 9.19873 62.9156 9.19873 63.5797C9.19873 64.2438 9.73717 64.7822 10.4012 64.7822H12.8075C13.4287 64.7822 13.9342 65.2877 13.9342 65.9089C13.9342 66.5302 13.4287 67.0356 12.8075 67.0356H10.4012C9.73717 67.0356 9.19873 67.5741 9.19873 68.2381C9.19873 68.9022 9.73717 69.4406 10.4012 69.4406H12.8075C13.4287 69.4406 13.9342 69.9461 13.9342 70.5674C13.9342 71.1886 13.4287 71.6941 12.8075 71.6941H10.4012C9.73717 71.6941 9.19873 72.2325 9.19873 72.8966C9.19873 73.5606 9.73717 74.0991 10.4012 74.0991H12.8075C14.755 74.0991 16.3394 72.5147 16.3394 70.5674C16.3394 69.6758 16.0073 68.8603 15.4603 68.2381C16.0072 67.6161 16.3394 66.8005 16.3394 65.9089Z" fill="#FF656F"/>
</g>
<defs>
<clipPath id="clip0">
<rect width="80" height="80" fill="white"/>
</clipPath>
</defs>
</svg>
