<svg width="200" height="200" viewBox="0 0 200 200" fill="none" xmlns="http://www.w3.org/2000/svg">
<path d="M0 0V200H158.621L200 158.621V0H0Z" fill="#1E154A"/>
<path d="M13.7931 13.7931V151.724H117.862L186.207 127.841V13.7931H13.7931Z" fill="#C7D0D1"/>
<path d="M89.2724 151.724H13.7931V121.121L37.931 93.9655L89.2724 151.724Z" fill="#DF5E7D"/>
<path d="M48.2759 62.069C55.8936 62.069 62.069 55.8936 62.069 48.2759C62.069 40.6581 55.8936 34.4828 48.2759 34.4828C40.6581 34.4828 34.4828 40.6581 34.4828 48.2759C34.4828 55.8936 40.6581 62.069 48.2759 62.069Z" fill="#E1B110"/>
<path d="M134.483 47.4138L65.5172 125L89.2724 151.724H117.862L186.207 127.841V105.603L134.483 47.4138Z" fill="#98354C"/>
<path d="M158.621 200C181.474 200 200 181.474 200 158.621C200 135.768 181.474 117.241 158.621 117.241C135.768 117.241 117.241 135.768 117.241 158.621C117.241 181.474 135.768 200 158.621 200Z" fill="#0087D1"/>
<path d="M182.759 151.724H165.517V134.483H151.724V151.724H134.483V165.517H151.724V182.759H165.517V165.517H182.759V151.724Z" fill="white"/>
</svg>
